{
DisplayStrings = (
"Never Surrender",
"Mu/commaaccentcomb l/lcommaaccent/commaaccentcomb/kcommaaccent a h\U00DF/idotless ipiji m/emacron/gcommaaccent/idotless ina br/macroncomb/imacron vi nogar/scaron ot celofnfa /caroncomb zxzf/zcaron/ncommaaccent anudz/emacron/jdotless jc/ccaron/macroncomb/umacron sku.",
"torffh QuotecinsragExtraroin rs",
"[Ext]",
/ringcomb.case,
"WO& AWOV",
"/ringcomb \U00E5i"
);
classes = (
{
automatic = 1;
code = "A Aacute Abreve Acircumflex Adieresis Agrave Amacron Aogonek Aring Atilde AE B C Cacute Ccaron Ccedilla Ccircumflex D Eth Dcaron Dcroat E Eacute Ecaron Ecircumflex Edieresis Edotaccent Egrave Emacron Eogonek F G Gcircumflex Gcommaaccent H Hcircumflex I Iacute Icircumflex Idieresis Igrave Imacron Iogonek J Jcircumflex K Kcommaaccent L Lacute Lcaron Lcommaaccent Lslash M N Nacute Ncaron Ncommaaccent Eng Ntilde O Oacute Ocircumflex Odieresis Ograve Ohungarumlaut Omacron Oslash Otilde OE P Thorn Q Q.alt R Racute Rcaron Rcommaaccent S Sacute Scaron Scedilla Scircumflex Germandbls T Tbar Tcaron Tcedilla U Uacute Ubreve Ucircumflex Udieresis Ugrave Uhungarumlaut Umacron Uogonek Uring V W Wacute Wcircumflex Wdieresis Wgrave X Y Yacute Ycircumflex Ydieresis Ygrave Z Z.ss01 Zacute Zcaron Zdotaccent";
name = Uppercase;
}
);
date = "2016-03-03 10:15:36 +0000";
designer = "Mirco Monsees";
designerURL = mircomonsees.com;
familyName = "Alenta Serif";
featurePrefixes = (
{
automatic = 1;
code = "languagesystem DFLT dflt;\012languagesystem latn dflt;\012";
name = Languagesystems;
}
);
features = (
{
automatic = 1;
code = "feature ccmp;\012feature lnum;\012feature onum;\012feature case;\012feature salt;\012feature ss01;\012feature calt;\012";
name = aalt;
},
{
automatic = 1;

glyphs = (
{
glyphname = A;
lastChange = "2016-10-21 15:15:57 +0000";
layers = (
{
anchors = (
{
name = bottom;
position = "{330, 0}";
},
{
name = ogonek;
position = "{614, 10}";
},
{
name = top;
position = "{389, 656}";
}
);
background = {
paths = (
{
closed = 1;
nodes = (
"281 337 LINE",
"318 243 OFFCURVE",
"367 130 OFFCURVE",
"389 82 CURVE SMOOTH",
"394 71 OFFCURVE",
"406 59 OFFCURVE",
"429 49 CURVE",
"349 49 LINE",
"344 0 LINE",
"611 0 LINE",
"616 47 LINE",
"568 55 LINE",
"500 158 OFFCURVE",
"422 314 OFFCURVE",
"380 399 CURVE"
);
},
{
closed = 1;
nodes = (
"459 562 OFFCURVE",
"376 442 OFFCURVE",
"334 392 CURVE",
"369 316 LINE",
"437 409 OFFCURVE",
"563 586 OFFCURVE",
"592 615 CURVE SMOOTH",
"616 639 OFFCURVE",
"640 650 OFFCURVE",
"667 650 CURVE",
"672 700 LINE",
"438 700 LINE",
"433 653 LINE",
"487 645 LINE"
);
},
{
closed = 1;
nodes = (
"216 113 OFFCURVE",
"305 253 OFFCURVE",
"336 303 CURVE",
"287 368 LINE",
"227 275 OFFCURVE",
"116 112 OFFCURVE",
"85 85 CURVE SMOOTH",
"57 61 OFFCURVE",
"33 50 OFFCURVE",
"6 50 CURVE",
"1 0 LINE",
"224 0 LINE",
"229 47 LINE",
"182 55 LINE"
);
},
{
closed = 1;
nodes = (
"379 390 LINE",
"338 474 OFFCURVE",
"312 522 OFFCURVE",
"292 574 CURVE SMOOTH",
"278 610 OFFCURVE",
"264 651 OFFCURVE",
"323 651 CURVE",
"328 700 LINE",
"71 700 LINE",
"66 653 LINE",
"113 643 LINE",
"186 505 OFFCURVE",
"245 390 OFFCURVE",
"276 323 CURVE"
);
}
);
};
layerId = "71FD7A9F-05F5-4D76-8D4F-547475A05E4C";
name = "Bold Italic";
paths = (
{
closed = 1;
nodes = (
"330 675 LINE",
"334 663 OFFCURVE",
"331 628 OFFCURVE",
"337 599 CURVE",
"372 437 OFFCURVE",
"452 104 OFFCURVE",
"456 95 CURVE SMOOTH",
"462 80 OFFCURVE",
"482 66 OFFCURVE",
"501 65 CURVE",
"404 55 LINE",
"397 0 LINE",
"668 0 LINE",
"677 54 LINE",
"620 66 LINE",
"590 128 OFFCURVE",
"469 599 OFFCURVE",
"451 685 CURVE"
);
},
{
closed = 1;
nodes = (
"158 206 LINE",
"473 205 LINE",
"476 278 LINE",
"171 280 LINE"
);
},
{
closed = 1;
nodes = (
"224 228 OFFCURVE",
"299 388 OFFCURVE",
"365 537 CURVE SMOOTH",
"405 630 OFFCURVE",
"404 617 OFFCURVE",
"446 685 CURVE",
"330 675 LINE",
"260 505 OFFCURVE",
"117 206 OFFCURVE",
"77 126 CURVE SMOOTH",
"46 63 OFFCURVE",
"19 54 OFFCURVE",
"-16 53 CURVE",
"-25 0 LINE",
"217 1 LINE",
"229 54 LINE",
"172 66 LINE"
);
}
);
width = 707;
},
{
anchors = (
{
name = bottom;
position = "{353, 0}";
},
{
name = ogonek;
position = "{634, 10}";
},
{
name = top;
position = "{353, 700}";
}
);
background = {
components = (
{
name = V;
transform = "{-1, 0, 0, -1, 725, 700}";
}
);
};
layerId = "11343128-4963-4E5D-BE9C-B74F53B36FA5";
name = Bold;
paths = (
{
closed = 1;
nodes = (
"295 681 LINE",
"299 669 OFFCURVE",
"302 630 OFFCURVE",
"310 601 CURVE",
"354 439 OFFCURVE",
"468 104 OFFCURVE",
"473 95 CURVE SMOOTH",
"481 80 OFFCURVE",
"502 66 OFFCURVE",
"521 65 CURVE",
"425 55 LINE",
"422 0 LINE",
"685 0 LINE",
"690 54 LINE",
"636 66 LINE",
"601 128 OFFCURVE",
"441 595 OFFCURVE",
"416 681 CURVE"
);
},
{
closed = 1;
nodes = (
"166 206 LINE",
"481 205 LINE",
"477 278 LINE",
"172 280 LINE"
);
},
{
closed = 1;
nodes = (
"230 228 OFFCURVE",
"289 390 OFFCURVE",
"341 539 CURVE SMOOTH",
"374 632 OFFCURVE",
"374 613 OFFCURVE",
"411 681 CURVE",
"295 681 LINE",
"239 511 OFFCURVE",
"125 206 OFFCURVE",
"92 126 CURVE SMOOTH",
"66 63 OFFCURVE",
"39 55 OFFCURVE",
"4 55 CURVE",
"0 0 LINE",
"242 1 LINE",
"250 54 LINE",
"192 66 LINE"
);
}
);
width = 705;
}
);
leftKerningGroup = A;
rightKerningGroup = A;
unicode = 0041;
},
{
glyphname = AE;
lastChange = "2016-10-17 20:36:33 +0000";
layers = (
{
background = {
paths = (
{
closed = 1;
nodes = (
"159 216 LINE",
"455 252 LINE",
"472 341 LINE",
"194 294 LINE"
);
},
{
closed = 1;
nodes = (
"505 280 LINE",
"647 297 LINE",
"654 249 LINE",
"712 252 LINE",
"720 295 OFFCURVE",
"733 392 OFFCURVE",
"718 392 CURVE SMOOTH",
"709 392 OFFCURVE",
"476 349 OFFCURVE",
"513 350 CURVE"
);
},
{
closed = 1;
nodes = (
"480 60 LINE",
"471 0 LINE",
"593 0 OFFCURVE",
"697 -1 OFFCURVE",
"819 -5 CURVE",
"855 168 LINE",
"805 176 LINE",
"767 106 LINE",
"723 92 OFFCURVE",
"629 88 OFFCURVE",
"553 90 CURVE"
);
},
{
closed = 1;
nodes = (
"315 636 LINE",
"235 460 OFFCURVE",
"122 198 OFFCURVE",
"83 126 CURVE SMOOTH",
"64 89 OFFCURVE",
"24 66 OFFCURVE",
"6 58 CURVE",
"10 0 LINE",
"205 1 LINE",
"219 56 LINE",
"162 68 LINE",
"209 195 OFFCURVE",
"402 600 OFFCURVE",
"431 640 CURVE"
);
},
{
closed = 1;
nodes = (
"396 440 OFFCURVE",
"414 105 OFFCURVE",
"417 97 CURVE",
"421 82 OFFCURVE",
"438 68 OFFCURVE",
"457 67 CURVE",
"358 57 LINE",
"350 0 LINE",
"604 0 LINE",
"622 54 LINE",
"567 66 LINE",
"552 115 OFFCURVE",
"527 433 OFFCURVE",
"516 604 CURVE",
"605 603 OFFCURVE",
"662 601 OFFCURVE",
"709 591 CURVE",
"736 529 LINE",
"793 539 LINE",
"783 704 LINE",
"753 703 OFFCURVE",
"596 698 OFFCURVE",
"486 698 CURVE SMOOTH",
"411 698 OFFCURVE",
"352 699 OFFCURVE",
"274 702 CURVE",
"261 638 LINE",
"389 603 LINE"
);
}
);
};
layerId = "71FD7A9F-05F5-4D76-8D4F-547475A05E4C";
name = "Bold Italic";
paths = (
{
closed = 1;
nodes = (
"147 210 LINE",
"446 252 LINE",
"471 344 LINE",
"189 285 LINE"
);
},
{
closed = 1;
nodes = (
"499 280 LINE",
"642 297 LINE",
"648 249 LINE",
"703 252 LINE",
"715 295 OFFCURVE",
"721 385 OFFCURVE",
"706 392 CURVE SMOOTH",
"697 396 OFFCURVE",
"476 349 OFFCURVE",
"513 350 CURVE"
);
},
{
closed = 1;
nodes = (
"455 60 LINE",
"440 0 LINE",
"562 0 OFFCURVE",
"654 -1 OFFCURVE",
"776 -5 CURVE",
"815 168 LINE",
"759 176 LINE",
"722 106 LINE",
"677 92 OFFCURVE",
"606 88 OFFCURVE",
"530 90 CURVE"
);
},
{
closed = 1;
nodes = (
"340 636 LINE",
"245 460 OFFCURVE",
"109 198 OFFCURVE",
"63 126 CURVE SMOOTH",
"41 89 OFFCURVE",
"-1 66 OFFCURVE",
"-19 58 CURVE",
"-21 0 LINE",
"192 1 LINE",
"210 56 LINE",
"145 68 LINE",
"204 195 OFFCURVE",
"424 600 OFFCURVE",
"456 640 CURVE"
);
},
{
closed = 1;
nodes = (
"404 440 OFFCURVE",
"393 105 OFFCURVE",
"395 97 CURVE",
"398 82 OFFCURVE",
"413 68 OFFCURVE",
"432 67 CURVE",
"332 57 LINE",
"319 0 LINE",
"573 0 LINE",
"596 54 LINE",
"542 66 LINE",
"532 115 OFFCURVE",
"534 433 OFFCURVE",
"538 604 CURVE",
"627 603 OFFCURVE",
"674 601 OFFCURVE",
"720 591 CURVE",
"742 529 LINE",
"800 539 LINE",
"804 704 LINE",
"774 703 OFFCURVE",
"626 698 OFFCURVE",
"516 698 CURVE SMOOTH",
"441 698 OFFCURVE",
"383 699 OFFCURVE",
"305 702 CURVE",
"286 638 LINE",
"411 603 LINE"
);
}
);
width = 854;
},
{
layerId = "11343128-4963-4E5D-BE9C-B74F53B36FA5";
name = Bold;
paths = (
{
closed = 1;
nodes = (
"150 216 LINE",
"446 252 LINE",
"461 341 LINE",
"184 294 LINE"
);
},
{
closed = 1;
nodes = (
"495 280 LINE",
"637 297 LINE",
"645 249 LINE",
"703 252 LINE",
"710 295 OFFCURVE",
"721 392 OFFCURVE",
"706 392 CURVE SMOOTH",
"697 392 OFFCURVE",
"465 349 OFFCURVE",
"502 350 CURVE"
);
},
{
closed = 1;
nodes = (
"474 60 LINE",
"466 0 LINE",
"588 0 OFFCURVE",
"692 -1 OFFCURVE",
"814 -5 CURVE",
"847 168 LINE",
"797 176 LINE",
"760 106 LINE",
"716 92 OFFCURVE",
"623 88 OFFCURVE",
"547 90 CURVE"
);
},
{
closed = 1;
nodes = (
"299 636 LINE",
"222 460 OFFCURVE",
"114 198 OFFCURVE",
"76 126 CURVE SMOOTH",
"58 89 OFFCURVE",
"18 66 OFFCURVE",
"0 58 CURVE",
"5 0 LINE",
"200 1 LINE",
"213 56 LINE",
"156 68 LINE",
"201 195 OFFCURVE",
"387 600 OFFCURVE",
"415 640 CURVE"
);
},
{
closed = 1;
nodes = (
"383 440 OFFCURVE",
"407 105 OFFCURVE",
"410 97 CURVE",
"415 82 OFFCURVE",
"432 68 OFFCURVE",
"451 67 CURVE",
"352 57 LINE",
"345 0 LINE",
"599 0 LINE",
"616 54 LINE",
"561 66 LINE",
"545 115 OFFCURVE",
"515 433 OFFCURVE",
"501 604 CURVE",
"590 603 OFFCURVE",
"647 601 OFFCURVE",
"694 591 CURVE",
"722 529 LINE",
"779 539 LINE",
"766 704 LINE",
"736 703 OFFCURVE",
"579 698 OFFCURVE",
"469 698 CURVE SMOOTH",
"394 698 OFFCURVE",
"335 699 OFFCURVE",
"257 702 CURVE",
"245 638 LINE",
"374 603 LINE"
);
}
);
width = 877;
}
);
leftKerningGroup = A;
leftMetricsKey = A;
rightKerningGroup = E;
rightMetricsKey = E;
unicode = 00C6;
},
{
glyphname = B;
lastChange = "2016-10-18 16:24:27 +0000";
layers = (
{
anchors = (
{
name = bottom;
position = "{278, 0}";
},
{
name = top;
position = "{363, 700}";
}
);
background = {
components = (
{
name = R;
}
);
};
layerId = "71FD7A9F-05F5-4D76-8D4F-547475A05E4C";
name = "Bold Italic";
paths = (
{
closed = 1;
nodes = (
"220 292 LINE",
"388 347 LINE",
"492 338 OFFCURVE",
"579 442 OFFCURVE",
"558 554 CURVE SMOOTH",
"535 675 OFFCURVE",
"389 687 OFFCURVE",
"225 684 CURVE SMOOTH",
"173 683 OFFCURVE",
"83 679 OFFCURVE",
"75 676 CURVE",
"255 600 LINE",
"432 636 OFFCURVE",
"470 434 OFFCURVE",
"368 378 CURVE",
"342 371 OFFCURVE",
"268 368 OFFCURVE",
"228 383 CURVE"
);
},
{
closed = 1;
nodes = (
"131 0 LINE",
"303 -1 LINE SMOOTH",
"430 -2 OFFCURVE",
"601 74 OFFCURVE",
"563 258 CURVE SMOOTH",
"529 415 OFFCURVE",
"305 377 OFFCURVE",
"240 339 CURVE",
"223 293 LINE",
"454 351 OFFCURVE",
"496 124 OFFCURVE",
"326 79 CURVE SMOOTH",
"291 70 OFFCURVE",
"243 83 OFFCURVE",
"218 91 CURVE"
);
},
{
closed = 1;
nodes = (
"75 676 LINE",
"65 621 LINE",
"120 610 LINE",
"130 585 OFFCURVE",
"123 502 OFFCURVE",
"112 399 CURVE SMOOTH",
"90 189 OFFCURVE",
"71 114 OFFCURVE",
"75 98 CURVE SMOOTH",
"77 86 OFFCURVE",
"92 71 OFFCURVE",
"121 65 CURVE",
"13 55 LINE",
"6 0 LINE",
"134 0 LINE",
"297 54 LINE",
"240 64 LINE",
"207 123 OFFCURVE",
"230 299 OFFCURVE",
"235 345 CURVE SMOOTH",
"249 478 OFFCURVE",
"262 565 OFFCURVE",
"278 586 CURVE SMOOTH",
"289 606 OFFCURVE",
"313 619 OFFCURVE",
"336 621 CURVE",
"342 676 LINE"
);
}
);
width = 605;
},
{
anchors = (
{
name = bottom;
position = "{307, 0}";
},
{
name = top;
position = "{307, 700}";
}
);
background = {
components = (
{
name = R;
}
);
};
layerId = "11343128-4963-4E5D-BE9C-B74F53B36FA5";
name = Bold;
paths = (
{
closed = 1;
nodes = (
"223 291 LINE",
"369 347 LINE",
"473 338 OFFCURVE",
"561 453 OFFCURVE",
"530 557 CURVE SMOOTH",
"494 678 OFFCURVE",
"356 690 OFFCURVE",
"192 687 CURVE SMOOTH",
"140 686 OFFCURVE",
"51 682 OFFCURVE",
"43 679 CURVE",
"224 600 LINE",
"393 636 OFFCURVE",
"451 433 OFFCURVE",
"360 377 CURVE",
"321 373 OFFCURVE",
"264 367 OFFCURVE",
"222 382 CURVE"
);
},
{
closed = 1;
nodes = (
"160 0 LINE",
"332 -1 LINE SMOOTH",
"459 -2 OFFCURVE",
"623 72 OFFCURVE",
"568 256 CURVE SMOOTH",
"521 413 OFFCURVE",
"300 376 OFFCURVE",
"238 338 CURVE",
"226 292 LINE",
"452 350 OFFCURVE",
"517 124 OFFCURVE",
"352 79 CURVE",
"243 91 LINE"
);
},
{
closed = 1;
nodes = (
"43 679 LINE",
"38 624 LINE",
"93 613 LINE",
"105 588 OFFCURVE",
"105 513 OFFCURVE",
"105 397 CURVE SMOOTH",
"105 187 OFFCURVE",
"90 114 OFFCURVE",
"95 98 CURVE SMOOTH",
"99 86 OFFCURVE",
"115 71 OFFCURVE",
"144 65 CURVE",
"37 55 LINE",
"35 0 LINE",
"316 1 LINE",
"321 54 LINE",
"263 64 LINE",
"225 123 OFFCURVE",
"233 298 OFFCURVE",
"233 344 CURVE SMOOTH",
"233 501 OFFCURVE",
"236 568 OFFCURVE",
"249 589 CURVE SMOOTH",
"259 609 OFFCURVE",
"286 622 OFFCURVE",
"309 624 CURVE",
"310 679 LINE"
);
}
);
width = 614;
}
);
leftKerningGroup = I;
leftMetricsKey = I;
rightKerningGroup = B;
unicode = 0042;
},
{
glyphname = C;
lastChange = "2016-10-21 14:21:48 +0000";
layers = (
{
anchors = (
{
name = bottom;
position = "{302, 0}";
},
{
name = top;
position = "{397, 646}";
}
);
background = {
paths = (
{
closed = 1;
nodes = (
"183 724 OFFCURVE",
"30 495 OFFCURVE",
"64 235 CURVE SMOOTH",
"87 64 OFFCURVE",
"203 -5 OFFCURVE",
"317 -14 CURVE SMOOTH",
"446 -24 OFFCURVE",
"558 12 OFFCURVE",
"613 51 CURVE",
"613 129 OFFCURVE",
"619 227 OFFCURVE",
"626 249 CURVE SMOOTH",
"635 276 OFFCURVE",
"657 282 OFFCURVE",
"665 282 CURVE",
"669 343 LINE",
"584 340 OFFCURVE",
"540 341 OFFCURVE",
"460 344 CURVE",
"452 285 LINE",
"505 269 LINE",
"504 213 OFFCURVE",
"504 117 OFFCURVE",
"467 76 CURVE",
"330 62 OFFCURVE",
"249 113 OFFCURVE",
"222 270 CURVE SMOOTH",
"186 489 OFFCURVE",
"290 598 OFFCURVE",
"353 625 CURVE",
"450 619 OFFCURVE",
"512 584 OFFCURVE",
"539 547 CURVE",
"544 492 LINE",
"609 502 LINE",
"634 640 LINE",
"602 673 OFFCURVE",
"534 718 OFFCURVE",
"417 720 CURVE SMOOTH"
);
}
);
};
layerId = "71FD7A9F-05F5-4D76-8D4F-547475A05E4C";
name = "Bold Italic";
paths = (
{
closed = 1;
nodes = (
"565 59 LINE",
"543 41 OFFCURVE",
"459 -4 OFFCURVE",
"346 -9 CURVE SMOOTH",
"203 -15 OFFCURVE",
"78 43 OFFCURVE",
"44 204 CURVE SMOOTH",
"-6 442 OFFCURVE",
"140 698 OFFCURVE",
"405 694 CURVE SMOOTH",
"504 693 OFFCURVE",
"583 651 OFFCURVE",
"615 615 CURVE",
"589 476 LINE",
"525 466 LINE",
"523 517 LINE",
"503 549 OFFCURVE",
"441 616 OFFCURVE",
"348 616 CURVE",
"272 590 OFFCURVE",
"159 448 OFFCURVE",
"192 269 CURVE SMOOTH",
"212 163 OFFCURVE",
"274 93 OFFCURVE",
"385 84 CURVE SMOOTH",
"448 79 OFFCURVE",
"513 89 OFFCURVE",
"552 111 CURVE"
);
}
);
width = 609;
},
{
anchors = (
{
name = bottom;
position = "{309, 0}";
},
{
name = top;
position = "{333, 700}";
}
);
background = {
components = (
{
name = O;
}
);
};
layerId = "11343128-4963-4E5D-BE9C-B74F53B36FA5";
name = Bold;
paths = (
{
closed = 1;
nodes = (
"530 92 OFFCURVE",
"466 79 OFFCURVE",
"402 84 CURVE SMOOTH",
"291 93 OFFCURVE",
"223 160 OFFCURVE",
"194 265 CURVE SMOOTH",
"144 447 OFFCURVE",
"246 582 OFFCURVE",
"319 608 CURVE",
"412 608 OFFCURVE",
"478 550 OFFCURVE",
"501 519 CURVE",
"508 468 LINE",
"570 478 LINE",
"584 616 LINE",
"549 651 OFFCURVE",
"467 693 OFFCURVE",
"368 694 CURVE SMOOTH",
"102 698 OFFCURVE",
"-20 439 OFFCURVE",
"51 202 CURVE SMOOTH",
"99 42 OFFCURVE",
"229 -15 OFFCURVE",
"371 -9 CURVE SMOOTH",
"484 -4 OFFCURVE",
"564 40 OFFCURVE",
"585 58 CURVE",
"565 121 LINE"
);
}
);
width = 617;
}
);
leftKerningGroup = O;
leftMetricsKey = O;
rightKerningGroup = C;
unicode = 0043;
},
{
glyphname = D;
lastChange = "2016-10-17 20:36:33 +0000";
layers = (
{
anchors = (
{
name = bottom;
position = "{312, 0}";
},
{
name = center;
position = "{208, 350}";
},
{
name = top;
position = "{357, 700}";
}
);
background = {
paths = (
{
closed = 1;
nodes = (
"529 683 OFFCURVE",
"442 727 OFFCURVE",
"308 709 CURVE",
"19 647 OFFCURVE",
"-40 244 OFFCURVE",
"94 81 CURVE SMOOTH",
"165 -7 OFFCURVE",
"274 -28 OFFCURVE",
"391 0 CURVE",
"646 77 OFFCURVE",
"717 439 OFFCURVE",
"580 616 CURVE SMOOTH"
);
},
{
closed = 1;
nodes = (
"305 74 OFFCURVE",
"252 99 OFFCURVE",
"217 176 CURVE SMOOTH",
"143 333 OFFCURVE",
"171 545 OFFCURVE",
"311 626 CURVE",
"370 626 OFFCURVE",
"420 608 OFFCURVE",
"460 519 CURVE SMOOTH",
"528 371 OFFCURVE",
"503 162 OFFCURVE",
"365 75 CURVE"
);
}
);
};
layerId = "71FD7A9F-05F5-4D76-8D4F-547475A05E4C";
name = "Bold Italic";
paths = (
{
closed = 1;
nodes = (
"336 70 LINE",
"432 111 OFFCURVE",
"535 224 OFFCURVE",
"492 428 CURVE SMOOTH",
"459 583 OFFCURVE",
"337 626 OFFCURVE",
"267 616 CURVE",
"78 683 LINE",
"111 684 OFFCURVE",
"208 689 OFFCURVE",
"281 688 CURVE SMOOTH",
"461 686 OFFCURVE",
"594 640 OFFCURVE",
"632 470 CURVE SMOOTH",
"692 198 OFFCURVE",
"502 -5 OFFCURVE",
"289 -3 CURVE SMOOTH",
"11 0 LINE",
"221 85 LINE"
);
},
{
closed = 1;
nodes = (
"340 628 LINE",
"316 626 OFFCURVE",
"292 613 OFFCURVE",
"281 593 CURVE SMOOTH",
"266 572 OFFCURVE",
"252 493 OFFCURVE",
"240 353 CURVE SMOOTH",
"236 307 OFFCURVE",
"212 123 OFFCURVE",
"245 64 CURVE",
"302 54 LINE",
"293 1 LINE",
"11 0 LINE",
"18 55 LINE",
"126 65 LINE",
"97 71 OFFCURVE",
"82 86 OFFCURVE",
"80 98 CURVE SMOOTH",
"76 114 OFFCURVE",
"100 197 OFFCURVE",
"117 407 CURVE SMOOTH",
"126 517 OFFCURVE",
"135 592 OFFCURVE",
"124 617 CURVE",
"66 628 LINE",
"76 683 LINE",
"345 683 LINE"
);
}
);
width = 666;
},
{
anchors = (
{
name = bottom;
position = "{321, 0}";
},
{
name = center;
position = "{161, 350}";
},
{
name = top;
position = "{321, 700}";
}
);
background = {
paths = (
{
closed = 1;
nodes = (
"23 0 LINE",
"301 -3 LINE SMOOTH",
"514 -5 OFFCURVE",
"680 198 OFFCURVE",
"612 482 CURVE SMOOTH",
"568 666 OFFCURVE",
"414 703 OFFCURVE",
"233 705 CURVE SMOOTH",
"159 706 OFFCURVE",
"66 701 OFFCURVE",
"33 700 CURVE",
"226 622 LINE",
"295 632 OFFCURVE",
"429 582 OFFCURVE",
"462 441 CURVE SMOOTH",
"510 234 OFFCURVE",
"415 107 OFFCURVE",
"342 71 CURVE",
"226 85 LINE"
);
}
);
};
layerId = "11343128-4963-4E5D-BE9C-B74F53B36FA5";
name = Bold;
paths = (
{
closed = 1;
nodes = (
"35 0 LINE",
"313 -3 LINE SMOOTH",
"526 -5 OFFCURVE",
"687 206 OFFCURVE",
"603 478 CURVE SMOOTH",
"550 648 OFFCURVE",
"426 685 OFFCURVE",
"245 687 CURVE SMOOTH",
"171 688 OFFCURVE",
"78 683 OFFCURVE",
"45 682 CURVE",
"238 604 LINE",
"307 614 OFFCURVE",
"430 560 OFFCURVE",
"462 419 CURVE SMOOTH",
"508 215 OFFCURVE",
"415 107 OFFCURVE",
"342 71 CURVE",
"238 85 LINE"
);
},
{
closed = 1;
nodes = (
"43 682 LINE",
"38 627 LINE",
"93 616 LINE",
"105 591 OFFCURVE",
"105 516 OFFCURVE",
"105 389 CURVE SMOOTH",
"105 179 OFFCURVE",
"90 114 OFFCURVE",
"95 98 CURVE SMOOTH",
"99 86 OFFCURVE",
"115 71 OFFCURVE",
"144 65 CURVE",
"37 55 LINE",
"35 0 LINE",
"316 1 LINE",
"321 54 LINE",
"263 64 LINE",
"225 123 OFFCURVE",
"233 289 OFFCURVE",
"233 335 CURVE SMOOTH",
"233 492 OFFCURVE",
"240 571 OFFCURVE",
"253 592 CURVE SMOOTH",
"263 612 OFFCURVE",
"286 625 OFFCURVE",
"309 627 CURVE",
"310 682 LINE"
);
}
);
width = 654;
}
);
leftKerningGroup = I;
leftMetricsKey = I;
rightKerningGroup = O;
unicode = 0044;
},
{
glyphname = E;
lastChange = "2016-10-16 17:04:56 +0000";
layers = (
{
anchors = (
{
name = bottom;
position = "{267, 0}";
},
{
name = ogonek;
position = "{490, 10}";
},
{
name = top;
position = "{336, 658}";
},
{
name = topleft;
position = "{93, 700}";
}
);
background = {
paths = (
{
closed = 1;
nodes = (
"88 700 LINE",
"80 653 LINE",
"130 642 LINE",
"141 602 OFFCURVE",
"134 484 OFFCURVE",
"131 427 CURVE SMOOTH",
"122 249 OFFCURVE",
"97 101 OFFCURVE",
"100 88 CURVE SMOOTH",
"104 74 OFFCURVE",
"142 56 OFFCURVE",
"161 50 CURVE",
"41 51 LINE",
"38 0 LINE",
"536 -1 LINE",
"562 164 LINE",
"512 175 LINE",
"507 165 OFFCURVE",
"492 127 OFFCURVE",
"478 98 CURVE",
"439 85 OFFCURVE",
"340 80 OFFCURVE",
"266 81 CURVE",
"236 114 OFFCURVE",
"244 228 OFFCURVE",
"252 331 CURVE",
"374 325 LINE",
"385 279 LINE",
"425 282 LINE",
"430 325 OFFCURVE",
"437 410 OFFCURVE",
"422 410 CURVE SMOOTH",
"414 410 OFFCURVE",
"251 404 OFFCURVE",
"257 404 CURVE",
"258 455 OFFCURVE",
"274 570 OFFCURVE",
"285 614 CURVE",
"356 614 OFFCURVE",
"455 615 OFFCURVE",
"499 601 CURVE",
"506 585 OFFCURVE",
"518 561 OFFCURVE",
"533 524 CURVE",
"583 535 LINE",
"557 700 LINE"
);
}
);
};
guideLines = (
{
angle = 12;
position = "{504, 529}";
},
{
angle = -12;
position = "{485, 175}";
},
{
angle = 84;
position = "{499, 548}";
}
);
layerId = "71FD7A9F-05F5-4D76-8D4F-547475A05E4C";
name = "Bold Italic";
paths = (
{
closed = 1;
nodes = (
"217 329 LINE",
"337 322 LINE",
"346 276 LINE",
"404 279 LINE",
"411 322 OFFCURVE",
"420 410 OFFCURVE",
"405 410 CURVE SMOOTH",
"396 410 OFFCURVE",
"181 403 OFFCURVE",
"227 404 CURVE"
);
},
{
closed = 1;
nodes = (
"330 583 OFFCURVE",
"430 582 OFFCURVE",
"480 572 CURVE",
"508 510 LINE",
"564 520 LINE",
"550 685 LINE",
"434 681 OFFCURVE",
"319 680 OFFCURVE",
"203 680 CURVE",
"210 584 LINE"
);
},
{
closed = 1;
nodes = (
"146 63 LINE",
"139 0 LINE",
"261 0 OFFCURVE",
"382 -1 OFFCURVE",
"504 -5 CURVE",
"535 168 LINE",
"485 176 LINE",
"449 106 LINE",
"405 92 OFFCURVE",
"294 88 OFFCURVE",
"218 90 CURVE"
);
},
{
closed = 1;
nodes = (
"74 680 LINE",
"65 625 LINE",
"119 614 LINE",
"129 589 OFFCURVE",
"122 514 OFFCURVE",
"111 407 CURVE SMOOTH",
"89 197 OFFCURVE",
"71 114 OFFCURVE",
"74 98 CURVE SMOOTH",
"77 86 OFFCURVE",
"92 71 OFFCURVE",
"120 65 CURVE",
"16 55 LINE",
"10 0 LINE",
"287 0 LINE",
"296 54 LINE",
"239 70 LINE",
"206 129 OFFCURVE",
"229 307 OFFCURVE",
"234 353 CURVE SMOOTH",
"248 490 OFFCURVE",
"262 569 OFFCURVE",
"277 590 CURVE SMOOTH",
"289 610 OFFCURVE",
"312 623 OFFCURVE",
"336 625 CURVE",
"341 680 LINE"
);
}
);
width = 574;
},
{
anchors = (
{
name = bottom;
position = "{290, 0}";
},
{
name = ogonek;
position = "{522, 10}";
},
{
name = top;
position = "{290, 703}";
},
{
name = topleft;
position = "{20, 700}";
}
);
background = {
components = (
{
name = P;
}
);
};
layerId = "11343128-4963-4E5D-BE9C-B74F53B36FA5";
name = Bold;
paths = (
{
closed = 1;
nodes = (
"217 332 LINE",
"338 325 LINE",
"351 279 LINE",
"409 282 LINE",
"412 325 OFFCURVE",
"414 410 OFFCURVE",
"399 410 CURVE SMOOTH",
"390 410 OFFCURVE",
"175 403 OFFCURVE",
"221 404 CURVE"
);
},
{
closed = 1;
nodes = (
"307 590 OFFCURVE",
"397 589 OFFCURVE",
"447 579 CURVE",
"472 517 LINE",
"537 527 LINE",
"519 683 LINE",
"403 676 OFFCURVE",
"288 677 OFFCURVE",
"172 677 CURVE",
"187 591 LINE"
);
},
{
closed = 1;
nodes = (
"460 100 LINE",
"420 87 OFFCURVE",
"329 82 OFFCURVE",
"253 84 CURVE",
"226 156 OFFCURVE",
"233 311 OFFCURVE",
"233 353 CURVE SMOOTH",
"233 506 OFFCURVE",
"240 566 OFFCURVE",
"253 587 CURVE",
"263 607 OFFCURVE",
"286 620 OFFCURVE",
"309 622 CURVE",
"310 677 LINE",
"221 677 OFFCURVE",
"132 675 OFFCURVE",
"43 679 CURVE",
"38 619 LINE",
"93 609 LINE",
"105 584 OFFCURVE",
"105 511 OFFCURVE",
"105 407 CURVE SMOOTH",
"105 197 OFFCURVE",
"90 114 OFFCURVE",
"95 98 CURVE SMOOTH",
"99 86 OFFCURVE",
"115 71 OFFCURVE",
"144 65 CURVE",
"37 55 LINE",
"35 -2 LINE",
"201 2 OFFCURVE",
"367 1 OFFCURVE",
"533 -3 CURVE",
"550 162 LINE",
"491 170 LINE"
);
}
);
width = 580;
}
);
leftKerningGroup = I;
leftMetricsKey = I;
rightKerningGroup = E;
unicode = 0045;
},
{
glyphname = F;
lastChange = "2016-10-17 20:36:33 +0000";
layers = (
{
background = {
components = (
{
name = E;
}
);
};
guideLines = (
{
position = "{501, 541}";
}
);
layerId = "71FD7A9F-05F5-4D76-8D4F-547475A05E4C";
name = "Bold Italic";
paths = (
{
closed = 1;
nodes = (
"208 324 LINE",
"328 317 LINE",
"338 271 LINE",
"396 274 LINE",
"402 317 OFFCURVE",
"412 405 OFFCURVE",
"397 405 CURVE SMOOTH",
"388 405 OFFCURVE",
"172 398 OFFCURVE",
"218 399 CURVE"
);
},
{
closed = 1;
nodes = (
"315 585 OFFCURVE",
"415 584 OFFCURVE",
"465 574 CURVE",
"493 512 LINE",
"549 522 LINE",
"535 686 LINE",
"419 678 OFFCURVE",
"304 680 OFFCURVE",
"188 680 CURVE",
"195 586 LINE"
);
},
{
closed = 1;
nodes = (
"110 0 LINE",
"302 0 LINE",
"311 53 LINE",
"180 75 LINE"
);
},
{
closed = 1;
nodes = (
"74 680 LINE",
"65 625 LINE",
"119 614 LINE",
"129 589 OFFCURVE",
"122 514 OFFCURVE",
"111 407 CURVE SMOOTH",
"89 197 OFFCURVE",
"71 114 OFFCURVE",
"74 98 CURVE SMOOTH",
"77 86 OFFCURVE",
"92 71 OFFCURVE",
"120 65 CURVE",
"12 55 LINE",
"6 0 LINE",
"287 1 LINE",
"296 54 LINE",
"239 64 LINE",
"206 123 OFFCURVE",
"229 307 OFFCURVE",
"234 353 CURVE SMOOTH",
"248 490 OFFCURVE",
"262 569 OFFCURVE",
"277 590 CURVE SMOOTH",
"289 610 OFFCURVE",
"312 623 OFFCURVE",
"336 625 CURVE",
"341 680 LINE"
);
}
);
width = 529;
},
{
anchors = (
{
name = bottom;
position = "{280, 0}";
},
{
name = top;
position = "{280, 700}";
}
);
background = {
components = (
{
name = I;
transform = "{1, 0, 0, 1, -8, 0}";
}
);
paths = (
{
closed = 1;
nodes = (
"209 327 LINE",
"330 320 LINE",
"343 274 LINE",
"401 277 LINE",
"404 320 OFFCURVE",
"406 405 OFFCURVE",
"391 405 CURVE SMOOTH",
"382 405 OFFCURVE",
"167 398 OFFCURVE",
"213 399 CURVE"
);
},
{
closed = 1;
nodes = (
"292 613 OFFCURVE",
"392 612 OFFCURVE",
"442 602 CURVE",
"476 540 LINE",
"531 550 LINE",
"504 700 LINE",
"157 700 LINE",
"172 614 LINE"
);
},
{
closed = 1;
nodes = (
"139 0 LINE",
"331 0 LINE",
"336 53 LINE",
"203 75 LINE"
);
}
);
};
layerId = "11343128-4963-4E5D-BE9C-B74F53B36FA5";
name = Bold;
paths = (
{
closed = 1;
nodes = (
"209 327 LINE",
"330 320 LINE",
"343 274 LINE",
"401 277 LINE",
"404 320 OFFCURVE",
"406 405 OFFCURVE",
"391 405 CURVE SMOOTH",
"382 405 OFFCURVE",
"167 398 OFFCURVE",
"213 399 CURVE"
);
},
{
closed = 1;
nodes = (
"292 595 OFFCURVE",
"379 592 OFFCURVE",
"429 584 CURVE",
"452 522 LINE",
"521 532 LINE",
"505 688 LINE",
"389 681 OFFCURVE",
"273 682 OFFCURVE",
"157 680 CURVE",
"172 596 LINE"
);
},
{
closed = 1;
nodes = (
"139 0 LINE",
"331 0 LINE",
"336 53 LINE",
"203 75 LINE"
);
},
{
closed = 1;
nodes = (
"43 682 LINE",
"38 619 LINE",
"93 608 LINE",
"105 583 OFFCURVE",
"105 516 OFFCURVE",
"105 407 CURVE SMOOTH",
"105 197 OFFCURVE",
"90 114 OFFCURVE",
"95 98 CURVE SMOOTH",
"99 86 OFFCURVE",
"115 71 OFFCURVE",
"144 65 CURVE",
"37 55 LINE",
"35 0 LINE",
"316 1 LINE",
"321 54 LINE",
"263 64 LINE",
"225 123 OFFCURVE",
"233 307 OFFCURVE",
"233 353 CURVE SMOOTH",
"233 522 OFFCURVE",
"240 571 OFFCURVE",
"253 592 CURVE SMOOTH",
"263 612 OFFCURVE",
"286 625 OFFCURVE",
"309 627 CURVE",
"310 680 LINE"
);
}
);
width = 560;
}
);
leftKerningGroup = I;
leftMetricsKey = I;
rightKerningGroup = F;
unicode = 0046;
},
{
glyphname = G;
lastChange = "2016-10-21 14:13:11 +0000";
layers = (
{
anchors = (
{
name = bottom;
position = "{346, 0}";
},
{
name = top;
position = "{366, 654}";
}
);
background = {
components = (
{
name = C;
}
);
};
layerId = "71FD7A9F-05F5-4D76-8D4F-547475A05E4C";
name = "Bold Italic";
paths = (
{
closed = 1;
nodes = (
"157 694 OFFCURVE",
"3 489 OFFCURVE",
"43 235 CURVE SMOOTH",
"69 71 OFFCURVE",
"187 -5 OFFCURVE",
"305 -14 CURVE SMOOTH",
"438 -24 OFFCURVE",
"540 12 OFFCURVE",
"597 51 CURVE",
"597 129 OFFCURVE",
"603 227 OFFCURVE",
"610 249 CURVE SMOOTH",
"619 276 OFFCURVE",
"642 282 OFFCURVE",
"650 282 CURVE",
"654 343 LINE",
"566 340 OFFCURVE",
"521 341 OFFCURVE",
"438 344 CURVE",
"430 285 LINE",
"485 269 LINE",
"484 213 OFFCURVE",
"484 117 OFFCURVE",
"446 76 CURVE",
"327 57 OFFCURVE",
"220 114 OFFCURVE",
"195 271 CURVE SMOOTH",
"163 469 OFFCURVE",
"276 579 OFFCURVE",
"340 606 CURVE",
"422 600 OFFCURVE",
"507 551 OFFCURVE",
"534 514 CURVE",
"539 459 LINE",
"602 470 LINE",
"631 629 LINE",
"597 662 OFFCURVE",
"526 694 OFFCURVE",
"399 694 CURVE SMOOTH"
);
}
);
width = 676;
},
{
anchors = (
{
name = bottom;
position = "{338, 0}";
},
{
name = top;
position = "{352, 708}";
}
);
background = {
components = (
{
name = C;
}
);
};
layerId = "11343128-4963-4E5D-BE9C-B74F53B36FA5";
name = Bold;
paths = (
{
closed = 1;
nodes = (
"128 698 OFFCURVE",
"-13 489 OFFCURVE",
"43 235 CURVE SMOOTH",
"79 71 OFFCURVE",
"204 -5 OFFCURVE",
"322 -14 CURVE SMOOTH",
"456 -24 OFFCURVE",
"555 12 OFFCURVE",
"609 51 CURVE",
"603 129 OFFCURVE",
"603 227 OFFCURVE",
"608 249 CURVE SMOOTH",
"615 276 OFFCURVE",
"638 282 OFFCURVE",
"646 282 CURVE",
"645 343 LINE",
"558 340 OFFCURVE",
"513 341 OFFCURVE",
"430 344 CURVE",
"427 285 LINE",
"482 269 LINE",
"485 213 OFFCURVE",
"491 117 OFFCURVE",
"456 76 CURVE",
"338 57 OFFCURVE",
"227 115 OFFCURVE",
"192 272 CURVE SMOOTH",
"148 470 OFFCURVE",
"253 586 OFFCURVE",
"316 613 CURVE",
"397 607 OFFCURVE",
"485 555 OFFCURVE",
"515 518 CURVE",
"524 463 LINE",
"586 474 LINE",
"604 633 LINE",
"568 666 OFFCURVE",
"497 698 OFFCURVE",
"371 698 CURVE SMOOTH"
);
}
);
width = 676;
}
);
leftKerningGroup = O;
leftMetricsKey = O;
rightKerningGroup = I;
unicode = 0047;
},
{
glyphname = H;
lastChange = "2016-10-17 20:36:33 +0000";
layers = (
{
anchors = (
{
name = bottom;
position = "{335, 0}";
},
{
name = center;
position = "{378, 350}";
},
{
name = top;
position = "{379, 640}";
},
{
name = topleft;
position = "{81, 700}";
}
);
background = {
paths = (
{
closed = 1;
nodes = (
"558 671 OFFCURVE",
"487 732 OFFCURVE",
"321 696 CURVE SMOOTH",
"69 641 OFFCURVE",
"15 234 OFFCURVE",
"139 89 CURVE SMOOTH",
"210 6 OFFCURVE",
"292 -23 OFFCURVE",
"432 8 CURVE SMOOTH",
"665 60 OFFCURVE",
"733 458 OFFCURVE",
"604 615 CURVE SMOOTH"
);
},
{
closed = 1;
nodes = (
"336 77 OFFCURVE",
"287 104 OFFCURVE",
"253 179 CURVE SMOOTH",
"184 333 OFFCURVE",
"204 544 OFFCURVE",
"339 627 CURVE",
"396 627 OFFCURVE",
"455 609 OFFCURVE",
"493 522 CURVE SMOOTH",
"557 377 OFFCURVE",
"541 162 OFFCURVE",
"404 77 CURVE"
);
}
);
};
guideLines = (
{
position = "{1811, 733}";
}
);
layerId = "71FD7A9F-05F5-4D76-8D4F-547475A05E4C";
name = "Bold Italic";
paths = (
{
closed = 1;
nodes = (
"209 295 LINE",
"515 298 LINE",
"514 381 LINE",
"221 381 LINE"
);
},
{
closed = 1;
nodes = (
"74 680 LINE",
"65 625 LINE",
"119 614 LINE",
"129 589 OFFCURVE",
"122 514 OFFCURVE",
"111 407 CURVE SMOOTH",
"89 197 OFFCURVE",
"71 114 OFFCURVE",
"74 98 CURVE SMOOTH",
"77 86 OFFCURVE",
"92 71 OFFCURVE",
"120 65 CURVE",
"12 55 LINE",
"6 0 LINE",
"286 1 LINE",
"295 54 LINE",
"238 64 LINE",
"205 123 OFFCURVE",
"228 307 OFFCURVE",
"233 353 CURVE SMOOTH",
"247 490 OFFCURVE",
"261 569 OFFCURVE",
"276 590 CURVE SMOOTH",
"288 610 OFFCURVE",
"311 623 OFFCURVE",
"335 625 CURVE",
"340 680 LINE"
);
},
{
closed = 1;
nodes = (
"446 680 LINE",
"437 625 LINE",
"491 614 LINE",
"501 589 OFFCURVE",
"494 514 OFFCURVE",
"483 407 CURVE SMOOTH",
"461 197 OFFCURVE",
"443 114 OFFCURVE",
"446 98 CURVE SMOOTH",
"449 86 OFFCURVE",
"464 71 OFFCURVE",
"492 65 CURVE",
"384 55 LINE",
"378 0 LINE",
"658 1 LINE",
"667 54 LINE",
"610 64 LINE",
"577 123 OFFCURVE",
"600 307 OFFCURVE",
"605 353 CURVE SMOOTH",
"619 490 OFFCURVE",
"633 569 OFFCURVE",
"648 590 CURVE SMOOTH",
"660 610 OFFCURVE",
"683 623 OFFCURVE",
"707 625 CURVE",
"712 680 LINE"
);
}
);
width = 712;
},
{
anchors = (
{
name = bottom;
position = "{361, 0}";
},
{
name = center;
position = "{361, 350}";
},
{
name = top;
position = "{361, 700}";
},
{
name = topleft;
position = "{20, 700}";
}
);
layerId = "11343128-4963-4E5D-BE9C-B74F53B36FA5";
name = Bold;
paths = (
{
closed = 1;
nodes = (
"212 304 LINE",
"518 307 LINE",
"509 390 LINE",
"216 390 LINE"
);
},
{
closed = 1;
nodes = (
"43 680 LINE",
"38 625 LINE",
"93 614 LINE",
"105 589 OFFCURVE",
"105 514 OFFCURVE",
"105 407 CURVE SMOOTH",
"105 197 OFFCURVE",
"90 114 OFFCURVE",
"95 98 CURVE SMOOTH",
"99 86 OFFCURVE",
"115 71 OFFCURVE",
"144 65 CURVE",
"37 55 LINE",
"35 0 LINE",
"315 1 LINE",
"320 54 LINE",
"262 64 LINE",
"224 123 OFFCURVE",
"232 307 OFFCURVE",
"232 353 CURVE SMOOTH",
"232 490 OFFCURVE",
"239 569 OFFCURVE",
"252 590 CURVE SMOOTH",
"262 610 OFFCURVE",
"285 623 OFFCURVE",
"308 625 CURVE",
"309 680 LINE"
);
},
{
closed = 1;
nodes = (
"415 680 LINE",
"410 625 LINE",
"465 614 LINE",
"477 589 OFFCURVE",
"477 514 OFFCURVE",
"477 407 CURVE SMOOTH",
"477 197 OFFCURVE",
"462 114 OFFCURVE",
"467 98 CURVE SMOOTH",
"471 86 OFFCURVE",
"487 71 OFFCURVE",
"516 65 CURVE",
"409 55 LINE",
"407 0 LINE",
"687 1 LINE",
"692 54 LINE",
"634 64 LINE",
"596 123 OFFCURVE",
"604 307 OFFCURVE",
"604 353 CURVE SMOOTH",
"604 490 OFFCURVE",
"611 569 OFFCURVE",
"624 590 CURVE SMOOTH",
"634 610 OFFCURVE",
"657 623 OFFCURVE",
"680 625 CURVE",
"681 680 LINE"
);
}
);
width = 722;
}
);
leftKerningGroup = I;
leftMetricsKey = I;
rightKerningGroup = I;
rightMetricsKey = I;
unicode = 0048;
},
{
glyphname = I;
lastChange = "2016-10-16 15:55:26 +0000";
layers = (
{
anchors = (
{
name = bottom;
position = "{197, 0}";
},
{
name = ogonek;
position = "{304, 10}";
},
{
name = top;
position = "{252, 648}";
},
{
name = topleft;
position = "{133, 700}";
}
);
background = {
paths = (
{
closed = 1;
nodes = (
"512 175 LINE",
"509 172 OFFCURVE",
"499 96 OFFCURVE",
"440 74 CURVE SMOOTH",
"397 58 OFFCURVE",
"340 58 OFFCURVE",
"289 61 CURVE",
"271 150 OFFCURVE",
"282 278 OFFCURVE",
"299 433 CURVE SMOOTH",
"307 505 OFFCURVE",
"317 614 OFFCURVE",
"346 637 CURVE SMOOTH",
"363 650 OFFCURVE",
"380 649 OFFCURVE",
"387 650 CURVE",
"392 700 LINE",
"287 697 OFFCURVE",
"230 697 OFFCURVE",
"132 700 CURVE",
"128 650 LINE",
"139 650 OFFCURVE",
"157 646 OFFCURVE",
"168 634 CURVE SMOOTH",
"192 608 OFFCURVE",
"180 510 OFFCURVE",
"170 418 CURVE SMOOTH",
"157 299 OFFCURVE",
"126 102 OFFCURVE",
"128 88 CURVE SMOOTH",
"132 77 OFFCURVE",
"148 67 OFFCURVE",
"184 51 CURVE",
"65 53 LINE",
"59 0 LINE",
"221 4 OFFCURVE",
"281 4 OFFCURVE",
"536 0 CURVE",
"546 89 OFFCURVE",
"560 159 OFFCURVE",
"561 165 CURVE"
);
}
);
};
layerId = "71FD7A9F-05F5-4D76-8D4F-547475A05E4C";
name = "Bold Italic";
paths = (
{
closed = 1;
nodes = (
"74 680 LINE",
"65 625 LINE",
"119 614 LINE",
"129 589 OFFCURVE",
"122 514 OFFCURVE",
"111 407 CURVE SMOOTH",
"89 197 OFFCURVE",
"71 114 OFFCURVE",
"74 98 CURVE SMOOTH",
"77 86 OFFCURVE",
"92 71 OFFCURVE",
"120 65 CURVE",
"12 55 LINE",
"6 0 LINE",
"285 0 LINE",
"294 54 LINE",
"237 64 LINE",
"204 123 OFFCURVE",
"228 307 OFFCURVE",
"232 353 CURVE SMOOTH",
"246 510 OFFCURVE",
"260 569 OFFCURVE",
"275 590 CURVE SMOOTH",
"287 610 OFFCURVE",
"310 623 OFFCURVE",
"334 625 CURVE",
"339 680 LINE"
);
}
);
width = 339;
},
{
anchors = (
{
name = bottom;
position = "{176, 0}";
},
{
name = ogonek;
position = "{316, 10}";
},
{
name = top;
position = "{176, 702}";
},
{
name = topleft;
position = "{20, 700}";
}
);
guideLines = (
{
angle = 90;
position = "{-6, 101}";
}
);
layerId = "11343128-4963-4E5D-BE9C-B74F53B36FA5";
name = Bold;
paths = (
{
closed = 1;
nodes = (
"43 680 LINE",
"38 623 LINE",
"93 612 LINE",
"105 587 OFFCURVE",
"105 534 OFFCURVE",
"105 407 CURVE SMOOTH",
"105 197 OFFCURVE",
"90 114 OFFCURVE",
"95 98 CURVE SMOOTH",
"99 86 OFFCURVE",
"115 71 OFFCURVE",
"144 65 CURVE",
"37 55 LINE",
"35 0 LINE",
"316 1 LINE",
"321 54 LINE",
"263 64 LINE",
"225 123 OFFCURVE",
"233 307 OFFCURVE",
"233 353 CURVE SMOOTH",
"233 510 OFFCURVE",
"236 569 OFFCURVE",
"249 590 CURVE SMOOTH",
"259 610 OFFCURVE",
"283 623 OFFCURVE",
"306 625 CURVE",
"307 680 LINE"
);
}
);
width = 351;
}
);
leftKerningGroup = I;
rightKerningGroup = I;
unicode = 0049;
},
{
glyphname = J;
lastChange = "2016-10-15 22:43:36 +0000";
layers = (
{
anchors = (
{
name = bottom;
position = "{103, 0}";
},
{
name = top;
position = "{181, 644}";
}
);
background = {
components = (
{
name = I;
}
);
};
guideLines = (
{
position = "{1308, 737}";
}
);
layerId = "71FD7A9F-05F5-4D76-8D4F-547475A05E4C";
name = "Bold Italic";
paths = (
{
closed = 1;
nodes = (
"58 681 LINE",
"48 624 LINE",
"102 615 LINE",
"113 590 OFFCURVE",
"104 489 OFFCURVE",
"99 429 CURVE",
"67 30 OFFCURVE",
"47 -37 OFFCURVE",
"12 -97 CURVE",
"-6 -95 OFFCURVE",
"-24 -87 OFFCURVE",
"-39 -78 CURVE",
"-64 -134 LINE",
"-43 -153 OFFCURVE",
"-14 -167 OFFCURVE",
"6 -174 CURVE",
"121 -146 OFFCURVE",
"185 -56 OFFCURVE",
"196 67 CURVE SMOOTH",
"226 384 OFFCURVE",
"242 569 OFFCURVE",
"256 591 CURVE SMOOTH",
"268 611 OFFCURVE",
"291 619 OFFCURVE",
"314 621 CURVE",
"320 680 LINE"
);
}
);
width = 299;
},
{
anchors = (
{
name = bottom;
position = "{157, 0}";
},
{
name = top;
position = "{157, 707}";
}
);
background = {
components = (
{
name = I;
transform = "{1, 0, 0, 1, -5, 0}";
}
);
};
guideLines = (
{
position = "{-181, -204}";
}
);
layerId = "11343128-4963-4E5D-BE9C-B74F53B36FA5";
name = Bold;
paths = (
{
closed = 1;
nodes = (
"32 681 LINE",
"27 626 LINE",
"81 616 LINE",
"94 591 OFFCURVE",
"90 269 OFFCURVE",
"90 209 CURVE",
"90 -39 OFFCURVE",
"65 -115 OFFCURVE",
"25 -163 CURVE",
"62 -206 LINE",
"161 -145 OFFCURVE",
"218 -31 OFFCURVE",
"218 275 CURVE SMOOTH",
"218 441 OFFCURVE",
"216 568 OFFCURVE",
"226 591 CURVE SMOOTH",
"235 611 OFFCURVE",
"251 626 OFFCURVE",
"282 626 CURVE",
"283 680 LINE"
);
}
);
width = 313;
}
);
leftKerningGroup = I;
rightKerningGroup = I;
rightMetricsKey = I;
unicode = 004A;
},
{
glyphname = K;
lastChange = "2016-10-17 20:36:33 +0000";
layers = (
{
layerId = "71FD7A9F-05F5-4D76-8D4F-547475A05E4C";
name = "Bold Italic";
paths = (
{
closed = 1;
nodes = (
"443 558 OFFCURVE",
"259 354 OFFCURVE",
"178 266 CURVE",
"219 208 LINE",
"360 359 LINE",
"442 452 OFFCURVE",
"550 557 OFFCURVE",
"577 586 CURVE SMOOTH",
"603 610 OFFCURVE",
"635 625 OFFCURVE",
"662 625 CURVE",
"669 680 LINE",
"438 680 LINE",
"427 625 LINE",
"478 616 LINE"
);
},
{
closed = 1;
nodes = (
"75 680 LINE",
"65 625 LINE",
"120 614 LINE",
"131 589 OFFCURVE",
"123 514 OFFCURVE",
"114 407 CURVE SMOOTH",
"96 197 OFFCURVE",
"74 114 OFFCURVE",
"78 98 CURVE SMOOTH",
"79 86 OFFCURVE",
"94 71 OFFCURVE",
"123 65 CURVE",
"16 55 LINE",
"9 0 LINE",
"290 1 LINE",
"299 54 LINE",
"242 64 LINE",
"209 123 OFFCURVE",
"233 307 OFFCURVE",
"237 353 CURVE SMOOTH",
"251 510 OFFCURVE",
"263 569 OFFCURVE",
"279 590 CURVE SMOOTH",
"290 610 OFFCURVE",
"313 623 OFFCURVE",
"336 625 CURVE",
"342 680 LINE"
);
},
{
closed = 1;
nodes = (
"321 352 LINE",
"328 272 OFFCURVE",
"404 52 OFFCURVE",
"430 32 CURVE SMOOTH",
"439 25 OFFCURVE",
"506 -3 OFFCURVE",
"559 -3 CURVE",
"594 5 OFFCURVE",
"631 26 OFFCURVE",
"636 29 CURVE",
"623 82 LINE",
"603 74 OFFCURVE",
"589 73 OFFCURVE",
"578 71 CURVE",
"526 127 OFFCURVE",
"431 326 OFFCURVE",
"408 425 CURVE"
);
}
);
width = 644;
},
{
anchors = (
{
name = bottom;
position = "{344, 0}";
},
{
name = top;
position = "{344, 700}";
}
);
background = {
components = (
{
name = V;
transform = "{-1, 0, 0, -1, 725, 700}";
}
);
};
guideLines = (
{
position = "{-266, 248}";
}
);
layerId = "11343128-4963-4E5D-BE9C-B74F53B36FA5";
name = Bold;
paths = (
{
closed = 1;
nodes = (
"419 558 OFFCURVE",
"255 336 OFFCURVE",
"182 248 CURVE",
"226 187 LINE",
"356 349 LINE",
"429 442 OFFCURVE",
"532 557 OFFCURVE",
"558 586 CURVE SMOOTH",
"580 610 OFFCURVE",
"612 625 OFFCURVE",
"639 625 CURVE",
"641 680 LINE",
"404 680 LINE",
"398 625 LINE",
"449 616 LINE"
);
},
{
closed = 1;
nodes = (
"43 680 LINE",
"38 625 LINE",
"93 614 LINE",
"105 589 OFFCURVE",
"105 522 OFFCURVE",
"105 395 CURVE SMOOTH",
"105 185 OFFCURVE",
"90 114 OFFCURVE",
"95 98 CURVE SMOOTH",
"99 86 OFFCURVE",
"115 71 OFFCURVE",
"144 65 CURVE",
"37 55 LINE",
"35 0 LINE",
"316 1 LINE",
"321 54 LINE",
"263 64 LINE",
"225 123 OFFCURVE",
"233 297 OFFCURVE",
"233 343 CURVE SMOOTH",
"233 500 OFFCURVE",
"240 569 OFFCURVE",
"253 590 CURVE SMOOTH",
"263 610 OFFCURVE",
"286 623 OFFCURVE",
"309 625 CURVE",
"310 680 LINE"
);
},
{
closed = 1;
nodes = (
"307 329 LINE",
"369 228 OFFCURVE",
"451 69 OFFCURVE",
"500 0 CURVE",
"677 0 LINE",
"682 55 LINE",
"641 57 OFFCURVE",
"624 73 OFFCURVE",
"582 122 CURVE SMOOTH",
"524 191 OFFCURVE",
"415 378 OFFCURVE",
"383 435 CURVE"
);
}
);
width = 687;
}
);
leftKerningGroup = I;
leftMetricsKey = I;
rightKerningGroup = X;
unicode = 004B;
},
{
glyphname = L;
lastChange = "2016-10-17 20:36:33 +0000";
layers = (
{
anchors = (
{
name = bottom;
position = "{244, 0}";
},
{
name = center;
position = "{186, 370}";
},
{
name = top;
position = "{217, 662}";
},
{
name = topright;
position = "{571, 700}";
}
);
background = {
paths = (
{
closed = 1;
nodes = (
"69 700 LINE",
"61 653 LINE",
"111 642 LINE",
"122 602 OFFCURVE",
"115 484 OFFCURVE",
"112 427 CURVE SMOOTH",
"103 249 OFFCURVE",
"78 101 OFFCURVE",
"81 88 CURVE SMOOTH",
"85 74 OFFCURVE",
"123 56 OFFCURVE",
"142 50 CURVE",
"22 51 LINE",
"19 0 LINE",
"517 -1 LINE",
"544 163 LINE",
"499 173 LINE",
"495 166 OFFCURVE",
"490 115 OFFCURVE",
"427 94 CURVE SMOOTH",
"388 81 OFFCURVE",
"321 80 OFFCURVE",
"247 81 CURVE",
"217 114 OFFCURVE",
"225 228 OFFCURVE",
"233 331 CURVE",
"355 325 LINE",
"366 279 LINE",
"406 282 LINE",
"411 325 OFFCURVE",
"418 410 OFFCURVE",
"403 410 CURVE SMOOTH",
"395 410 OFFCURVE",
"232 404 OFFCURVE",
"238 404 CURVE",
"239 455 OFFCURVE",
"255 569 OFFCURVE",
"266 613 CURVE",
"381 613 LINE",
"475 610 OFFCURVE",
"504 580 OFFCURVE",
"512 527 CURVE",
"559 537 LINE",
"541 699 LINE"
);
}
);
};
guideLines = (
{
angle = -12;
position = "{464, 184}";
}
);
layerId = "71FD7A9F-05F5-4D76-8D4F-547475A05E4C";
name = "Bold Italic";
paths = (
{
closed = 1;
nodes = (
"131 0 LINE",
"516 0 LINE",
"527 89 OFFCURVE",
"541 159 OFFCURVE",
"542 165 CURVE",
"480 174 LINE",
"441 97 LINE",
"398 82 OFFCURVE",
"277 78 OFFCURVE",
"240 84 CURVE",
"151 54 LINE"
);
},
{
closed = 1;
nodes = (
"74 680 LINE",
"65 625 LINE",
"119 614 LINE",
"129 589 OFFCURVE",
"123 534 OFFCURVE",
"112 407 CURVE SMOOTH",
"93 197 OFFCURVE",
"72 114 OFFCURVE",
"75 98 CURVE SMOOTH",
"78 86 OFFCURVE",
"93 71 OFFCURVE",
"121 65 CURVE",
"13 55 LINE",
"7 0 LINE",
"288 1 LINE",
"297 54 LINE",
"240 64 LINE",
"207 123 OFFCURVE",
"231 307 OFFCURVE",
"235 353 CURVE SMOOTH",
"249 510 OFFCURVE",
"262 569 OFFCURVE",
"277 590 CURVE SMOOTH",
"289 610 OFFCURVE",
"312 623 OFFCURVE",
"336 625 CURVE",
"341 680 LINE"
);
}
);
width = 541;
},
{
anchors = (
{
name = bottom;
position = "{282, 0}";
},
{
name = center;
position = "{168, 350}";
},
{
name = top;
position = "{175, 700}";
},
{
name = topright;
position = "{543, 700}";
}
);
layerId = "11343128-4963-4E5D-BE9C-B74F53B36FA5";
name = Bold;
paths = (
{
closed = 1;
nodes = (
"159 0 LINE",
"544 0 LINE",
"548 89 OFFCURVE",
"555 159 OFFCURVE",
"556 165 CURVE",
"493 174 LINE",
"461 97 LINE",
"420 82 OFFCURVE",
"299 78 OFFCURVE",
"262 84 CURVE",
"175 54 LINE"
);
},
{
closed = 1;
nodes = (
"43 680 LINE",
"38 625 LINE",
"93 614 LINE",
"105 589 OFFCURVE",
"105 534 OFFCURVE",
"105 407 CURVE SMOOTH",
"105 197 OFFCURVE",
"90 114 OFFCURVE",
"95 98 CURVE SMOOTH",
"99 86 OFFCURVE",
"115 71 OFFCURVE",
"144 65 CURVE",
"37 55 LINE",
"35 0 LINE",
"316 1 LINE",
"321 54 LINE",
"263 64 LINE",
"225 123 OFFCURVE",
"233 307 OFFCURVE",
"233 353 CURVE SMOOTH",
"233 510 OFFCURVE",
"240 569 OFFCURVE",
"253 590 CURVE SMOOTH",
"263 610 OFFCURVE",
"286 623 OFFCURVE",
"309 625 CURVE",
"310 680 LINE"
);
}
);
width = 563;
}
);
leftKerningGroup = I;
leftMetricsKey = I;
rightKerningGroup = L;
unicode = 004C;
},
{
glyphname = M;
lastChange = "2016-10-17 20:23:27 +0000";
layers = (
{
layerId = "71FD7A9F-05F5-4D76-8D4F-547475A05E4C";
name = "Bold Italic";
paths = (
{
closed = 1;
nodes = (
"241 459 LINE",
"280 308 OFFCURVE",
"367 3 OFFCURVE",
"370 -3 CURVE",
"458 161 LINE",
"452 180 OFFCURVE",
"366 500 OFFCURVE",
"324 680 CURVE",
"319 675 LINE",
"322 680 LINE",
"181 615 LINE"
);
},
{
closed = 1;
nodes = (
"530 147 OFFCURVE",
"629 349 OFFCURVE",
"668 443 CURVE",
"667 178 OFFCURVE",
"673 119 OFFCURVE",
"673 104 CURVE SMOOTH",
"672 88 OFFCURVE",
"688 75 OFFCURVE",
"716 65 CURVE",
"609 55 LINE",
"603 0 LINE",
"867 0 LINE",
"878 55 LINE",
"823 65 LINE",
"800 150 OFFCURVE",
"803 433 OFFCURVE",
"801 564 CURVE SMOOTH",
"801 608 OFFCURVE",
"834 625 OFFCURVE",
"861 625 CURVE",
"868 680 LINE",
"669 680 LINE",
"580 434 OFFCURVE",
"502 280 OFFCURVE",
"442 146 CURVE",
"419 87 OFFCURVE",
"396 56 OFFCURVE",
"370 -3 CURVE",
"468 4 LINE"
);
},
{
closed = 1;
nodes = (
"177 98 OFFCURVE",
"232 362 OFFCURVE",
"253 521 CURVE",
"269 576 OFFCURVE",
"300 660 OFFCURVE",
"324 680 CURVE",
"134 680 LINE",
"123 626 LINE",
"179 615 LINE",
"139 360 OFFCURVE",
"105 173 OFFCURVE",
"92 130 CURVE SMOOTH",
"73 70 OFFCURVE",
"33 56 OFFCURVE",
"7 56 CURVE",
"-1 0 LINE",
"237 0 LINE",
"248 55 LINE",
"189 64 LINE"
);
}
);
width = 922;
},
{
anchors = (
{
name = bottom;
position = "{458, 0}";
},
{
name = top;
position = "{458, 700}";
}
);
background = {
components = (
{
name = V;
},
{
name = I;
transform = "{1, 0, 0, 1, 702, 0}";
}
);
};
guideLines = (
{
position = "{679, 454}";
}
);
layerId = "11343128-4963-4E5D-BE9C-B74F53B36FA5";
name = Bold;
paths = (
{
closed = 1;
nodes = (
"224 468 LINE",
"276 317 OFFCURVE",
"388 6 OFFCURVE",
"391 0 CURVE",
"466 161 LINE",
"459 180 OFFCURVE",
"347 500 OFFCURVE",
"290 680 CURVE",
"285 675 LINE",
"288 680 LINE",
"152 615 LINE"
);
},
{
closed = 1;
nodes = (
"535 143 OFFCURVE",
"614 361 OFFCURVE",
"645 455 CURVE",
"667 190 OFFCURVE",
"682 119 OFFCURVE",
"683 104 CURVE SMOOTH",
"684 88 OFFCURVE",
"701 75 OFFCURVE",
"730 65 CURVE",
"624 55 LINE",
"622 0 LINE",
"889 0 LINE",
"893 55 LINE",
"837 65 LINE",
"806 150 OFFCURVE",
"780 433 OFFCURVE",
"767 564 CURVE SMOOTH",
"763 608 OFFCURVE",
"794 625 OFFCURVE",
"821 625 CURVE",
"824 680 LINE",
"625 680 LINE",
"557 434 OFFCURVE",
"495 280 OFFCURVE",
"452 146 CURVE",
"434 87 OFFCURVE",
"412 59 OFFCURVE",
"391 0 CURVE",
"490 0 LINE"
);
},
{
closed = 1;
nodes = (
"191 98 OFFCURVE",
"225 362 OFFCURVE",
"233 521 CURVE",
"244 576 OFFCURVE",
"267 660 OFFCURVE",
"290 680 CURVE",
"100 680 LINE",
"93 626 LINE",
"150 615 LINE",
"132 360 OFFCURVE",
"112 173 OFFCURVE",
"103 130 CURVE SMOOTH",
"90 70 OFFCURVE",
"51 56 OFFCURVE",
"25 56 CURVE",
"21 0 LINE",
"262 0 LINE",
"266 55 LINE",
"206 64 LINE"
);
}
);
width = 916;
}
);
leftKerningGroup = A;
rightKerningGroup = A;
unicode = 004D;
},
{
glyphname = N;
lastChange = "2016-10-15 22:38:28 +0000";
layers = (
{
anchors = (
{
name = bottom;
position = "{365, 0}";
},
{
name = top;
position = "{410, 661}";
}
);
layerId = "71FD7A9F-05F5-4D76-8D4F-547475A05E4C";
name = "Bold Italic";
paths = (
{
closed = 1;
nodes = (
"165 544 LINE",
"179 530 OFFCURVE",
"189 480 OFFCURVE",
"212 457 CURVE SMOOTH",
"246 426 OFFCURVE",
"279 372 OFFCURVE",
"297 339 CURVE SMOOTH",
"382 190 OFFCURVE",
"499 -7 OFFCURVE",
"501 -11 CURVE",
"599 115 LINE",
"581 139 OFFCURVE",
"572 207 OFFCURVE",
"535 239 CURVE SMOOTH",
"505 268 OFFCURVE",
"474 307 OFFCURVE",
"454 339 CURVE SMOOTH",
"378 461 OFFCURVE",
"314 562 OFFCURVE",
"263 680 CURVE",
"258 675 LINE",
"261 680 LINE",
"154 572 LINE"
);
},
{
closed = 1;
nodes = (
"206 91 OFFCURVE",
"204 160 OFFCURVE",
"212 236 CURVE SMOOTH",
"226 371 OFFCURVE",
"234 521 OFFCURVE",
"263 680 CURVE",
"82 680 LINE",
"72 623 LINE",
"129 613 LINE",
"148 587 OFFCURVE",
"140 479 OFFCURVE",
"126 325 CURVE SMOOTH",
"117 226 OFFCURVE",
"106 172 OFFCURVE",
"96 129 CURVE SMOOTH",
"83 70 OFFCURVE",
"43 55 OFFCURVE",
"17 55 CURVE",
"10 0 LINE",
"264 0 LINE",
"274 55 LINE",
"215 66 LINE"
);
},
{
closed = 1;
nodes = (
"545 590 OFFCURVE",
"539 474 OFFCURVE",
"534 424 CURVE SMOOTH",
"501 73 OFFCURVE",
"505 97 OFFCURVE",
"501 -11 CURVE",
"595 -3 LINE",
"616 283 OFFCURVE",
"637 484 OFFCURVE",
"652 546 CURVE SMOOTH",
"664 599 OFFCURVE",
"697 625 OFFCURVE",
"735 625 CURVE",
"742 680 LINE",
"481 680 LINE",
"470 625 LINE",
"532 616 LINE"
);
}
);
width = 718;
},
{
anchors = (
{
name = bottom;
position = "{361, 0}";
},
{
name = top;
position = "{361, 702}";
}
);
background = {
components = (
{
name = I;
transform = "{-1, 0, 0, -1, 337, 700}";
}
);
paths = (
{
closed = 1;
nodes = (
"515 603 OFFCURVE",
"515 514 OFFCURVE",
"515 464 CURVE SMOOTH",
"515 317 OFFCURVE",
"519 159 OFFCURVE",
"505 0 CURVE",
"686 0 LINE",
"691 55 LINE",
"639 65 LINE",
"592 143 OFFCURVE",
"615 528 OFFCURVE",
"622 571 CURVE SMOOTH",
"632 630 OFFCURVE",
"670 642 OFFCURVE",
"696 642 CURVE",
"697 700 LINE",
"443 700 LINE",
"438 642 LINE",
"499 633 LINE"
);
}
);
};
layerId = "11343128-4963-4E5D-BE9C-B74F53B36FA5";
name = Bold;
paths = (
{
closed = 1;
nodes = (
"136 544 LINE",
"151 530 OFFCURVE",
"166 480 OFFCURVE",
"192 457 CURVE SMOOTH",
"228 426 OFFCURVE",
"266 364 OFFCURVE",
"288 331 CURVE SMOOTH",
"387 182 OFFCURVE",
"519 4 OFFCURVE",
"522 0 CURVE",
"609 115 LINE",
"590 139 OFFCURVE",
"569 188 OFFCURVE",
"531 220 CURVE SMOOTH",
"497 249 OFFCURVE",
"463 300 OFFCURVE",
"442 331 CURVE SMOOTH",
"354 460 OFFCURVE",
"284 562 OFFCURVE",
"222 680 CURVE",
"218 675 LINE",
"220 680 LINE",
"123 572 LINE"
);
},
{
closed = 1;
nodes = (
"218 91 OFFCURVE",
"212 160 OFFCURVE",
"212 236 CURVE SMOOTH",
"212 363 OFFCURVE",
"208 521 OFFCURVE",
"222 680 CURVE",
"41 680 LINE",
"36 623 LINE",
"94 613 LINE",
"115 587 OFFCURVE",
"116 479 OFFCURVE",
"116 317 CURVE SMOOTH",
"116 218 OFFCURVE",
"111 172 OFFCURVE",
"105 129 CURVE SMOOTH",
"97 70 OFFCURVE",
"58 55 OFFCURVE",
"32 55 CURVE",
"30 0 LINE",
"284 0 LINE",
"289 55 LINE",
"230 66 LINE"
);
},
{
closed = 1;
nodes = (
"511 590 OFFCURVE",
"515 474 OFFCURVE",
"515 424 CURVE SMOOTH",
"512 73 OFFCURVE",
"516 108 OFFCURVE",
"522 0 CURVE",
"615 0 LINE",
"611 286 OFFCURVE",
"613 484 OFFCURVE",
"622 546 CURVE SMOOTH",
"630 599 OFFCURVE",
"661 625 OFFCURVE",
"699 625 CURVE",
"701 680 LINE",
"440 680 LINE",
"434 625 LINE",
"497 616 LINE"
);
}
);
width = 721;
}
);
leftKerningGroup = I;
rightKerningGroup = I;
unicode = 004E;
},
{
glyphname = Eng;
lastChange = "2016-10-17 20:36:33 +0000";
layers = (
{
anchors = (
{
name = bottom;
position = "{314, 0}";
},
{
name = top;
position = "{368, 661}";
}
);
background = {
paths = (
{
closed = 1;
nodes = (
"387 -271 OFFCURVE",
"473 -240 CURVE SMOOTH",
"590 -199 OFFCURVE",
"577 -45 OFFCURVE",
"504 23 CURVE",
"457 21 LINE",
"490 -16 OFFCURVE",
"489 -97 OFFCURVE",
"443 -140 CURVE SMOOTH",
"417 -165 OFFCURVE",
"391 -165 OFFCURVE",
"363 -153 CURVE SMOOTH",
"325 -136 OFFCURVE",
"299 -101 OFFCURVE",
"294 -87 CURVE",
"268 -119 LINE",
"293 -203 OFFCURVE"
);
}
);
};
layerId = "71FD7A9F-05F5-4D76-8D4F-547475A05E4C";
name = "Bold Italic";
paths = (
{
closed = 1;
nodes = (
"207 91 OFFCURVE",
"207 160 OFFCURVE",
"214 236 CURVE SMOOTH",
"227 383 OFFCURVE",
"237 541 OFFCURVE",
"265 700 CURVE",
"84 700 LINE",
"74 643 LINE",
"131 633 LINE",
"149 607 OFFCURVE",
"141 499 OFFCURVE",
"127 337 CURVE SMOOTH",
"118 238 OFFCURVE",
"108 172 OFFCURVE",
"98 129 CURVE SMOOTH",
"85 70 OFFCURVE",
"44 55 OFFCURVE",
"18 55 CURVE",
"11 0 LINE",
"265 0 LINE",
"275 55 LINE",
"217 66 LINE"
);
},
{
closed = 1;
nodes = (
"472 645 LINE",
"534 636 LINE",
"546 610 OFFCURVE",
"540 494 OFFCURVE",
"535 444 CURVE SMOOTH",
"527 364 OFFCURVE",
"522 303 OFFCURVE",
"518 255 CURVE",
"492 285 OFFCURVE",
"469 325 OFFCURVE",
"454 351 CURVE SMOOTH",
"377 480 OFFCURVE",
"316 582 OFFCURVE",
"265 700 CURVE",
"260 695 LINE",
"263 700 LINE",
"156 592 LINE",
"167 564 LINE",
"180 550 OFFCURVE",
"191 500 OFFCURVE",
"215 477 CURVE SMOOTH",
"248 446 OFFCURVE",
"281 384 OFFCURVE",
"300 351 CURVE SMOOTH",
"374 223 OFFCURVE",
"471 59 OFFCURVE",
"496 13 CURVE SMOOTH",
"535 -60 OFFCURVE",
"502 -119 OFFCURVE",
"464 -148 CURVE",
"421 -175 OFFCURVE",
"361 -176 OFFCURVE",
"308 -138 CURVE",
"290 -185 LINE",
"321 -224 OFFCURVE",
"421 -283 OFFCURVE",
"505 -233 CURVE SMOOTH",
"594 -180 OFFCURVE",
"591 -78 OFFCURVE",
"596 0 CURVE SMOOTH",
"618 286 OFFCURVE",
"638 504 OFFCURVE",
"653 566 CURVE SMOOTH",
"666 619 OFFCURVE",
"699 645 OFFCURVE",
"737 645 CURVE",
"744 700 LINE",
"483 700 LINE"
);
}
);
width = 718;
},
{
anchors = (
{
name = bottom;
position = "{361, 0}";
},
{
name = top;
position = "{361, 700}";
}
);
layerId = "11343128-4963-4E5D-BE9C-B74F53B36FA5";
name = Bold;
paths = (
{
closed = 1;
nodes = (
"218 91 OFFCURVE",
"212 160 OFFCURVE",
"212 236 CURVE SMOOTH",
"212 383 OFFCURVE",
"208 541 OFFCURVE",
"222 700 CURVE",
"41 700 LINE",
"36 643 LINE",
"94 633 LINE",
"115 607 OFFCURVE",
"116 499 OFFCURVE",
"116 337 CURVE SMOOTH",
"116 238 OFFCURVE",
"111 172 OFFCURVE",
"105 129 CURVE SMOOTH",
"97 70 OFFCURVE",
"58 55 OFFCURVE",
"32 55 CURVE",
"30 0 LINE",
"284 0 LINE",
"289 55 LINE",
"230 66 LINE"
);
},
{
closed = 1;
nodes = (
"434 645 LINE",
"497 636 LINE",
"511 610 OFFCURVE",
"515 494 OFFCURVE",
"515 444 CURVE SMOOTH",
"514 364 OFFCURVE",
"514 303 OFFCURVE",
"514 255 CURVE",
"486 285 OFFCURVE",
"459 325 OFFCURVE",
"442 351 CURVE SMOOTH",
"354 480 OFFCURVE",
"284 582 OFFCURVE",
"222 700 CURVE",
"218 695 LINE",
"220 700 LINE",
"123 592 LINE",
"136 564 LINE",
"151 550 OFFCURVE",
"166 500 OFFCURVE",
"192 477 CURVE SMOOTH",
"228 446 OFFCURVE",
"266 384 OFFCURVE",
"288 351 CURVE SMOOTH",
"373 223 OFFCURVE",
"484 59 OFFCURVE",
"513 13 CURVE SMOOTH",
"559 -60 OFFCURVE",
"531 -119 OFFCURVE",
"495 -148 CURVE",
"455 -175 OFFCURVE",
"395 -176 OFFCURVE",
"339 -138 CURVE",
"325 -185 LINE",
"359 -224 OFFCURVE",
"464 -283 OFFCURVE",
"544 -233 CURVE SMOOTH",
"628 -180 OFFCURVE",
"616 -78 OFFCURVE",
"615 0 CURVE SMOOTH",
"612 286 OFFCURVE",
"613 504 OFFCURVE",
"622 566 CURVE SMOOTH",
"630 619 OFFCURVE",
"661 645 OFFCURVE",
"699 645 CURVE",
"701 700 LINE",
"440 700 LINE"
);
}
);
width = 721;
}
);
leftKerningGroup = I;
leftMetricsKey = N;
rightKerningGroup = I;
rightMetricsKey = N;
unicode = 014A;
},
{
glyphname = O;
lastChange = "2016-10-21 15:09:37 +0000";
layers = (
{
anchors = (
{
name = bottom;
position = "{325, 0}";
},
{
name = center;
position = "{368, 350}";
},
{
name = ogonek;
position = "{595, 10}";
},
{
name = top;
position = "{388, 656}";
},
{
name = topleft;
position = "{93, 700}";
},
{
name = topright;
position = "{727, 700}";
}
);
background = {
paths = (
{
closed = 1;
nodes = (
"571 685 OFFCURVE",
"477 730 OFFCURVE",
"333 711 CURVE",
"23 649 OFFCURVE",
"-32 244 OFFCURVE",
"117 81 CURVE SMOOTH",
"195 -8 OFFCURVE",
"312 -29 OFFCURVE",
"438 -1 CURVE",
"711 77 OFFCURVE",
"779 440 OFFCURVE",
"627 618 CURVE SMOOTH"
);
},
{
closed = 1;
nodes = (
"344 77 OFFCURVE",
"268 99 OFFCURVE",
"228 176 CURVE SMOOTH",
"144 334 OFFCURVE",
"188 547 OFFCURVE",
"338 628 CURVE",
"401 628 OFFCURVE",
"475 610 OFFCURVE",
"519 521 CURVE SMOOTH",
"596 372 OFFCURVE",
"554 165 OFFCURVE",
"408 78 CURVE"
);
}
);
};
layerId = "71FD7A9F-05F5-4D76-8D4F-547475A05E4C";
name = "Bold Italic";
paths = (
{
closed = 1;
nodes = (
"562 662 OFFCURVE",
"472 707 OFFCURVE",
"336 688 CURVE",
"25 623 OFFCURVE",
"-35 255 OFFCURVE",
"110 81 CURVE SMOOTH",
"184 -7 OFFCURVE",
"295 -29 OFFCURVE",
"418 -1 CURVE",
"692 77 OFFCURVE",
"767 417 OFFCURVE",
"618 595 CURVE SMOOTH"
);
},
{
closed = 1;
nodes = (
"327 69 OFFCURVE",
"265 95 OFFCURVE",
"221 176 CURVE SMOOTH",
"141 323 OFFCURVE",
"187 533 OFFCURVE",
"340 611 CURVE",
"401 611 OFFCURVE",
"466 584 OFFCURVE",
"510 498 CURVE SMOOTH",
"582 357 OFFCURVE",
"542 156 OFFCURVE",
"391 69 CURVE"
);
}
);
width = 708;
},
{
anchors = (
{
name = bottom;
position = "{364, 0}";
},
{
name = center;
position = "{364, 350}";
},
{
name = ogonek;
position = "{654, 10}";
},
{
name = top;
position = "{364, 709}";
},
{
name = topleft;
position = "{20, 700}";
},
{
name = topright;
position = "{707, 700}";
}
);
background = {
components = (
{
name = V;
}
);
};
guideLines = (
{
angle = 90;
position = "{347, 177}";
}
);
layerId = "11343128-4963-4E5D-BE9C-B74F53B36FA5";
name = Bold;
paths = (
{
closed = 1;
nodes = (
"546 663 OFFCURVE",
"449 708 OFFCURVE",
"306 689 CURVE",
"-1 627 OFFCURVE",
"-34 244 OFFCURVE",
"123 81 CURVE SMOOTH",
"206 -8 OFFCURVE",
"324 -29 OFFCURVE",
"448 -1 CURVE",
"717 77 OFFCURVE",
"766 418 OFFCURVE",
"605 596 CURVE SMOOTH"
);
},
{
closed = 1;
nodes = (
"352 64 OFFCURVE",
"273 99 OFFCURVE",
"229 176 CURVE SMOOTH",
"137 334 OFFCURVE",
"170 531 OFFCURVE",
"316 612 CURVE",
"379 612 OFFCURVE",
"453 588 OFFCURVE",
"502 499 CURVE SMOOTH",
"587 350 OFFCURVE",
"558 152 OFFCURVE",
"416 65 CURVE"
);
}
);
width = 727;
}
);
leftKerningGroup = O;
rightKerningGroup = O;
unicode = 004F;
},
{
glyphname = OE;
lastChange = "2016-10-21 14:13:11 +0000";
layers = (
{
anchors = (
{
name = bottom;
position = "{448, 0}";
},
{
name = top;
position = "{521, 700}";
}
);
layerId = "71FD7A9F-05F5-4D76-8D4F-547475A05E4C";
name = "Bold Italic";
paths = (
{
closed = 1;
nodes = (
"329 81 OFFCURVE",
"259 106 OFFCURVE",
"221 182 CURVE SMOOTH",
"143 340 OFFCURVE",
"207 575 OFFCURVE",
"341 617 CURVE SMOOTH",
"421 642 OFFCURVE",
"555 604 OFFCURVE",
"547 509 CURVE SMOOTH",
"544 473 OFFCURVE",
"539 443 OFFCURVE",
"533 382 CURVE SMOOTH",
"528 343 OFFCURVE",
"518 258 OFFCURVE",
"510 206 CURVE SMOOTH",
"500 133 OFFCURVE",
"461 99 OFFCURVE",
"393 82 CURVE"
);
},
{
closed = 1;
nodes = (
"867 100 LINE",
"826 87 OFFCURVE",
"726 82 OFFCURVE",
"650 84 CURVE",
"632 147 OFFCURVE",
"645 272 OFFCURVE",
"651 331 CURVE",
"756 325 LINE",
"765 279 LINE",
"823 282 LINE",
"830 325 OFFCURVE",
"839 410 OFFCURVE",
"824 410 CURVE SMOOTH",
"818 410 OFFCURVE",
"704 406 OFFCURVE",
"658 405 CURVE",
"670 523 OFFCURVE",
"681 588 OFFCURVE",
"698 613 CURVE",
"787 612 OFFCURVE",
"860 610 OFFCURVE",
"899 602 CURVE",
"928 540 LINE",
"983 550 LINE",
"970 706 LINE",
"761 700 LINE",
"698 700 OFFCURVE",
"635 702 OFFCURVE",
"572 703 CURVE SMOOTH",
"509 704 OFFCURVE",
"410 720 OFFCURVE",
"339 709 CURVE SMOOTH",
"28 659 OFFCURVE",
"-31 245 OFFCURVE",
"104 76 CURVE SMOOTH",
"179 -18 OFFCURVE",
"301 -21 OFFCURVE",
"438 -6 CURVE SMOOTH",
"514 2 OFFCURVE",
"616 -1 OFFCURVE",
"922 -4 CURVE",
"954 162 LINE",
"904 170 LINE"
);
}
);
width = 993;
},
{
anchors = (
{
name = bottom;
position = "{777, 0}";
},
{
name = center;
position = "{777, 350}";
},
{
name = ogonek;
position = "{1067, 10}";
},
{
name = top;
position = "{777, 703}";
},
{
name = topleft;
position = "{433, 700}";
},
{
name = topright;
position = "{1120, 700}";
}
);
layerId = "11343128-4963-4E5D-BE9C-B74F53B36FA5";
name = Bold;
paths = (
{
closed = 1;
nodes = (
"345 81 OFFCURVE",
"273 106 OFFCURVE",
"229 182 CURVE SMOOTH",
"137 340 OFFCURVE",
"180 575 OFFCURVE",
"311 617 CURVE SMOOTH",
"389 642 OFFCURVE",
"526 604 OFFCURVE",
"526 509 CURVE SMOOTH",
"526 473 OFFCURVE",
"524 443 OFFCURVE",
"523 382 CURVE SMOOTH",
"522 343 OFFCURVE",
"519 258 OFFCURVE",
"516 206 CURVE SMOOTH",
"512 133 OFFCURVE",
"476 99 OFFCURVE",
"409 82 CURVE"
);
},
{
closed = 1;
nodes = (
"882 100 LINE",
"842 87 OFFCURVE",
"742 82 OFFCURVE",
"666 84 CURVE",
"643 147 OFFCURVE",
"645 272 OFFCURVE",
"646 331 CURVE",
"751 325 LINE",
"764 279 LINE",
"822 282 LINE",
"825 325 OFFCURVE",
"827 410 OFFCURVE",
"812 410 CURVE SMOOTH",
"806 410 OFFCURVE",
"692 406 OFFCURVE",
"646 405 CURVE",
"648 523 OFFCURVE",
"653 588 OFFCURVE",
"668 613 CURVE",
"757 612 OFFCURVE",
"830 610 OFFCURVE",
"870 602 CURVE",
"904 540 LINE",
"959 550 LINE",
"932 706 LINE",
"723 700 LINE",
"660 700 OFFCURVE",
"597 702 OFFCURVE",
"534 703 CURVE SMOOTH",
"471 704 OFFCURVE",
"371 720 OFFCURVE",
"301 709 CURVE SMOOTH",
"-6 659 OFFCURVE",
"-29 245 OFFCURVE",
"121 76 CURVE SMOOTH",
"204 -18 OFFCURVE",
"326 -21 OFFCURVE",
"462 -6 CURVE SMOOTH",
"537 2 OFFCURVE",
"640 -1 OFFCURVE",
"946 -4 CURVE",
"963 162 LINE",
"913 170 LINE"
);
}
);
width = 993;
}
);
leftMetricsKey = O;
rightMetricsKey = E;
unicode = 0152;
},
{
glyphname = P;
lastChange = "2016-10-17 20:36:33 +0000";
layers = (
{
background = {
components = (
{
name = R;
}
);
};
guideLines = (
{
angle = 84;
position = "{622, 311}";
}
);
layerId = "71FD7A9F-05F5-4D76-8D4F-547475A05E4C";
name = "Bold Italic";
paths = (
{
closed = 1;
nodes = (
"215 241 LINE",
"245 229 OFFCURVE",
"304 232 OFFCURVE",
"340 237 CURVE",
"585 285 OFFCURVE",
"659 567 OFFCURVE",
"493 648 CURVE SMOOTH",
"397 694 OFFCURVE",
"239 689 OFFCURVE",
"75 678 CURVE",
"251 601 LINE",
"467 637 OFFCURVE",
"495 402 OFFCURVE",
"358 327 CURVE",
"333 319 OFFCURVE",
"259 318 OFFCURVE",
"225 342 CURVE"
);
},
{
closed = 1;
nodes = (
"109 0 LINE",
"301 0 LINE",
"311 53 LINE",
"179 75 LINE"
);
},
{
closed = 1;
nodes = (
"75 678 LINE",
"65 623 LINE",
"120 612 LINE",
"129 587 OFFCURVE",
"122 512 OFFCURVE",
"112 407 CURVE SMOOTH",
"92 197 OFFCURVE",
"71 114 OFFCURVE",
"76 98 CURVE SMOOTH",
"77 86 OFFCURVE",
"92 71 OFFCURVE",
"121 65 CURVE",
"13 55 LINE",
"6 0 LINE",
"288 1 LINE",
"297 54 LINE",
"240 64 LINE",
"207 123 OFFCURVE",
"231 314 OFFCURVE",
"236 360 CURVE SMOOTH",
"250 495 OFFCURVE",
"262 567 OFFCURVE",
"277 588 CURVE SMOOTH",
"289 608 OFFCURVE",
"313 621 OFFCURVE",
"336 623 CURVE",
"342 678 LINE"
);
}
);
width = 585;
},
{
anchors = (
{
name = bottom;
position = "{295, 0}";
},
{
name = top;
position = "{295, 700}";
}
);
background = {
components = (
{
name = R;
}
);
};
layerId = "11343128-4963-4E5D-BE9C-B74F53B36FA5";
name = Bold;
paths = (
{
closed = 1;
nodes = (
"222 240 LINE",
"253 228 OFFCURVE",
"312 231 OFFCURVE",
"347 236 CURVE",
"588 284 OFFCURVE",
"637 567 OFFCURVE",
"462 648 CURVE SMOOTH",
"364 694 OFFCURVE",
"206 689 OFFCURVE",
"43 678 CURVE",
"225 597 LINE",
"439 633 OFFCURVE",
"488 401 OFFCURVE",
"359 326 CURVE",
"334 318 OFFCURVE",
"260 317 OFFCURVE",
"223 341 CURVE"
);
},
{
closed = 1;
nodes = (
"138 0 LINE",
"330 0 LINE",
"335 53 LINE",
"202 75 LINE"
);
},
{
closed = 1;
nodes = (
"43 678 LINE",
"38 621 LINE",
"93 610 LINE",
"105 585 OFFCURVE",
"105 512 OFFCURVE",
"105 407 CURVE SMOOTH",
"105 197 OFFCURVE",
"90 114 OFFCURVE",
"95 98 CURVE SMOOTH",
"99 86 OFFCURVE",
"115 71 OFFCURVE",
"144 65 CURVE",
"37 55 LINE",
"35 0 LINE",
"316 1 LINE",
"321 54 LINE",
"263 64 LINE",
"225 123 OFFCURVE",
"233 313 OFFCURVE",
"233 359 CURVE SMOOTH",
"233 494 OFFCURVE",
"240 567 OFFCURVE",
"253 588 CURVE SMOOTH",
"263 608 OFFCURVE",
"286 621 OFFCURVE",
"309 623 CURVE",
"310 678 LINE"
);
}
);
width = 589;
}
);
leftKerningGroup = I;
leftMetricsKey = I;
rightKerningGroup = T;
unicode = 0050;
},
{
glyphname = Thorn;
lastChange = "2016-10-17 20:36:33 +0000";
layers = (
{
layerId = "71FD7A9F-05F5-4D76-8D4F-547475A05E4C";
name = "Bold Italic";
paths = (
{
closed = 1;
nodes = (
"76 700 LINE",
"67 643 LINE",
"113 634 LINE",
"123 609 OFFCURVE",
"120 501 OFFCURVE",
"109 410 CURVE SMOOTH",
"93 275 OFFCURVE",
"68 114 OFFCURVE",
"73 98 CURVE SMOOTH",
"73 89 OFFCURVE",
"80 72 OFFCURVE",
"118 60 CURVE",
"12 60 LINE",
"6 0 LINE",
"288 1 LINE",
"294 58 LINE",
"238 66 LINE",
"204 125 OFFCURVE",
"222 313 OFFCURVE",
"233 435 CURVE SMOOTH",
"243 548 OFFCURVE",
"256 589 OFFCURVE",
"270 610 CURVE SMOOTH",
"282 630 OFFCURVE",
"299 639 OFFCURVE",
"322 641 CURVE",
"328 701 LINE"
);
},
{
closed = 1;
nodes = (
"203 150 LINE",
"237 139 OFFCURVE",
"283 131 OFFCURVE",
"319 136 CURVE",
"566 184 OFFCURVE",
"624 455 OFFCURVE",
"455 536 CURVE SMOOTH",
"401 563 OFFCURVE",
"327 566 OFFCURVE",
"245 560 CURVE",
"234 490 LINE",
"412 517 OFFCURVE",
"466 282 OFFCURVE",
"340 216 CURVE",
"306 213 OFFCURVE",
"250 214 OFFCURVE",
"212 233 CURVE"
);
}
);
width = 567;
},
{
anchors = (
{
name = bottom;
position = "{295, 0}";
},
{
name = top;
position = "{295, 700}";
}
);
layerId = "11343128-4963-4E5D-BE9C-B74F53B36FA5";
name = Bold;
paths = (
{
closed = 1;
nodes = (
"222 138 LINE",
"253 127 OFFCURVE",
"312 129 OFFCURVE",
"347 134 CURVE",
"588 179 OFFCURVE",
"637 468 OFFCURVE",
"462 544 CURVE SMOOTH",
"400 571 OFFCURVE",
"314 579 OFFCURVE",
"218 579 CURVE",
"225 496 LINE",
"439 530 OFFCURVE",
"488 288 OFFCURVE",
"359 218 CURVE",
"334 210 OFFCURVE",
"260 217 OFFCURVE",
"223 239 CURVE"
);
},
{
closed = 1;
nodes = (
"43 700 LINE",
"38 645 LINE",
"93 634 LINE",
"105 609 OFFCURVE",
"105 534 OFFCURVE",
"105 407 CURVE SMOOTH",
"105 197 OFFCURVE",
"90 114 OFFCURVE",
"95 98 CURVE SMOOTH",
"99 86 OFFCURVE",
"115 71 OFFCURVE",
"144 65 CURVE",
"37 55 LINE",
"35 0 LINE",
"316 1 LINE",
"321 54 LINE",
"263 64 LINE",
"225 123 OFFCURVE",
"233 307 OFFCURVE",
"233 353 CURVE SMOOTH",
"233 510 OFFCURVE",
"240 589 OFFCURVE",
"253 610 CURVE SMOOTH",
"263 630 OFFCURVE",
"286 643 OFFCURVE",
"309 645 CURVE",
"310 700 LINE"
);
}
);
width = 589;
}
);
leftKerningGroup = I;
leftMetricsKey = I;
rightKerningGroup = B;
rightMetricsKey = P;
unicode = 00DE;
},
{
glyphname = Q;
lastChange = "2016-10-18 16:17:36 +0000";
layers = (
{
background = {
paths = (
{
closed = 1;
nodes = (
"360 -45 OFFCURVE",
"563 -202 OFFCURVE",
"671 -191 CURVE",
"724 -169 OFFCURVE",
"772 -133 OFFCURVE",
"794 -106 CURVE",
"767 -56 LINE",
"751 -71 OFFCURVE",
"732 -83 OFFCURVE",
"717 -88 CURVE",
"653 -73 OFFCURVE",
"307 61 OFFCURVE",
"271 138 CURVE",
"220 109 LINE"
);
},
{
closed = 1;
nodes = (
"564 683 OFFCURVE",
"477 727 OFFCURVE",
"343 709 CURVE",
"54 647 OFFCURVE",
"-5 244 OFFCURVE",
"129 81 CURVE SMOOTH",
"200 -7 OFFCURVE",
"309 -28 OFFCURVE",
"426 0 CURVE",
"681 77 OFFCURVE",
"752 439 OFFCURVE",
"615 616 CURVE SMOOTH"
);
},
{
closed = 1;
nodes = (
"340 58 OFFCURVE",
"287 99 OFFCURVE",
"252 176 CURVE SMOOTH",
"178 333 OFFCURVE",
"206 545 OFFCURVE",
"346 626 CURVE",
"405 626 OFFCURVE",
"455 608 OFFCURVE",
"495 519 CURVE SMOOTH",
"563 371 OFFCURVE",
"538 146 OFFCURVE",
"400 59 CURVE"
);
}
);
};
components = (
{
disableAlignment = 1;
name = O;
}
);
layerId = "71FD7A9F-05F5-4D76-8D4F-547475A05E4C";
name = "Bold Italic";
paths = (
{
closed = 1;
nodes = (
"353 -52 OFFCURVE",
"553 -209 OFFCURVE",
"662 -198 CURVE",
"715 -176 OFFCURVE",
"764 -140 OFFCURVE",
"786 -113 CURVE",
"760 -63 LINE",
"744 -78 OFFCURVE",
"724 -90 OFFCURVE",
"709 -95 CURVE",
"646 -80 OFFCURVE",
"354 16 OFFCURVE",
"297 93 CURVE",
"216 102 LINE"
);
}
);
width = 720;
},
{
anchors = (
{
name = bottom;
position = "{362, 0}";
},
{
name = top;
position = "{362, 700}";
}
);
components = (
{
name = O;
}
);
layerId = "11343128-4963-4E5D-BE9C-B74F53B36FA5";
name = Bold;
paths = (
{
closed = 1;
nodes = (
"365 -49 OFFCURVE",
"553 -168 OFFCURVE",
"647 -184 CURVE",
"749 -110 LINE",
"742 -93 LINE",
"580 -61 OFFCURVE",
"427 10 OFFCURVE",
"367 69 CURVE",
"214 105 LINE"
);
}
);
width = 724;
}
);
leftKerningGroup = O;
leftMetricsKey = O;
rightKerningGroup = O;
unicode = 0051;
},
{
glyphname = Q.alt;
lastChange = "2016-10-18 16:13:58 +0000";
layers = (
{
background = {
paths = (
{
closed = 1;
nodes = (
"360 -45 OFFCURVE",
"563 -202 OFFCURVE",
"671 -191 CURVE",
"724 -169 OFFCURVE",
"772 -133 OFFCURVE",
"794 -106 CURVE",
"767 -56 LINE",
"751 -71 OFFCURVE",
"732 -83 OFFCURVE",
"717 -88 CURVE",
"653 -73 OFFCURVE",
"307 61 OFFCURVE",
"271 138 CURVE",
"220 109 LINE"
);
},
{
closed = 1;
nodes = (
"564 683 OFFCURVE",
"477 727 OFFCURVE",
"343 709 CURVE",
"54 647 OFFCURVE",
"-5 244 OFFCURVE",
"129 81 CURVE SMOOTH",
"200 -7 OFFCURVE",
"309 -28 OFFCURVE",
"426 0 CURVE",
"681 77 OFFCURVE",
"752 439 OFFCURVE",
"615 616 CURVE SMOOTH"
);
},
{
closed = 1;
nodes = (
"340 58 OFFCURVE",
"287 99 OFFCURVE",
"252 176 CURVE SMOOTH",
"178 333 OFFCURVE",
"206 545 OFFCURVE",
"346 626 CURVE",
"405 626 OFFCURVE",
"455 608 OFFCURVE",
"495 519 CURVE SMOOTH",
"563 371 OFFCURVE",
"538 146 OFFCURVE",
"400 59 CURVE"
);
}
);
};
components = (
{
disableAlignment = 1;
name = O;
}
);
layerId = "71FD7A9F-05F5-4D76-8D4F-547475A05E4C";
name = "Bold Italic";
paths = (
{
closed = 1;
nodes = (
"353 -53 OFFCURVE",
"416 -210 OFFCURVE",
"525 -199 CURVE",
"578 -177 OFFCURVE",
"627 -141 OFFCURVE",
"649 -114 CURVE",
"623 -64 LINE",
"607 -79 OFFCURVE",
"587 -91 OFFCURVE",
"572 -96 CURVE",
"509 -81 OFFCURVE",
"377 -2 OFFCURVE",
"320 75 CURVE",
"216 101 LINE"
);
}
);
width = 720;
},
{
anchors = (
{
name = bottom;
position = "{362, 0}";
},
{
name = top;
position = "{362, 700}";
}
);
components = (
{
name = O;
}
);
layerId = "11343128-4963-4E5D-BE9C-B74F53B36FA5";
name = Bold;
paths = (
{
closed = 1;
nodes = (
"390 -53 OFFCURVE",
"497 -160 OFFCURVE",
"591 -192 CURVE",
"699 -108 LINE",
"692 -91 LINE",
"551 -59 OFFCURVE",
"427 12 OFFCURVE",
"367 71 CURVE",
"239 101 LINE"
);
}
);
width = 724;
}
);
leftKerningGroup = O;
leftMetricsKey = O;
rightKerningGroup = O;
},
{
glyphname = R;
lastChange = "2016-10-17 20:36:33 +0000";
layers = (
{
anchors = (
{
name = bottom;
position = "{282, 0}";
},
{
name = top;
position = "{332, 649}";
}
);
background = {
paths = (
{
closed = 1;
nodes = (
"401 288 LINE",
"506 318 OFFCURVE",
"583 436 OFFCURVE",
"563 551 CURVE SMOOTH",
"527 754 OFFCURVE",
"207 703 OFFCURVE",
"83 699 CURVE",
"76 644 LINE",
"123 635 LINE",
"134 595 OFFCURVE",
"128 466 OFFCURVE",
"113 326 CURVE SMOOTH",
"95 158 OFFCURVE",
"83 103 OFFCURVE",
"88 92 CURVE SMOOTH",
"91 83 OFFCURVE",
"123 57 OFFCURVE",
"147 57 CURVE",
"29 58 LINE",
"23 0 LINE",
"294 0 LINE",
"302 54 LINE",
"253 62 LINE",
"232 115 OFFCURVE",
"225 157 OFFCURVE",
"236 285 CURVE",
"255 283 OFFCURVE",
"313 283 OFFCURVE",
"336 284 CURVE"
);
},
{
closed = 1;
nodes = (
"246 469 OFFCURVE",
"256 546 OFFCURVE",
"273 622 CURVE",
"452 635 OFFCURVE",
"471 402 OFFCURVE",
"357 361 CURVE",
"337 361 OFFCURVE",
"288 356 OFFCURVE",
"238 374 CURVE"
);
},
{
closed = 1;
nodes = (
"312 288 LINE",
"317 270 OFFCURVE",
"360 60 OFFCURVE",
"398 32 CURVE SMOOTH",
"407 25 OFFCURVE",
"476 -3 OFFCURVE",
"529 -3 CURVE",
"562 5 OFFCURVE",
"599 26 OFFCURVE",
"604 29 CURVE",
"590 82 LINE",
"575 76 OFFCURVE",
"556 72 OFFCURVE",
"545 71 CURVE",
"492 127 OFFCURVE",
"442 226 OFFCURVE",
"418 324 CURVE"
);
}
);
};
guideLines = (
{
position = "{500, 480}";
}
);
layerId = "71FD7A9F-05F5-4D76-8D4F-547475A05E4C";
name = "Bold Italic";
paths = (
{
closed = 1;
nodes = (
"325 288 LINE",
"330 270 OFFCURVE",
"369 55 OFFCURVE",
"406 27 CURVE SMOOTH",
"415 20 OFFCURVE",
"484 -8 OFFCURVE",
"537 -8 CURVE",
"570 0 OFFCURVE",
"606 25 OFFCURVE",
"611 28 CURVE",
"599 77 LINE",
"584 71 OFFCURVE",
"565 67 OFFCURVE",
"554 66 CURVE",
"502 122 OFFCURVE",
"454 226 OFFCURVE",
"432 324 CURVE"
);
},
{
closed = 1;
nodes = (
"224 285 LINE",
"230 282 OFFCURVE",
"303 283 OFFCURVE",
"330 284 CURVE",
"406 293 LINE",
"513 345 OFFCURVE",
"583 423 OFFCURVE",
"565 538 CURVE SMOOTH",
"531 747 OFFCURVE",
"157 679 OFFCURVE",
"75 678 CURVE",
"250 607 LINE",
"452 646 OFFCURVE",
"474 404 OFFCURVE",
"351 361 CURVE",
"328 361 OFFCURVE",
"270 354 OFFCURVE",
"212 381 CURVE"
);
},
{
closed = 1;
nodes = (
"75 678 LINE",
"65 623 LINE",
"120 612 LINE",
"129 587 OFFCURVE",
"122 512 OFFCURVE",
"112 407 CURVE SMOOTH",
"92 197 OFFCURVE",
"71 114 OFFCURVE",
"76 98 CURVE SMOOTH",
"77 86 OFFCURVE",
"92 71 OFFCURVE",
"121 65 CURVE",
"13 55 LINE",
"6 0 LINE",
"287 1 LINE",
"297 54 LINE",
"240 64 LINE",
"207 123 OFFCURVE",
"230 307 OFFCURVE",
"235 353 CURVE SMOOTH",
"249 488 OFFCURVE",
"262 567 OFFCURVE",
"277 588 CURVE SMOOTH",
"289 608 OFFCURVE",
"313 621 OFFCURVE",
"336 623 CURVE",
"342 678 LINE"
);
}
);
width = 620;
},
{
anchors = (
{
name = bottom;
position = "{323, 0}";
},
{
name = top;
position = "{297, 700}";
}
);
background = {
components = (
{
name = P;
}
);
};
layerId = "11343128-4963-4E5D-BE9C-B74F53B36FA5";
name = Bold;
paths = (
{
closed = 1;
nodes = (
"229 272 LINE",
"235 269 OFFCURVE",
"308 270 OFFCURVE",
"335 271 CURVE",
"410 280 LINE",
"513 332 OFFCURVE",
"573 423 OFFCURVE",
"545 538 CURVE SMOOTH",
"494 747 OFFCURVE",
"126 679 OFFCURVE",
"44 678 CURVE",
"225 597 LINE",
"425 633 OFFCURVE",
"468 391 OFFCURVE",
"350 348 CURVE",
"327 348 OFFCURVE",
"269 341 OFFCURVE",
"209 368 CURVE"
);
},
{
closed = 1;
nodes = (
"267 326 LINE",
"329 225 OFFCURVE",
"420 69 OFFCURVE",
"469 0 CURVE",
"636 0 LINE",
"641 55 LINE",
"600 57 OFFCURVE",
"578 70 OFFCURVE",
"541 122 CURVE SMOOTH",
"483 203 OFFCURVE",
"433 269 OFFCURVE",
"401 326 CURVE"
);
},
{
closed = 1;
nodes = (
"44 678 LINE",
"39 623 LINE",
"94 612 LINE",
"106 587 OFFCURVE",
"106 512 OFFCURVE",
"106 394 CURVE SMOOTH",
"106 184 OFFCURVE",
"90 114 OFFCURVE",
"95 98 CURVE SMOOTH",
"99 86 OFFCURVE",
"115 71 OFFCURVE",
"144 65 CURVE",
"37 55 LINE",
"35 0 LINE",
"316 1 LINE",
"321 54 LINE",
"263 64 LINE",
"225 123 OFFCURVE",
"234 294 OFFCURVE",
"234 340 CURVE SMOOTH",
"234 497 OFFCURVE",
"241 567 OFFCURVE",
"254 588 CURVE SMOOTH",
"264 608 OFFCURVE",
"287 621 OFFCURVE",
"310 623 CURVE",
"311 678 LINE"
);
}
);
width = 646;
}
);
leftKerningGroup = I;
leftMetricsKey = I;
rightKerningGroup = B;
unicode = 0052;
},
{
glyphname = S;
lastChange = "2016-10-16 17:25:36 +0000";
layers = (
{
anchors = (
{
name = bottom;
position = "{249, 0}";
},
{
name = top;
position = "{321, 656}";
}
);
background = {
paths = (
{
closed = 1;
nodes = (
"565 47 LINE",
"555 53 OFFCURVE",
"539 65 OFFCURVE",
"526 76 CURVE SMOOTH",
"497 100 OFFCURVE",
"438 211 OFFCURVE",
"356 349 CURVE SMOOTH",
"274 487 OFFCURVE",
"252 525 OFFCURVE",
"215 589 CURVE",
"282 589 OFFCURVE",
"400 585 OFFCURVE",
"468 579 CURVE",
"502 511 LINE",
"549 519 LINE",
"515 700 LINE",
"371 700 OFFCURVE",
"194 693 OFFCURVE",
"39 700 CURVE",
"26 650 LINE",
"37 645 OFFCURVE",
"50 635 OFFCURVE",
"67 620 CURVE SMOOTH",
"104 588 OFFCURVE",
"155 525 OFFCURVE",
"262 347 CURVE",
"336 213 OFFCURVE",
"358 172 OFFCURVE",
"384 114 CURVE",
"340 116 OFFCURVE",
"303 118 OFFCURVE",
"260 121 CURVE SMOOTH",
"162 128 OFFCURVE",
"123 143 OFFCURVE",
"109 188 CURVE",
"64 178 LINE",
"99 0 LINE",
"266 0 OFFCURVE",
"394 5 OFFCURVE",
"549 0 CURVE"
);
}
);
};
guideLines = (
{
position = "{42, 57}";
}
);
layerId = "71FD7A9F-05F5-4D76-8D4F-547475A05E4C";
name = "Bold Italic";
paths = (
{
closed = 1;
nodes = (
"256 -41 OFFCURVE",
"93 -15 OFFCURVE",
"20 66 CURVE",
"24 78 OFFCURVE",
"36 166 OFFCURVE",
"45 200 CURVE",
"57 205 OFFCURVE",
"83 208 OFFCURVE",
"98 213 CURVE",
"117 116 OFFCURVE",
"216 78 OFFCURVE",
"306 75 CURVE",
"339 93 OFFCURVE",
"381 142 OFFCURVE",
"375 183 CURVE SMOOTH",
"369 224 OFFCURVE",
"313 257 OFFCURVE",
"236 302 CURVE SMOOTH",
"166 343 OFFCURVE",
"64 389 OFFCURVE",
"65 485 CURVE SMOOTH",
"66 615 OFFCURVE",
"163 678 OFFCURVE",
"281 691 CURVE SMOOTH",
"381 702 OFFCURVE",
"462 668 OFFCURVE",
"511 620 CURVE",
"507 592 OFFCURVE",
"496 510 OFFCURVE",
"492 481 CURVE",
"426 470 LINE",
"422 523 LINE",
"385 573 OFFCURVE",
"321 604 OFFCURVE",
"264 606 CURVE",
"223 592 OFFCURVE",
"192 545 OFFCURVE",
"203 501 CURVE SMOOTH",
"210 472 OFFCURVE",
"264 437 OFFCURVE",
"331 400 CURVE SMOOTH",
"398 363 OFFCURVE",
"507 311 OFFCURVE",
"507 203 CURVE SMOOTH",
"507 109 OFFCURVE",
"465 55 OFFCURVE",
"379 16 CURVE SMOOTH"
);
}
);
width = 539;
},
{
anchors = (
{
name = bottom;
position = "{270, 0}";
},
{
name = top;
position = "{270, 708}";
}
);
layerId = "11343128-4963-4E5D-BE9C-B74F53B36FA5";
name = Bold;
paths = (
{
closed = 1;
nodes = (
"480 52 OFFCURVE",
"509 109 OFFCURVE",
"509 203 CURVE SMOOTH",
"508 317 OFFCURVE",
"380 364 OFFCURVE",
"311 398 CURVE SMOOTH",
"238 432 OFFCURVE",
"188 459 OFFCURVE",
"176 489 CURVE SMOOTH",
"159 532 OFFCURVE",
"198 583 OFFCURVE",
"244 601 CURVE",
"301 601 OFFCURVE",
"356 570 OFFCURVE",
"397 520 CURVE",
"404 467 LINE",
"469 478 LINE",
"471 507 OFFCURVE",
"476 589 OFFCURVE",
"479 617 CURVE",
"426 665 OFFCURVE",
"342 699 OFFCURVE",
"244 688 CURVE SMOOTH",
"127 675 OFFCURVE",
"43 612 OFFCURVE",
"42 482 CURVE SMOOTH",
"41 363 OFFCURVE",
"152 325 OFFCURVE",
"227 287 CURVE SMOOTH",
"307 245 OFFCURVE",
"364 214 OFFCURVE",
"377 174 CURVE SMOOTH",
"390 133 OFFCURVE",
"342 86 OFFCURVE",
"308 71 CURVE",
"218 73 OFFCURVE",
"125 110 OFFCURVE",
"99 207 CURVE",
"85 202 OFFCURVE",
"60 199 OFFCURVE",
"48 194 CURVE",
"41 160 OFFCURVE",
"35 72 OFFCURVE",
"32 60 CURVE",
"110 -21 OFFCURVE",
"278 -44 OFFCURVE",
"397 13 CURVE SMOOTH"
);
}
);
width = 539;
}
);
leftKerningGroup = I;
rightKerningGroup = I;
unicode = 0053;
},
{
glyphname = Germandbls;
lastChange = "2016-10-18 16:29:52 +0000";
layers = (
{
background = {
paths = (
{
closed = 1;
nodes = (
"168 716 OFFCURVE",
"13 489 OFFCURVE",
"53 235 CURVE SMOOTH",
"79 71 OFFCURVE",
"197 -5 OFFCURVE",
"315 -14 CURVE SMOOTH",
"448 -24 OFFCURVE",
"550 12 OFFCURVE",
"607 51 CURVE",
"607 129 OFFCURVE",
"613 227 OFFCURVE",
"620 249 CURVE SMOOTH",
"629 276 OFFCURVE",
"652 282 OFFCURVE",
"660 282 CURVE",
"664 343 LINE",
"576 340 OFFCURVE",
"531 341 OFFCURVE",
"448 344 CURVE",
"440 285 LINE",
"495 269 LINE",
"494 213 OFFCURVE",
"494 117 OFFCURVE",
"456 76 CURVE",
"337 57 OFFCURVE",
"230 114 OFFCURVE",
"205 271 CURVE SMOOTH",
"173 469 OFFCURVE",
"287 601 OFFCURVE",
"351 628 CURVE",
"433 622 OFFCURVE",
"518 573 OFFCURVE",
"545 536 CURVE",
"550 481 LINE",
"613 492 LINE",
"642 651 LINE",
"608 684 OFFCURVE",
"537 716 OFFCURVE",
"410 716 CURVE SMOOTH"
);
}
);
};
layerId = "71FD7A9F-05F5-4D76-8D4F-547475A05E4C";
name = "Bold Italic";
paths = (
{
closed = 1;
nodes = (
"384 -80 OFFCURVE",
"594 13 OFFCURVE",
"611 168 CURVE SMOOTH",
"625 306 OFFCURVE",
"501 350 OFFCURVE",
"373 384 CURVE",
"322 317 LINE",
"442 269 OFFCURVE",
"510 181 OFFCURVE",
"446 79 CURVE",
"351 81 LINE",
"340 149 LINE",
"285 139 LINE",
"257 37 LINE"
);
},
{
closed = 1;
nodes = (
"558 642 OFFCURVE",
"467 724 OFFCURVE",
"325 693 CURVE SMOOTH",
"231 673 OFFCURVE",
"110 622 OFFCURVE",
"87 404 CURVE SMOOTH",
"75 294 OFFCURVE",
"63 179 OFFCURVE",
"55 104 CURVE",
"53 80 OFFCURVE",
"74 68 OFFCURVE",
"92 65 CURVE",
"7 54 LINE",
"-5 0 LINE",
"215 0 LINE",
"219 55 LINE",
"183 64 LINE",
"204 265 OFFCURVE",
"213 384 OFFCURVE",
"218 428 CURVE SMOOTH",
"235 572 OFFCURVE",
"375 649 OFFCURVE",
"427 590 CURVE",
"367 475 OFFCURVE",
"281 359 OFFCURVE",
"294 373 CURVE",
"321 316 LINE",
"371 366 LINE",
"562 560 LINE",
"565 590 LINE"
);
}
);
width = 623;
},
{
anchors = (
{
name = bottom;
position = "{302, 0}";
},
{
name = top;
position = "{302, 700}";
}
);
background = {
paths = (
{
closed = 1;
nodes = (
"213 391 LINE",
"235 473 LINE",
"144 562 LINE",
"123 491 LINE",
"122 470 OFFCURVE",
"113 468 OFFCURVE",
"83 466 CURVE SMOOTH",
"68 465 LINE",
"66 400 LINE",
"70 400 OFFCURVE",
"114 387 OFFCURVE",
"129 387 CURVE"
);
},
{
closed = 1;
nodes = (
"626 290 OFFCURVE",
"525 328 OFFCURVE",
"405 396 CURVE",
"564 473 OFFCURVE",
"584 756 OFFCURVE",
"321 739 CURVE SMOOTH",
"202 731 OFFCURVE",
"124 626 OFFCURVE",
"124 480 CURVE SMOOTH",
"124 404 OFFCURVE",
"120 253 OFFCURVE",
"121 95 CURVE SMOOTH",
"121 84 OFFCURVE",
"135 71 OFFCURVE",
"155 63 CURVE",
"73 55 LINE",
"70 0 LINE",
"236 0 LINE",
"235 403 LINE SMOOTH",
"235 453 OFFCURVE",
"236 500 OFFCURVE",
"236 531 CURVE SMOOTH",
"236 621 OFFCURVE",
"274 666 OFFCURVE",
"313 668 CURVE",
"396 650 OFFCURVE",
"449 510 OFFCURVE",
"309 405 CURVE",
"308 391 OFFCURVE",
"306 382 OFFCURVE",
"308 354 CURVE",
"308 288 OFFCURVE",
"505 251 OFFCURVE",
"505 138 CURVE SMOOTH",
"505 75 OFFCURVE",
"416 40 OFFCURVE",
"342 79 CURVE",
"319 24 LINE",
"443 -60 OFFCURVE",
"626 12 OFFCURVE",
"626 162 CURVE SMOOTH"
);
},
{
closed = 1;
nodes = (
"163 0 LINE",
"284 0 LINE",
"288 60 LINE",
"219 69 LINE"
);
}
);
};
layerId = "11343128-4963-4E5D-BE9C-B74F53B36FA5";
name = Bold;
paths = (
{
closed = 1;
nodes = (
"427 -79 OFFCURVE",
"628 14 OFFCURVE",
"628 169 CURVE SMOOTH",
"628 307 OFFCURVE",
"500 355 OFFCURVE",
"368 389 CURVE",
"324 322 LINE",
"391 295 OFFCURVE",
"465 245 OFFCURVE",
"482 191 CURVE SMOOTH",
"494 154 OFFCURVE",
"489 110 OFFCURVE",
"473 80 CURVE",
"378 82 LINE",
"359 150 LINE",
"305 140 LINE",
"288 38 LINE"
);
},
{
closed = 1;
nodes = (
"526 642 OFFCURVE",
"427 724 OFFCURVE",
"288 693 CURVE SMOOTH",
"196 673 OFFCURVE",
"80 622 OFFCURVE",
"80 404 CURVE SMOOTH",
"80 294 OFFCURVE",
"79 179 OFFCURVE",
"79 104 CURVE",
"79 80 OFFCURVE",
"101 68 OFFCURVE",
"120 65 CURVE",
"36 54 LINE",
"30 0 LINE",
"250 0 LINE",
"248 55 LINE",
"211 64 LINE",
"211 265 OFFCURVE",
"208 384 OFFCURVE",
"209 428 CURVE SMOOTH",
"211 572 OFFCURVE",
"343 649 OFFCURVE",
"401 590 CURVE",
"353 475 OFFCURVE",
"279 364 OFFCURVE",
"291 378 CURVE",
"324 321 LINE",
"368 371 LINE",
"539 560 LINE",
"539 590 LINE"
);
}
);
width = 628;
}
);
leftKerningGroup = I;
leftMetricsKey = "=I-5";
rightKerningGroup = B;
unicode = 1E9E;
},
{
glyphname = T;
lastChange = "2016-10-16 16:07:51 +0000";
layers = (
{
anchors = (
{
name = bottom;
position = "{309, 0}";
},
{
name = center;
position = "{340, 350}";
},
{
name = top;
position = "{348, 646}";
}
);
background = {
components = (
{
name = H;
transform = "{1, 0, 0, 1, -67, 0}";
}
);
};
guideLines = (
{
position = "{413, 637}";
},
{
position = "{592, 535}";
}
);
layerId = "71FD7A9F-05F5-4D76-8D4F-547475A05E4C";
name = "Bold Italic";
paths = (
{
closed = 1;
nodes = (
"274 589 LINE",
"168 590 OFFCURVE",
"118 585 OFFCURVE",
"94 507 CURVE",
"43 518 LINE",
"79 681 LINE",
"251 675 OFFCURVE",
"430 675 OFFCURVE",
"600 681 CURVE",
"611 518 LINE",
"550 508 LINE",
"526 580 LINE",
"487 587 OFFCURVE",
"442 589 OFFCURVE",
"407 588 CURVE"
);
},
{
closed = 1;
nodes = (
"470 624 LINE",
"447 622 OFFCURVE",
"422 609 OFFCURVE",
"411 589 CURVE SMOOTH",
"394 568 OFFCURVE",
"383 489 OFFCURVE",
"370 353 CURVE SMOOTH",
"366 307 OFFCURVE",
"342 123 OFFCURVE",
"375 64 CURVE",
"432 54 LINE",
"423 1 LINE",
"142 0 LINE",
"148 55 LINE",
"256 65 LINE",
"227 71 OFFCURVE",
"212 86 OFFCURVE",
"211 98 CURVE SMOOTH",
"207 114 OFFCURVE",
"227 176 OFFCURVE",
"246 386 CURVE SMOOTH",
"257 513 OFFCURVE",
"265 588 OFFCURVE",
"254 613 CURVE",
"199 624 LINE",
"209 676 LINE",
"476 676 LINE"
);
}
);
width = 588;
},
{
anchors = (
{
name = bottom;
position = "{304, 0}";
},
{
name = center;
position = "{304, 350}";
},
{
name = top;
position = "{304, 700}";
}
);
layerId = "11343128-4963-4E5D-BE9C-B74F53B36FA5";
name = Bold;
paths = (
{
closed = 1;
nodes = (
"416 591 OFFCURVE",
"461 589 OFFCURVE",
"501 582 CURVE",
"531 510 LINE",
"593 520 LINE",
"568 683 LINE",
"398 677 OFFCURVE",
"219 677 OFFCURVE",
"47 683 CURVE",
"25 520 LINE",
"85 509 LINE",
"103 587 OFFCURVE",
"142 592 OFFCURVE",
"248 591 CURVE",
"381 590 LINE"
);
},
{
closed = 1;
nodes = (
"172 678 LINE",
"167 626 LINE",
"222 615 LINE",
"234 590 OFFCURVE",
"234 515 OFFCURVE",
"234 388 CURVE SMOOTH",
"234 178 OFFCURVE",
"219 114 OFFCURVE",
"224 98 CURVE SMOOTH",
"228 86 OFFCURVE",
"244 71 OFFCURVE",
"273 65 CURVE",
"164 55 LINE",
"162 0 LINE",
"445 1 LINE",
"450 54 LINE",
"392 64 LINE",
"354 123 OFFCURVE",
"362 288 OFFCURVE",
"362 334 CURVE SMOOTH",
"362 491 OFFCURVE",
"361 570 OFFCURVE",
"374 591 CURVE SMOOTH",
"384 611 OFFCURVE",
"415 624 OFFCURVE",
"438 626 CURVE",
"439 678 LINE"
);
}
);
width = 613;
}
);
leftKerningGroup = T;
rightKerningGroup = T;
unicode = 0054;
},
{
glyphname = U;
lastChange = "2016-10-16 16:16:55 +0000";
layers = (
{
anchors = (
{
name = bottom;
position = "{328, 0}";
},
{
name = ogonek;
position = "{434, 12}";
},
{
name = top;
position = "{402, 666}";
},
{
name = topright;
position = "{729, 700}";
}
);
background = {
paths = (
{
closed = 1;
nodes = (
"27 87 LINE",
"27 169 OFFCURVE",
"27 610 OFFCURVE",
"27 617 CURVE SMOOTH",
"27 628 OFFCURVE",
"27 642 OFFCURVE",
"27 650 CURVE",
"27 650 LINE",
"27 700 LINE",
"27 700 LINE",
"27 653 LINE",
"27 645 LINE",
"27 613 OFFCURVE",
"27 448 OFFCURVE",
"27 327 CURVE SMOOTH",
"27 220 OFFCURVE",
"27 44 OFFCURVE",
"27 0 CURVE"
);
}
);
};
layerId = "71FD7A9F-05F5-4D76-8D4F-547475A05E4C";
name = "Bold Italic";
paths = (
{
closed = 1;
nodes = (
"479 625 LINE",
"532 615 LINE",
"543 587 OFFCURVE",
"533 474 OFFCURVE",
"517 312 CURVE SMOOTH",
"504 178 OFFCURVE",
"466 119 OFFCURVE",
"422 97 CURVE",
"324 82 OFFCURVE",
"277 125 OFFCURVE",
"260 200 CURVE SMOOTH",
"245 264 OFFCURVE",
"281 543 OFFCURVE",
"293 591 CURVE",
"288 601 OFFCURVE",
"260 614 OFFCURVE",
"246 616 CURVE",
"284 618 OFFCURVE",
"329 622 OFFCURVE",
"352 625 CURVE",
"359 679 LINE",
"89 680 LINE",
"77 626 LINE",
"138 614 LINE",
"146 579 OFFCURVE",
"123 362 OFFCURVE",
"114 273 CURVE SMOOTH",
"106 192 OFFCURVE",
"120 122 OFFCURVE",
"149 77 CURVE SMOOTH",
"207 -9 OFFCURVE",
"343 -38 OFFCURVE",
"449 10 CURVE SMOOTH",
"535 49 OFFCURVE",
"603 133 OFFCURVE",
"616 280 CURVE SMOOTH",
"626 397 OFFCURVE",
"638 476 OFFCURVE",
"647 543 CURVE SMOOTH",
"654 591 OFFCURVE",
"672 623 OFFCURVE",
"722 625 CURVE",
"728 680 LINE",
"491 680 LINE"
);
}
);
width = 700;
},
{
anchors = (
{
name = bottom;
position = "{350, 0}";
},
{
name = ogonek;
position = "{490, 10}";
},
{
name = top;
position = "{350, 700}";
},
{
name = topright;
position = "{680, 700}";
}
);
background = {
components = (
{
name = I;
transform = "{-1, 0, 0, -1, 354, 700}";
}
);
};
layerId = "11343128-4963-4E5D-BE9C-B74F53B36FA5";
name = Bold;
paths = (
{
closed = 1;
nodes = (
"434 625 LINE",
"488 615 LINE",
"502 587 OFFCURVE",
"500 486 OFFCURVE",
"500 304 CURVE SMOOTH",
"500 170 OFFCURVE",
"465 111 OFFCURVE",
"422 89 CURVE",
"326 74 OFFCURVE",
"268 117 OFFCURVE",
"245 192 CURVE SMOOTH",
"224 256 OFFCURVE",
"235 543 OFFCURVE",
"243 591 CURVE",
"237 601 OFFCURVE",
"208 614 OFFCURVE",
"194 616 CURVE",
"232 618 OFFCURVE",
"277 622 OFFCURVE",
"299 625 CURVE",
"302 679 LINE",
"36 680 LINE",
"30 626 LINE",
"91 614 LINE",
"103 579 OFFCURVE",
"97 374 OFFCURVE",
"97 265 CURVE SMOOTH",
"97 184 OFFCURVE",
"115 114 OFFCURVE",
"149 69 CURVE SMOOTH",
"215 -17 OFFCURVE",
"355 -46 OFFCURVE",
"457 2 CURVE SMOOTH",
"540 41 OFFCURVE",
"602 125 OFFCURVE",
"602 272 CURVE SMOOTH",
"602 409 OFFCURVE",
"605 476 OFFCURVE",
"609 543 CURVE SMOOTH",
"612 591 OFFCURVE",
"628 623 OFFCURVE",
"678 625 CURVE",
"680 680 LINE",
"442 680 LINE"
);
}
);
width = 700;
}
);
leftKerningGroup = V;
rightKerningGroup = U;
unicode = 0055;
},
{
glyphname = V;
lastChange = "2016-10-15 22:40:05 +0000";
layers = (
{
background = {
paths = (
{
closed = 1;
nodes = (
"741 193 LINE",
"711 344 OFFCURVE",
"656 594 OFFCURVE",
"654 605 CURVE SMOOTH",
"650 634 OFFCURVE",
"663 650 OFFCURVE",
"696 650 CURVE",
"701 700 LINE",
"458 700 LINE",
"449 653 LINE",
"496 643 LINE",
"537 519 OFFCURVE",
"595 278 OFFCURVE",
"661 0 CURVE",
"663 0 LINE",
"762 58 LINE"
);
},
{
closed = 1;
nodes = (
"505 424 OFFCURVE",
"462 304 OFFCURVE",
"419 193 CURVE",
"395 349 OFFCURVE",
"339 613 OFFCURVE",
"336 618 CURVE SMOOTH",
"330 629 OFFCURVE",
"320 641 OFFCURVE",
"298 651 CURVE",
"379 651 LINE",
"384 700 LINE",
"141 700 LINE",
"132 653 LINE",
"183 647 LINE",
"216 569 OFFCURVE",
"316 110 OFFCURVE",
"335 0 CURVE",
"440 0 LINE",
"610 511 LINE",
"543 538 LINE"
);
},
{
closed = 1;
nodes = (
"872 614 OFFCURVE",
"842 518 OFFCURVE",
"826 468 CURVE SMOOTH",
"708 87 OFFCURVE",
"707 75 OFFCURVE",
"661 0 CURVE",
"765 0 LINE",
"855 276 OFFCURVE",
"942 534 OFFCURVE",
"961 580 CURVE SMOOTH",
"986 640 OFFCURVE",
"1025 650 OFFCURVE",
"1051 650 CURVE",
"1056 700 LINE",
"810 700 LINE",
"801 653 LINE",
"864 644 LINE"
);
}
);
};
layerId = "71FD7A9F-05F5-4D76-8D4F-547475A05E4C";
name = "Bold Italic";
paths = (
{
closed = 1;
nodes = (
"387 117 LINE",
"373 189 OFFCURVE",
"278 571 OFFCURVE",
"276 581 CURVE SMOOTH",
"271 603 OFFCURVE",
"248 614 OFFCURVE",
"226 616 CURVE",
"324 625 LINE",
"331 680 LINE",
"67 680 LINE",
"57 625 LINE",
"107 615 LINE",
"120 583 OFFCURVE",
"165 442 OFFCURVE",
"196 321 CURVE SMOOTH",
"228 210 OFFCURVE",
"266 69 OFFCURVE",
"280 -4 CURVE"
);
},
{
closed = 1;
nodes = (
"556 584 OFFCURVE",
"502 463 OFFCURVE",
"481 412 CURVE SMOOTH",
"340 67 OFFCURVE",
"309 40 OFFCURVE",
"282 -4 CURVE",
"401 0 LINE",
"520 270 OFFCURVE",
"608 460 OFFCURVE",
"657 564 CURVE SMOOTH",
"680 611 OFFCURVE",
"714 625 OFFCURVE",
"745 625 CURVE",
"753 680 LINE",
"508 680 LINE",
"496 625 LINE",
"550 616 LINE"
);
}
);
width = 710;
},
{
anchors = (
{
name = bottom;
position = "{351, 0}";
},
{
name = top;
position = "{351, 700}";
}
);
background = {
paths = (
{
closed = 1;
nodes = (
"83 576 OFFCURVE",
"95 492 OFFCURVE",
"88 414 CURVE",
"214 430 LINE",
"218 539 OFFCURVE",
"227 589 OFFCURVE",
"225 605 CURVE SMOOTH",
"224 613 OFFCURVE",
"218 627 OFFCURVE",
"186 639 CURVE",
"281 645 LINE",
"281 700 LINE",
"16 700 LINE",
"10 645 LINE",
"67 635 LINE"
);
}
);
};
layerId = "11343128-4963-4E5D-BE9C-B74F53B36FA5";
name = Bold;
paths = (
{
closed = 1;
nodes = (
"380 117 LINE",
"360 189 OFFCURVE",
"233 571 OFFCURVE",
"230 581 CURVE SMOOTH",
"223 603 OFFCURVE",
"199 614 OFFCURVE",
"177 616 CURVE",
"274 625 LINE",
"277 680 LINE",
"13 680 LINE",
"7 625 LINE",
"58 615 LINE",
"74 583 OFFCURVE",
"130 442 OFFCURVE",
"172 321 CURVE SMOOTH",
"213 210 OFFCURVE",
"263 73 OFFCURVE",
"283 0 CURVE"
);
},
{
closed = 1;
nodes = (
"507 584 OFFCURVE",
"465 463 OFFCURVE",
"449 412 CURVE SMOOTH",
"338 67 OFFCURVE",
"308 44 OFFCURVE",
"285 0 CURVE",
"404 0 LINE",
"500 270 OFFCURVE",
"570 460 OFFCURVE",
"610 564 CURVE SMOOTH",
"628 611 OFFCURVE",
"661 625 OFFCURVE",
"692 625 CURVE",
"696 680 LINE",
"451 680 LINE",
"443 625 LINE",
"498 616 LINE"
);
}
);
width = 702;
}
);
leftKerningGroup = V;
rightKerningGroup = V;
unicode = 0056;
},
{
glyphname = W;
lastChange = "2016-10-21 15:09:30 +0000";
layers = (
{
anchors = (
{
name = bottom;
position = "{446, 0}";
},
{
name = top;
position = "{545, 646}";
}
);
guideLines = (
{
position = "{731, 177}";
}
);
layerId = "71FD7A9F-05F5-4D76-8D4F-547475A05E4C";
name = "Bold Italic";
paths = (
{
closed = 1;
nodes = (
"391 117 LINE",
"376 189 OFFCURVE",
"288 573 OFFCURVE",
"285 583 CURVE SMOOTH",
"280 596 OFFCURVE",
"268 608 OFFCURVE",
"243 616 CURVE",
"324 625 LINE",
"331 680 LINE",
"69 680 LINE",
"58 625 LINE",
"117 615 LINE",
"131 583 OFFCURVE",
"173 442 OFFCURVE",
"205 321 CURVE SMOOTH",
"236 209 OFFCURVE",
"276 38 OFFCURVE",
"287 -6 CURVE"
);
},
{
closed = 1;
nodes = (
"525 584 OFFCURVE",
"480 463 OFFCURVE",
"460 412 CURVE SMOOTH",
"326 67 OFFCURVE",
"314 38 OFFCURVE",
"288 -6 CURVE",
"391 0 LINE",
"516 319 OFFCURVE",
"573 484 OFFCURVE",
"595 531 CURVE",
"521 616 LINE"
);
},
{
closed = 1;
nodes = (
"715 117 LINE",
"705 189 OFFCURVE",
"622 573 OFFCURVE",
"621 583 CURVE SMOOTH",
"617 607 OFFCURVE",
"631 622 OFFCURVE",
"667 625 CURVE",
"675 680 LINE",
"414 680 LINE",
"404 625 LINE",
"461 615 LINE",
"473 583 OFFCURVE",
"509 442 OFFCURVE",
"535 321 CURVE SMOOTH",
"560 210 OFFCURVE",
"597 38 OFFCURVE",
"609 -6 CURVE"
);
},
{
closed = 1;
nodes = (
"860 584 OFFCURVE",
"806 463 OFFCURVE",
"786 412 CURVE SMOOTH",
"652 65 OFFCURVE",
"653 48 OFFCURVE",
"608 -6 CURVE",
"716 0 LINE",
"881 400 OFFCURVE",
"938 517 OFFCURVE",
"963 564 CURVE SMOOTH",
"989 610 OFFCURVE",
"1018 625 OFFCURVE",
"1051 625 CURVE",
"1058 680 LINE",
"814 680 LINE",
"803 625 LINE",
"854 616 LINE"
);
}
);
width = 1045;
},
{
anchors = (
{
name = bottom;
position = "{524, 0}";
},
{
name = top;
position = "{524, 705}";
}
);
background = {
components = (
{
name = V;
}
);
};
guideLines = (
{
position = "{1458, 194}";
},
{
angle = 70;
position = "{829, 288}";
}
);
layerId = "11343128-4963-4E5D-BE9C-B74F53B36FA5";
name = Bold;
paths = (
{
closed = 1;
nodes = (
"392 117 LINE",
"372 189 OFFCURVE",
"267 573 OFFCURVE",
"263 583 CURVE SMOOTH",
"256 596 OFFCURVE",
"245 608 OFFCURVE",
"218 616 CURVE",
"300 625 LINE",
"304 680 LINE",
"35 680 LINE",
"27 625 LINE",
"89 615 LINE",
"105 583 OFFCURVE",
"159 442 OFFCURVE",
"196 321 CURVE SMOOTH",
"230 209 OFFCURVE",
"281 44 OFFCURVE",
"295 0 CURVE"
);
},
{
closed = 1;
nodes = (
"506 584 OFFCURVE",
"462 463 OFFCURVE",
"445 412 CURVE SMOOTH",
"331 67 OFFCURVE",
"320 44 OFFCURVE",
"296 0 CURVE",
"402 0 LINE",
"496 270 OFFCURVE",
"565 470 OFFCURVE",
"585 517 CURVE",
"499 616 LINE"
);
},
{
closed = 1;
nodes = (
"713 117 LINE",
"697 189 OFFCURVE",
"595 573 OFFCURVE",
"593 583 CURVE SMOOTH",
"588 607 OFFCURVE",
"600 625 OFFCURVE",
"637 625 CURVE",
"643 680 LINE",
"383 680 LINE",
"375 625 LINE",
"435 615 LINE",
"449 583 OFFCURVE",
"482 441 OFFCURVE",
"524 321 CURVE SMOOTH",
"563 210 OFFCURVE",
"609 44 OFFCURVE",
"624 0 CURVE"
);
},
{
closed = 1;
nodes = (
"813 584 OFFCURVE",
"778 464 OFFCURVE",
"763 412 CURVE SMOOTH",
"661 65 OFFCURVE",
"666 54 OFFCURVE",
"623 0 CURVE",
"734 0 LINE",
"850 400 OFFCURVE",
"898 517 OFFCURVE",
"920 564 CURVE SMOOTH",
"943 610 OFFCURVE",
"972 625 OFFCURVE",
"1006 625 CURVE",
"1010 680 LINE",
"759 680 LINE",
"751 625 LINE",
"805 616 LINE"
);
}
);
width = 1047;
}
);
leftKerningGroup = V;
rightKerningGroup = V;
unicode = 0057;
},
{
glyphname = X;
lastChange = "2016-10-16 16:10:15 +0000";
layers = (
{
background = {
paths = (
{
closed = 1;
nodes = (
"353 352 LINE",
"361 272 OFFCURVE",
"441 52 OFFCURVE",
"468 32 CURVE SMOOTH",
"477 25 OFFCURVE",
"549 -1 OFFCURVE",
"602 -1 CURVE",
"637 7 OFFCURVE",
"664 25 OFFCURVE",
"669 28 CURVE",
"664 74 LINE",
"644 66 OFFCURVE",
"630 65 OFFCURVE",
"619 63 CURVE",
"566 119 OFFCURVE",
"463 326 OFFCURVE",
"439 425 CURVE"
);
},
{
closed = 1;
nodes = (
"121 700 LINE",
"113 653 LINE",
"159 644 LINE",
"170 619 OFFCURVE",
"162 487 OFFCURVE",
"157 427 CURVE SMOOTH",
"145 292 OFFCURVE",
"118 104 OFFCURVE",
"121 88 CURVE SMOOTH",
"122 79 OFFCURVE",
"130 62 OFFCURVE",
"168 50 CURVE",
"61 50 LINE",
"57 0 LINE",
"338 0 LINE",
"345 47 LINE",
"289 55 LINE",
"254 114 OFFCURVE",
"273 286 OFFCURVE",
"284 408 CURVE SMOOTH",
"294 521 OFFCURVE",
"303 598 OFFCURVE",
"315 620 CURVE SMOOTH",
"327 640 OFFCURVE",
"344 648 OFFCURVE",
"367 650 CURVE",
"371 699 LINE"
);
},
{
closed = 1;
nodes = (
"490 584 OFFCURVE",
"344 400 OFFCURVE",
"265 312 CURVE",
"263 203 LINE",
"411 372 LINE",
"490 465 OFFCURVE",
"592 586 OFFCURVE",
"620 615 CURVE SMOOTH",
"644 639 OFFCURVE",
"668 650 OFFCURVE",
"695 650 CURVE",
"699 700 LINE",
"477 700 LINE",
"469 651 LINE",
"519 642 LINE"
);
}
);
};
guideLines = (
{
angle = -96;
position = "{667, 306}";
}
);
layerId = "71FD7A9F-05F5-4D76-8D4F-547475A05E4C";
name = "Bold Italic";
paths = (
{
closed = 1;
nodes = (
"325 296 LINE",
"362 220 OFFCURVE",
"394 174 OFFCURVE",
"420 130 CURVE SMOOTH",
"450 77 OFFCURVE",
"472 68 OFFCURVE",
"492 65 CURVE",
"398 55 LINE",
"392 0 LINE",
"683 0 LINE",
"694 55 LINE",
"634 65 LINE",
"570 168 OFFCURVE",
"444 331 OFFCURVE",
"399 416 CURVE"
);
},
{
closed = 1;
nodes = (
"497 541 OFFCURVE",
"428 460 OFFCURVE",
"370 384 CURVE",
"417 311 LINE",
"487 404 OFFCURVE",
"614 560 OFFCURVE",
"642 589 CURVE SMOOTH",
"666 613 OFFCURVE",
"694 623 OFFCURVE",
"723 625 CURVE",
"727 680 LINE",
"493 680 LINE",
"484 625 LINE",
"536 615 LINE"
);
},
{
closed = 1;
nodes = (
"240 123 OFFCURVE",
"335 234 OFFCURVE",
"368 280 CURVE",
"305 352 LINE",
"242 265 OFFCURVE",
"124 124 OFFCURVE",
"82 91 CURVE SMOOTH",
"53 68 OFFCURVE",
"28 55 OFFCURVE",
"1 55 CURVE",
"-3 0 LINE",
"247 0 LINE",
"255 55 LINE",
"207 65 LINE"
);
},
{
closed = 1;
nodes = (
"414 377 LINE",
"370 455 OFFCURVE",
"335 501 OFFCURVE",
"311 554 CURVE SMOOTH",
"298 584 OFFCURVE",
"289 625 OFFCURVE",
"347 625 CURVE",
"351 680 LINE",
"71 680 LINE",
"62 625 LINE",
"116 615 LINE",
"206 477 OFFCURVE",
"299 320 OFFCURVE",
"330 263 CURVE"
);
}
);
width = 739;
},
{
anchors = (
{
name = bottom;
position = "{364, 0}";
},
{
name = top;
position = "{364, 700}";
}
);
background = {
components = (
{
name = V;
transform = "{-1, 0, 0, -1, 692, 700}";
}
);
};
guideLines = (
{
angle = 90;
position = "{14, 134}";
},
{
angle = 90;
position = "{701, 135}";
},
{
angle = 56;
position = "{348, 360}";
}
);
layerId = "11343128-4963-4E5D-BE9C-B74F53B36FA5";
name = Bold;
paths = (
{
closed = 1;
nodes = (
"320 294 LINE",
"363 218 OFFCURVE",
"400 174 OFFCURVE",
"430 130 CURVE SMOOTH",
"466 77 OFFCURVE",
"489 68 OFFCURVE",
"509 65 CURVE",
"415 55 LINE",
"413 0 LINE",
"709 0 LINE",
"717 55 LINE",
"655 65 LINE",
"581 168 OFFCURVE",
"438 329 OFFCURVE",
"385 414 CURVE"
);
},
{
closed = 1;
nodes = (
"473 541 OFFCURVE",
"412 458 OFFCURVE",
"359 382 CURVE",
"413 309 LINE",
"476 402 OFFCURVE",
"590 560 OFFCURVE",
"616 589 CURVE SMOOTH",
"638 613 OFFCURVE",
"667 623 OFFCURVE",
"695 625 CURVE",
"695 680 LINE",
"457 680 LINE",
"452 625 LINE",
"506 615 LINE"
);
},
{
closed = 1;
nodes = (
"258 123 OFFCURVE",
"343 232 OFFCURVE",
"373 278 CURVE",
"303 350 LINE",
"246 263 OFFCURVE",
"140 124 OFFCURVE",
"100 91 CURVE SMOOTH",
"73 68 OFFCURVE",
"48 55 OFFCURVE",
"21 55 CURVE",
"21 0 LINE",
"275 0 LINE",
"279 55 LINE",
"229 65 LINE"
);
},
{
closed = 1;
nodes = (
"409 375 LINE",
"359 453 OFFCURVE",
"318 501 OFFCURVE",
"289 554 CURVE SMOOTH",
"274 584 OFFCURVE",
"260 625 OFFCURVE",
"319 625 CURVE",
"319 680 LINE",
"35 680 LINE",
"30 625 LINE",
"86 615 LINE",
"189 477 OFFCURVE",
"298 318 OFFCURVE",
"334 261 CURVE"
);
}
);
width = 727;
}
);
leftKerningGroup = X;
rightKerningGroup = X;
unicode = 0058;
},
{
glyphname = Y;
lastChange = "2016-10-16 16:08:41 +0000";
layers = (
{
anchors = (
{
name = bottom;
position = "{302, 0}";
},
{
name = top;
position = "{376, 646}";
},
{
name = topleft;
position = "{93, 700}";
}
);
background = {
paths = (
{
closed = 1;
nodes = (
"287 341 LINE",
"324 247 OFFCURVE",
"370 130 OFFCURVE",
"392 82 CURVE SMOOTH",
"397 71 OFFCURVE",
"409 59 OFFCURVE",
"432 49 CURVE",
"352 49 LINE",
"347 0 LINE",
"613 0 LINE",
"618 47 LINE",
"571 55 LINE",
"503 158 OFFCURVE",
"428 318 OFFCURVE",
"386 403 CURVE"
);
},
{
closed = 1;
nodes = (
"465 562 OFFCURVE",
"382 446 OFFCURVE",
"340 396 CURVE",
"375 320 LINE",
"443 413 OFFCURVE",
"569 586 OFFCURVE",
"598 615 CURVE SMOOTH",
"622 639 OFFCURVE",
"646 650 OFFCURVE",
"673 650 CURVE",
"678 700 LINE",
"444 700 LINE",
"439 653 LINE",
"493 645 LINE"
);
},
{
closed = 1;
nodes = (
"222 113 OFFCURVE",
"311 257 OFFCURVE",
"342 307 CURVE",
"293 361 LINE",
"235 268 OFFCURVE",
"122 112 OFFCURVE",
"91 85 CURVE SMOOTH",
"63 61 OFFCURVE",
"39 50 OFFCURVE",
"12 50 CURVE",
"7 0 LINE",
"230 0 LINE",
"235 47 LINE",
"188 55 LINE"
);
},
{
closed = 1;
nodes = (
"379 394 LINE",
"338 478 OFFCURVE",
"316 521 OFFCURVE",
"297 574 CURVE SMOOTH",
"284 610 OFFCURVE",
"270 651 OFFCURVE",
"329 651 CURVE",
"334 700 LINE",
"77 700 LINE",
"72 653 LINE",
"119 643 LINE",
"192 505 OFFCURVE",
"247 388 OFFCURVE",
"278 321 CURVE"
);
}
);
};
layerId = "71FD7A9F-05F5-4D76-8D4F-547475A05E4C";
name = "Bold Italic";
paths = (
{
closed = 1;
nodes = (
"496 558 OFFCURVE",
"407 383 OFFCURVE",
"319 266 CURVE",
"383 198 LINE",
"432 291 OFFCURVE",
"595 560 OFFCURVE",
"624 589 CURVE SMOOTH",
"648 613 OFFCURVE",
"683 625 OFFCURVE",
"710 625 CURVE",
"714 680 LINE",
"473 680 LINE",
"462 625 LINE",
"523 616 LINE"
);
},
{
closed = 1;
nodes = (
"393 338 LINE",
"355 431 OFFCURVE",
"289 561 OFFCURVE",
"283 581 CURVE SMOOTH",
"276 603 OFFCURVE",
"286 625 OFFCURVE",
"327 625 CURVE",
"331 680 LINE",
"73 680 LINE",
"62 625 LINE",
"113 616 LINE",
"219 399 OFFCURVE",
"259 320 OFFCURVE",
"306 207 CURVE"
);
},
{
closed = 1;
nodes = (
"404 106 OFFCURVE",
"411 228 OFFCURVE",
"419 306 CURVE",
"291 290 LINE",
"277 181 OFFCURVE",
"257 110 OFFCURVE",
"263 95 CURVE SMOOTH",
"266 86 OFFCURVE",
"277 74 OFFCURVE",
"305 65 CURVE",
"197 55 LINE",
"190 0 LINE",
"475 0 LINE",
"485 55 LINE",
"425 65 LINE"
);
}
);
width = 682;
},
{
anchors = (
{
name = bottom;
position = "{340, 0}";
},
{
name = top;
position = "{351, 701}";
},
{
name = topleft;
position = "{20, 700}";
}
);
annotations = (
{
position = "{-186, 798}";
text = "82\U00B0";
type = Text;
},
{
position = "{224, -14}";
text = "This Serif!";
type = Text;
width = 83;
}
);
background = {
components = (
{
name = F;
transform = "{1, 0, 0, 1, 164, 0}";
}
);
};
guideLines = (
{
position = "{258, 273}";
}
);
layerId = "11343128-4963-4E5D-BE9C-B74F53B36FA5";
name = Bold;
paths = (
{
closed = 1;
nodes = (
"458 558 OFFCURVE",
"385 399 OFFCURVE",
"307 282 CURVE",
"378 214 LINE",
"418 307 OFFCURVE",
"557 560 OFFCURVE",
"583 589 CURVE SMOOTH",
"605 613 OFFCURVE",
"639 625 OFFCURVE",
"666 625 CURVE",
"666 680 LINE",
"425 680 LINE",
"418 625 LINE",
"480 616 LINE"
);
},
{
closed = 1;
nodes = (
"375 354 LINE",
"329 447 OFFCURVE",
"258 561 OFFCURVE",
"250 581 CURVE SMOOTH",
"241 603 OFFCURVE",
"249 625 OFFCURVE",
"290 625 CURVE",
"290 680 LINE",
"32 680 LINE",
"25 625 LINE",
"77 616 LINE",
"202 415 OFFCURVE",
"243 336 OFFCURVE",
"299 223 CURVE"
);
},
{
closed = 1;
nodes = (
"401 106 OFFCURVE",
"403 244 OFFCURVE",
"404 322 CURVE",
"275 306 LINE",
"271 197 OFFCURVE",
"262 110 OFFCURVE",
"269 95 CURVE SMOOTH",
"273 86 OFFCURVE",
"282 74 OFFCURVE",
"311 65 CURVE",
"204 55 LINE",
"201 0 LINE",
"486 0 LINE",
"492 55 LINE",
"431 65 LINE"
);
}
);
width = 680;
}
);
leftKerningGroup = V;
rightKerningGroup = V;
unicode = 0059;
},
{
glyphname = Z;
lastChange = "2016-10-15 22:40:59 +0000";
layers = (
{
anchors = (
{
name = bottom;
position = "{256, 0}";
},
{
name = top;
position = "{303, 656}";
}
);
background = {
components = (
{
name = T;
}
);
};
layerId = "71FD7A9F-05F5-4D76-8D4F-547475A05E4C";
name = "Bold Italic";
paths = (
{
closed = 1;
nodes = (
"407 675 OFFCURVE",
"262 680 OFFCURVE",
"95 680 CURVE",
"58 508 LINE",
"123 496 LINE",
"138 537 OFFCURVE",
"154 575 OFFCURVE",
"245 584 CURVE SMOOTH",
"289 588 OFFCURVE",
"351 590 OFFCURVE",
"395 592 CURVE",
"387 581 OFFCURVE",
"347 518 OFFCURVE",
"207 314 CURVE SMOOTH",
"121 189 OFFCURVE",
"64 98 OFFCURVE",
"2 60 CURVE",
"16 0 LINE",
"171 5 OFFCURVE",
"373 0 OFFCURVE",
"517 0 CURVE",
"547 167 LINE",
"489 177 LINE",
"454 105 LINE",
"385 96 OFFCURVE",
"280 86 OFFCURVE",
"213 86 CURVE",
"282 195 OFFCURVE",
"312 231 OFFCURVE",
"393 358 CURVE SMOOTH",
"511 544 OFFCURVE",
"551 603 OFFCURVE",
"580 620 CURVE",
"567 680 LINE"
);
}
);
width = 581;
},
{
anchors = (
{
name = bottom;
position = "{305, 0}";
},
{
name = top;
position = "{305, 700}";
}
);
background = {
components = (
{
name = S;
transform = "{1, 0, 0, -1, 91, 674}";
}
);
};
guideLines = (
{
angle = 90;
position = "{549, 270}";
}
);
layerId = "11343128-4963-4E5D-BE9C-B74F53B36FA5";
name = Bold;
paths = (
{
closed = 1;
nodes = (
"386 678 OFFCURVE",
"231 682 OFFCURVE",
"64 682 CURVE",
"42 510 LINE",
"107 498 LINE",
"118 540 OFFCURVE",
"135 582 OFFCURVE",
"222 590 CURVE SMOOTH",
"265 594 OFFCURVE",
"329 596 OFFCURVE",
"372 598 CURVE",
"346 540 OFFCURVE",
"278 422 OFFCURVE",
"209 308 CURVE SMOOTH",
"128 173 OFFCURVE",
"53 71 OFFCURVE",
"26 60 CURVE",
"45 0 LINE",
"200 5 OFFCURVE",
"402 0 OFFCURVE",
"546 0 CURVE",
"560 162 LINE",
"501 172 LINE",
"472 100 LINE",
"404 91 OFFCURVE",
"306 81 OFFCURVE",
"239 81 CURVE",
"269 145 OFFCURVE",
"317 227 OFFCURVE",
"390 360 CURVE SMOOTH",
"456 480 OFFCURVE",
"531 606 OFFCURVE",
"564 623 CURVE",
"546 683 LINE"
);
}
);
width = 595;
}
);
leftKerningGroup = X;
rightKerningGroup = X;
unicode = 005A;
},
{
glyphname = Z.ss01;
lastChange = "2016-10-17 20:36:33 +0000";
layers = (
{
background = {
paths = (
{
closed = 1;
nodes = (
"503 0 LINE",
"532 155 LINE",
"483 166 LINE",
"465 94 OFFCURVE",
"429 82 OFFCURVE",
"315 82 CURVE",
"307 121 OFFCURVE",
"315 220 OFFCURVE",
"319 273 CURVE SMOOTH",
"327 381 OFFCURVE",
"359 597 OFFCURVE",
"356 612 CURVE",
"354 623 OFFCURVE",
"332 636 OFFCURVE",
"297 650 CURVE",
"415 650 LINE",
"419 700 LINE",
"126 700 LINE",
"123 653 LINE",
"179 645 LINE",
"212 589 OFFCURVE",
"198 404 OFFCURVE",
"185 257 CURVE SMOOTH",
"177 174 OFFCURVE",
"171 105 OFFCURVE",
"144 83 CURVE",
"103 83 OFFCURVE",
"60 87 OFFCURVE",
"19 94 CURVE",
"-11 163 LINE",
"-58 153 LINE",
"-38 0 LINE"
);
}
);
};
layerId = "71FD7A9F-05F5-4D76-8D4F-547475A05E4C";
name = "Bold Italic";
paths = (
{
closed = 1;
nodes = (
"381 695 OFFCURVE",
"253 700 OFFCURVE",
"86 700 CURVE",
"51 522 LINE",
"116 511 LINE",
"130 556 OFFCURVE",
"149 572 OFFCURVE",
"247 579 CURVE SMOOTH",
"290 582 OFFCURVE",
"327 584 OFFCURVE",
"371 586 CURVE",
"345 528 OFFCURVE",
"323 487 OFFCURVE",
"249 353 CURVE",
"142 175 OFFCURVE",
"91 112 OFFCURVE",
"54 80 CURVE SMOOTH",
"37 65 OFFCURVE",
"24 55 OFFCURVE",
"13 50 CURVE",
"26 0 LINE",
"181 7 OFFCURVE",
"358 0 OFFCURVE",
"502 0 CURVE",
"536 181 LINE",
"474 189 LINE",
"440 121 LINE",
"372 115 OFFCURVE",
"269 111 OFFCURVE",
"202 111 CURVE",
"239 175 OFFCURVE",
"261 213 OFFCURVE",
"343 351 CURVE SMOOTH",
"425 489 OFFCURVE",
"487 593 OFFCURVE",
"510 619 CURVE SMOOTH",
"521 632 OFFCURVE",
"542 648 OFFCURVE",
"552 653 CURVE",
"536 700 LINE"
);
}
);
width = 568;
},
{
layerId = "11343128-4963-4E5D-BE9C-B74F53B36FA5";
name = Bold;
paths = (
{
closed = 1;
nodes = (
"372 695 OFFCURVE",
"237 700 OFFCURVE",
"70 700 CURVE",
"44 522 LINE",
"110 511 LINE",
"121 556 OFFCURVE",
"139 573 OFFCURVE",
"237 579 CURVE SMOOTH",
"287 582 OFFCURVE",
"324 584 OFFCURVE",
"368 586 CURVE",
"345 528 OFFCURVE",
"325 487 OFFCURVE",
"251 353 CURVE",
"148 175 OFFCURVE",
"100 112 OFFCURVE",
"65 80 CURVE SMOOTH",
"49 65 OFFCURVE",
"36 55 OFFCURVE",
"26 50 CURVE",
"41 0 LINE",
"196 7 OFFCURVE",
"373 0 OFFCURVE",
"517 0 CURVE",
"542 181 LINE",
"479 189 LINE",
"449 121 LINE",
"381 115 OFFCURVE",
"279 111 OFFCURVE",
"212 111 CURVE",
"245 175 OFFCURVE",
"264 213 OFFCURVE",
"345 351 CURVE SMOOTH",
"426 489 OFFCURVE",
"483 593 OFFCURVE",
"505 619 CURVE SMOOTH",
"515 632 OFFCURVE",
"535 648 OFFCURVE",
"545 653 CURVE",
"527 700 LINE"
);
}
);
width = 576;
}
);
leftKerningGroup = X;
leftMetricsKey = Z;
rightKerningGroup = X;
rightMetricsKey = Z;
},
{
glyphname = a;
lastChange = "2016-10-21 14:33:32 +0000";
layers = (
{
anchors = (
{
name = bottom;
position = "{235, 0}";
},
{
name = ogonek;
position = "{437, 10}";
},
{
name = top;
position = "{277, 479}";
}
);
background = {
components = (
{
name = b;
transform = "{-1, 0, 0, -1, 488, 478}";
}
);
};
guideLines = (
{
angle = -20;
position = "{407, 503}";
}
);
layerId = "71FD7A9F-05F5-4D76-8D4F-547475A05E4C";
name = "Bold Italic";
paths = (
{
closed = 1;
nodes = (
"252 64 OFFCURVE",
"297 122 OFFCURVE",
"304 135 CURVE",
"304 135 OFFCURVE",
"355 271 OFFCURVE",
"336 278 CURVE",
"320 243 OFFCURVE",
"263 153 OFFCURVE",
"211 106 CURVE",
"203 106 OFFCURVE",
"187 118 OFFCURVE",
"178 141 CURVE SMOOTH",
"141 237 OFFCURVE",
"153 371 OFFCURVE",
"223 414 CURVE",
"273 414 OFFCURVE",
"327 340 OFFCURVE",
"338 307 CURVE",
"338 307 OFFCURVE",
"390 357 OFFCURVE",
"390 413 CURVE",
"348 462 OFFCURVE",
"273 484 OFFCURVE",
"205 484 CURVE",
"31 434 OFFCURVE",
"-22 181 OFFCURVE",
"71 43 CURVE SMOOTH",
"98 3 OFFCURVE",
"130 -3 OFFCURVE",
"168 -3 CURVE"
);
},
{
closed = 1;
nodes = (
"438 5 OFFCURVE",
"464 17 OFFCURVE",
"480 28 CURVE",
"476 74 LINE",
"463 69 OFFCURVE",
"437 62 OFFCURVE",
"422 62 CURVE",
"399 86 OFFCURVE",
"424 273 OFFCURVE",
"459 459 CURVE",
"450 467 OFFCURVE",
"408 476 OFFCURVE",
"399 477 CURVE",
"333 371 LINE",
"328 364 OFFCURVE",
"327 362 OFFCURVE",
"325 347 CURVE SMOOTH",
"311 244 OFFCURVE",
"276 68 OFFCURVE",
"292 42 CURVE SMOOTH",
"302 26 OFFCURVE",
"359 -2 OFFCURVE",
"409 -1 CURVE"
);
}
);
width = 507;
},
{
anchors = (
{
name = bottom;
position = "{230, 0}";
},
{
name = ogonek;
position = "{418, 10}";
},
{
name = top;
position = "{228, 480}";
}
);
background = {
components = (
{
name = n;
transform = "{-1, 0, 0, -1, 539, 480}";
}
);
};
guideLines = (
{
angle = 90;
position = "{37, 179}";
},
{
position = "{141, 21}";
},
{
position = "{159, 71}";
}
);
layerId = "11343128-4963-4E5D-BE9C-B74F53B36FA5";
name = Bold;
paths = (
{
closed = 1;
nodes = (
"64 309 LINE",
"82 310 OFFCURVE",
"110 317 OFFCURVE",
"130 324 CURVE",
"137 374 LINE",
"148 381 OFFCURVE",
"230 405 OFFCURVE",
"255 405 CURVE",
"279 390 OFFCURVE",
"283 320 OFFCURVE",
"283 252 CURVE SMOOTH",
"283 68 OFFCURVE",
"272 51 OFFCURVE",
"301 0 CURVE",
"377 -16 OFFCURVE",
"435 8 OFFCURVE",
"455 21 CURVE",
"447 71 LINE",
"399 71 LINE",
"393 131 OFFCURVE",
"395 289 OFFCURVE",
"396 361 CURVE SMOOTH",
"397 437 OFFCURVE",
"338 491 OFFCURVE",
"248 492 CURVE SMOOTH",
"141 493 OFFCURVE",
"84 468 OFFCURVE",
"53 452 CURVE"
);
},
{
closed = 1;
nodes = (
"271 117 OFFCURVE",
"211 93 OFFCURVE",
"181 89 CURVE",
"157 107 OFFCURVE",
"154 158 OFFCURVE",
"162 187 CURVE",
"186 199 OFFCURVE",
"219 206 OFFCURVE",
"298 225 CURVE",
"299 290 LINE",
"202 265 OFFCURVE",
"174 259 OFFCURVE",
"132 249 CURVE SMOOTH",
"-58 204 OFFCURVE",
"40 -6 OFFCURVE",
"130 -8 CURVE",
"175 4 OFFCURVE",
"264 46 OFFCURVE",
"316 93 CURVE",
"300 134 LINE"
);
}
);
width = 471;
}
);
leftKerningGroup = o;
leftMetricsKey = o;
rightKerningGroup = i;
unicode = 0061;
},
{
glyphname = ae;
lastChange = "2016-10-21 14:13:11 +0000";
layers = (
{
anchors = (
{
name = bottom;
position = "{462, 0}";
},
{
name = ogonek;
position = "{627, 10}";
},
{
name = top;
position = "{512, 480}";
}
);
layerId = "71FD7A9F-05F5-4D76-8D4F-547475A05E4C";
name = "Bold Italic";
paths = (
{
closed = 1;
nodes = (
"463 83 OFFCURVE",
"443 125 OFFCURVE",
"434 173 CURVE",
"597 156 OFFCURVE",
"711 260 OFFCURVE",
"677 393 CURVE SMOOTH",
"665 441 OFFCURVE",
"627 486 OFFCURVE",
"517 486 CURVE",
"460 475 OFFCURVE",
"416 451 OFFCURVE",
"384 418 CURVE",
"342 463 OFFCURVE",
"271 483 OFFCURVE",
"205 483 CURVE",
"31 433 OFFCURVE",
"-24 171 OFFCURVE",
"77 41 CURVE SMOOTH",
"108 1 OFFCURVE",
"141 -3 OFFCURVE",
"179 -3 CURVE",
"269 71 OFFCURVE",
"306 128 OFFCURVE",
"314 134 CURVE",
"342 9 OFFCURVE",
"418 -39 OFFCURVE",
"569 8 CURVE SMOOTH",
"614 22 OFFCURVE",
"637 43 OFFCURVE",
"646 53 CURVE",
"639 100 LINE",
"624 87 OFFCURVE",
"550 68 OFFCURVE",
"508 75 CURVE SMOOTH"
);
},
{
closed = 1;
nodes = (
"549 394 OFFCURVE",
"567 347 OFFCURVE",
"574 304 CURVE",
"571 287 OFFCURVE",
"505 221 OFFCURVE",
"427 229 CURVE",
"430 275 OFFCURVE",
"432 296 OFFCURVE",
"440 324 CURVE SMOOTH",
"451 363 OFFCURVE",
"473 395 OFFCURVE",
"505 416 CURVE"
);
},
{
closed = 1;
nodes = (
"197 110 OFFCURVE",
"184 121 OFFCURVE",
"174 144 CURVE SMOOTH",
"135 239 OFFCURVE",
"151 371 OFFCURVE",
"221 414 CURVE",
"260 414 OFFCURVE",
"305 373 OFFCURVE",
"328 340 CURVE",
"328 339 OFFCURVE",
"314 243 OFFCURVE",
"314 243 CURVE",
"286 193 OFFCURVE",
"242 138 OFFCURVE",
"204 110 CURVE"
);
}
);
width = 701;
},
{
anchors = (
{
name = bottom;
position = "{694, 0}";
},
{
name = ogonek;
position = "{871, 10}";
},
{
name = top;
position = "{694, 480}";
}
);
background = {
components = (
{
name = e;
}
);
};
layerId = "11343128-4963-4E5D-BE9C-B74F53B36FA5";
name = Bold;
paths = (
{
closed = 1;
nodes = (
"415 144 OFFCURVE",
"399 186 OFFCURVE",
"400 237 CURVE SMOOTH",
"401 310 OFFCURVE",
"427 381 OFFCURVE",
"472 405 CURVE",
"537 403 OFFCURVE",
"571 311 OFFCURVE",
"559 289 CURVE",
"533 278 OFFCURVE",
"423 265 OFFCURVE",
"379 271 CURVE",
"381 200 LINE",
"462 201 OFFCURVE",
"601 216 OFFCURVE",
"668 248 CURVE",
"709 399 OFFCURVE",
"586 525 OFFCURVE",
"431 472 CURVE SMOOTH",
"329 437 OFFCURVE",
"295 335 OFFCURVE",
"292 235 CURVE SMOOTH",
"290 155 OFFCURVE",
"284 105 OFFCURVE",
"345 42 CURVE SMOOTH",
"402 -17 OFFCURVE",
"556 -37 OFFCURVE",
"677 43 CURVE",
"660 97 LINE",
"547 47 OFFCURVE",
"480 63 OFFCURVE",
"438 115 CURVE SMOOTH"
);
},
{
closed = 1;
nodes = (
"64 306 LINE",
"82 307 OFFCURVE",
"109 311 OFFCURVE",
"129 318 CURVE",
"136 368 LINE",
"147 375 OFFCURVE",
"215 402 OFFCURVE",
"240 402 CURVE",
"320 380 OFFCURVE",
"273 145 OFFCURVE",
"294 88 CURVE",
"367 77 OFFCURVE",
"439 11 OFFCURVE",
"459 21 CURVE",
"451 71 LINE",
"398 71 LINE",
"375 131 OFFCURVE",
"378 273 OFFCURVE",
"379 345 CURVE SMOOTH",
"380 421 OFFCURVE",
"331 488 OFFCURVE",
"241 489 CURVE SMOOTH",
"145 490 OFFCURVE",
"82 464 OFFCURVE",
"53 446 CURVE"
);
},
{
closed = 1;
nodes = (
"275 127 OFFCURVE",
"200 86 OFFCURVE",
"161 85 CURVE",
"134 101 OFFCURVE",
"134 158 OFFCURVE",
"144 182 CURVE",
"168 194 OFFCURVE",
"258 216 OFFCURVE",
"301 215 CURVE",
"302 298 LINE",
"207 272 OFFCURVE",
"97 245 OFFCURVE",
"55 216 CURVE",
"30 192 OFFCURVE",
"16 128 OFFCURVE",
"26 80 CURVE SMOOTH",
"34 42 OFFCURVE",
"59 3 OFFCURVE",
"123 -6 CURVE",
"171 1 OFFCURVE",
"295 73 OFFCURVE",
"320 95 CURVE",
"304 144 LINE"
);
}
);
width = 700;
}
);
leftKerningGroup = o;
leftMetricsKey = a;
rightKerningGroup = o;
rightMetricsKey = e;
unicode = 00E6;
},
{
glyphname = b;
lastChange = "2016-10-21 14:13:11 +0000";
layers = (
{
anchors = (
{
name = bottom;
position = "{210, 0}";
},
{
name = top;
position = "{260, 480}";
}
);
background = {
paths = (
{
closed = 1;
nodes = (
"352 483 LINE",
"272 437 OFFCURVE",
"201 307 OFFCURVE",
"180 276 CURVE",
"203 457 OFFCURVE",
"246 689 OFFCURVE",
"225 708 CURVE SMOOTH",
"213 719 OFFCURVE",
"83 747 OFFCURVE",
"63 740 CURVE",
"53 698 LINE",
"95 668 LINE",
"98 619 OFFCURVE",
"91 479 OFFCURVE",
"76 353 CURVE SMOOTH",
"60 217 OFFCURVE",
"35 43 OFFCURVE",
"33 32 CURVE",
"33 20 OFFCURVE",
"110 -5 OFFCURVE",
"158 -5 CURVE SMOOTH",
"173 -5 OFFCURVE",
"175 41 OFFCURVE",
"168 132 CURVE",
"210 236 OFFCURVE",
"290 334 OFFCURVE",
"318 360 CURVE",
"290 255 OFFCURVE",
"270 75 OFFCURVE",
"289 44 CURVE SMOOTH",
"299 28 OFFCURVE",
"351 -2 OFFCURVE",
"405 -2 CURVE",
"437 7 OFFCURVE",
"456 17 OFFCURVE",
"468 25 CURVE",
"464 70 LINE",
"450 65 OFFCURVE",
"429 59 OFFCURVE",
"414 59 CURVE",
"394 124 OFFCURVE",
"435 371 OFFCURVE",
"455 444 CURVE"
);
}
);
};
guideLines = (
{
angle = -12;
position = "{181, 724}";
},
{
angle = -20;
position = "{19, -2}";
}
);
layerId = "71FD7A9F-05F5-4D76-8D4F-547475A05E4C";
name = "Bold Italic";
paths = (
{
closed = 1;
nodes = (
"367 482 OFFCURVE",
"343 484 OFFCURVE",
"304 482 CURVE",
"271 457 OFFCURVE",
"214 390 OFFCURVE",
"190 356 CURVE",
"219 552 OFFCURVE",
"239 685 OFFCURVE",
"226 706 CURVE SMOOTH",
"218 719 OFFCURVE",
"76 747 OFFCURVE",
"63 740 CURVE",
"53 698 LINE",
"60 694 OFFCURVE",
"82 679 OFFCURVE",
"96 667 CURVE",
"98 648 OFFCURVE",
"97 606 OFFCURVE",
"95 569 CURVE SMOOTH",
"83 376 OFFCURVE",
"63 172 OFFCURVE",
"43 56 CURVE",
"84 5 OFFCURVE",
"192 -19 OFFCURVE",
"282 -4 CURVE",
"458 45 OFFCURVE",
"507 314 OFFCURVE",
"399 444 CURVE SMOOTH"
);
},
{
closed = 1;
nodes = (
"225 73 OFFCURVE",
"182 100 OFFCURVE",
"162 127 CURVE",
"164 150 OFFCURVE",
"166 197 OFFCURVE",
"173 232 CURVE",
"206 290 OFFCURVE",
"263 347 OFFCURVE",
"281 364 CURVE",
"288 364 OFFCURVE",
"304 354 OFFCURVE",
"313 329 CURVE SMOOTH",
"343 247 OFFCURVE",
"341 106 OFFCURVE",
"262 63 CURVE"
);
}
);
width = 483;
},
{
anchors = (
{
name = bottom;
position = "{256, 0}";
},
{
name = top;
position = "{256, 480}";
}
);
background = {
components = (
{
name = h;
}
);
};
layerId = "11343128-4963-4E5D-BE9C-B74F53B36FA5";
name = Bold;
paths = (
{
closed = 1;
nodes = (
"192 81 OFFCURVE",
"196 182 OFFCURVE",
"196 329 CURVE SMOOTH",
"196 491 OFFCURVE",
"203 709 OFFCURVE",
"193 740 CURVE",
"174 745 OFFCURVE",
"98 749 OFFCURVE",
"8 716 CURVE",
"17 665 LINE",
"62 665 LINE",
"101 584 OFFCURVE",
"72 59 OFFCURVE",
"71 37 CURVE",
"75 30 OFFCURVE",
"131 29 OFFCURVE",
"152 27 CURVE",
"157 40 OFFCURVE",
"160 51 OFFCURVE",
"178 84 CURVE",
"188 89 OFFCURVE",
"189 62 OFFCURVE",
"202 40 CURVE"
);
},
{
closed = 1;
nodes = (
"407 454 OFFCURVE",
"365 483 OFFCURVE",
"306 483 CURVE",
"271 474 OFFCURVE",
"189 438 OFFCURVE",
"156 413 CURVE",
"114 293 OFFCURVE",
"80 82 OFFCURVE",
"71 37 CURVE",
"112 2 OFFCURVE",
"235 -15 OFFCURVE",
"300 -2 CURVE SMOOTH",
"508 39 OFFCURVE",
"532 334 OFFCURVE",
"427 435 CURVE SMOOTH"
);
},
{
closed = 1;
nodes = (
"252 73 OFFCURVE",
"200 85 OFFCURVE",
"178 134 CURVE SMOOTH",
"154 188 OFFCURVE",
"160 303 OFFCURVE",
"176 357 CURVE",
"187 364 OFFCURVE",
"244 388 OFFCURVE",
"295 388 CURVE",
"310 383 OFFCURVE",
"325 372 OFFCURVE",
"340 342 CURVE SMOOTH",
"382 258 OFFCURVE",
"370 119 OFFCURVE",
"295 73 CURVE"
);
}
);
width = 511;
}
);
leftKerningGroup = l;
rightKerningGroup = o;
rightMetricsKey = o;
unicode = 0062;
},
{
glyphname = c;
lastChange = "2016-10-21 14:27:42 +0000";
layers = (
{
anchors = (
{
name = bottom;
position = "{202, 0}";
},
{
name = top;
position = "{234, 484}";
}
);
background = {
components = (
{
name = e;
}
);
};
layerId = "71FD7A9F-05F5-4D76-8D4F-547475A05E4C";
name = "Bold Italic";
paths = (
{
closed = 1;
nodes = (
"304 354 OFFCURVE",
"249 384 OFFCURVE",
"217 396 CURVE",
"146 336 OFFCURVE",
"139 209 OFFCURVE",
"175 145 CURVE SMOOTH",
"212 79 OFFCURVE",
"283 57 OFFCURVE",
"364 98 CURVE",
"370 48 LINE",
"342 28 OFFCURVE",
"310 5 OFFCURVE",
"231 -2 CURVE SMOOTH",
"165 -6 OFFCURVE",
"121 14 OFFCURVE",
"80 57 CURVE SMOOTH",
"-25 167 OFFCURVE",
"25 445 OFFCURVE",
"231 478 CURVE SMOOTH",
"299 489 OFFCURVE",
"362 472 OFFCURVE",
"397 432 CURVE",
"386 396 OFFCURVE",
"365 346 OFFCURVE",
"348 323 CURVE"
);
}
);
width = 405;
},
{
anchors = (
{
name = bottom;
position = "{205, 0}";
},
{
name = top;
position = "{230, 480}";
}
);
background = {
components = (
{
name = e;
}
);
};
guideLines = (
{
position = "{145, 38}";
},
{
position = "{163, 88}";
}
);
layerId = "11343128-4963-4E5D-BE9C-B74F53B36FA5";
name = Bold;
paths = (
{
closed = 1;
nodes = (
"232 403 OFFCURVE",
"281 390 OFFCURVE",
"308 369 CURVE",
"311 354 OFFCURVE",
"316 312 OFFCURVE",
"319 306 CURVE",
"333 305 OFFCURVE",
"357 310 OFFCURVE",
"388 321 CURVE",
"389 342 OFFCURVE",
"392 416 OFFCURVE",
"392 447 CURVE",
"363 470 OFFCURVE",
"272 504 OFFCURVE",
"182 473 CURVE SMOOTH",
"-2 410 OFFCURVE",
"-20 133 OFFCURVE",
"95 35 CURVE SMOOTH",
"149 -11 OFFCURVE",
"279 -36 OFFCURVE",
"401 38 CURVE",
"384 88 LINE",
"275 54 OFFCURVE",
"198 76 OFFCURVE",
"166 146 CURVE SMOOTH",
"126 234 OFFCURVE",
"147 365 OFFCURVE",
"214 403 CURVE"
);
}
);
width = 411;
}
);
leftKerningGroup = o;
leftMetricsKey = o;
rightKerningGroup = z;
unicode = 0063;
},
{
glyphname = d;
lastChange = "2016-10-21 14:13:11 +0000";
layers = (
{
anchors = (
{
name = bottom;
position = "{235, 0}";
},
{
name = center;
position = "{112, 260}";
},
{
name = top;
position = "{285, 480}";
},
{
name = topright;
position = "{516, 480}";
}
);
background = {
components = (
{
name = h;
transform = "{1, 0, 0, 1, 251, 0}";
}
);
};
guideLines = (
{
position = "{319, 410}";
},
{
angle = -18;
position = "{518, 111}";
},
{
position = "{1186, 374}";
}
);
layerId = "71FD7A9F-05F5-4D76-8D4F-547475A05E4C";
name = "Bold Italic";
paths = (
{
closed = 1;
nodes = (
"142 0 OFFCURVE",
"112 2 OFFCURVE",
"80 41 CURVE SMOOTH",
"-26 171 OFFCURVE",
"30 434 OFFCURVE",
"204 484 CURVE",
"281 488 OFFCURVE",
"362 456 OFFCURVE",
"393 415 CURVE",
"393 359 OFFCURVE",
"338 328 OFFCURVE",
"338 328 CURVE",
"323 364 OFFCURVE",
"271 410 OFFCURVE",
"224 417 CURVE",
"149 374 OFFCURVE",
"142 240 OFFCURVE",
"169 160 CURVE SMOOTH",
"179 130 OFFCURVE",
"198 111 OFFCURVE",
"205 111 CURVE",
"224 128 OFFCURVE",
"301 216 OFFCURVE",
"319 261 CURVE",
"338 254 OFFCURVE",
"320 167 OFFCURVE",
"320 167 CURVE",
"313 159 OFFCURVE",
"257 63 OFFCURVE",
"180 0 CURVE"
);
},
{
closed = 1;
nodes = (
"361 -2 OFFCURVE",
"310 34 OFFCURVE",
"302 40 CURVE SMOOTH",
"279 58 OFFCURVE",
"315 235 OFFCURVE",
"328 326 CURVE SMOOTH",
"344 442 OFFCURVE",
"358 606 OFFCURVE",
"355 667 CURVE",
"339 679 OFFCURVE",
"329 687 OFFCURVE",
"313 697 CURVE",
"323 740 LINE",
"338 748 OFFCURVE",
"472 717 OFFCURVE",
"479 707 CURVE SMOOTH",
"494 684 OFFCURVE",
"466 521 OFFCURVE",
"453 432 CURVE SMOOTH",
"429 265 OFFCURVE",
"401 88 OFFCURVE",
"424 62 CURVE",
"435 62 OFFCURVE",
"460 69 OFFCURVE",
"475 74 CURVE",
"479 28 LINE",
"461 15 OFFCURVE",
"441 5 OFFCURVE",
"416 -2 CURVE"
);
}
);
width = 506;
},
{
anchors = (
{
name = bottom;
position = "{259, 0}";
},
{
name = center;
position = "{102, 240}";
},
{
name = top;
position = "{259, 480}";
},
{
name = topright;
position = "{495, 480}";
}
);
background = {
components = (
{
name = o;
}
);
};
guideLines = (
{
position = "{147, 21}";
},
{
position = "{165, 71}";
},
{
position = "{147, 407}";
},
{
position = "{165, 457}";
}
);
layerId = "11343128-4963-4E5D-BE9C-B74F53B36FA5";
name = Bold;
paths = (
{
closed = 1;
nodes = (
"106 25 OFFCURVE",
"148 -5 OFFCURVE",
"207 -5 CURVE",
"242 4 OFFCURVE",
"318 50 OFFCURVE",
"351 82 CURVE",
"393 202 OFFCURVE",
"350 393 OFFCURVE",
"359 438 CURVE",
"333 466 OFFCURVE",
"277 490 OFFCURVE",
"212 483 CURVE",
"78 458 OFFCURVE",
"15 343 OFFCURVE",
"23 210 CURVE SMOOTH",
"27 145 OFFCURVE",
"49 80 OFFCURVE",
"86 44 CURVE SMOOTH"
);
},
{
closed = 1;
nodes = (
"260 408 OFFCURVE",
"318 389 OFFCURVE",
"333 340 CURVE SMOOTH",
"350 286 OFFCURVE",
"352 188 OFFCURVE",
"336 134 CURVE",
"325 127 OFFCURVE",
"269 94 OFFCURVE",
"218 89 CURVE",
"203 94 OFFCURVE",
"187 109 OFFCURVE",
"172 139 CURVE SMOOTH",
"130 223 OFFCURVE",
"142 362 OFFCURVE",
"217 408 CURVE"
);
},
{
closed = 1;
nodes = (
"446 71 LINE",
"440 121 OFFCURVE",
"440 178 OFFCURVE",
"440 374 CURVE SMOOTH",
"440 531 OFFCURVE",
"443 711 OFFCURVE",
"434 740 CURVE",
"414 746 OFFCURVE",
"337 750 OFFCURVE",
"247 716 CURVE",
"256 665 LINE",
"315 665 LINE",
"325 537 OFFCURVE",
"322 351 OFFCURVE",
"322 157 CURVE SMOOTH",
"322 60 OFFCURVE",
"335 20 OFFCURVE",
"351 2 CURVE",
"413 -16 OFFCURVE",
"490 8 OFFCURVE",
"509 21 CURVE",
"500 71 LINE"
);
}
);
width = 515;
}
);
leftKerningGroup = o;
leftMetricsKey = o;
rightKerningGroup = i;
unicode = 0064;
},
{
glyphname = eth;
lastChange = "2016-10-21 14:13:11 +0000";
layers = (
{
components = (
{
name = d;
}
);
layerId = "71FD7A9F-05F5-4D76-8D4F-547475A05E4C";
name = "Bold Italic";
paths = (
{
closed = 1;
nodes = (
"368 596 OFFCURVE",
"459 596 OFFCURVE",
"554 598 CURVE",
"550 538 LINE",
"456 540 OFFCURVE",
"361 540 OFFCURVE",
"267 538 CURVE",
"273 598 LINE"
);
}
);
width = 524;
},
{
components = (
{
name = d;
}
);
layerId = "11343128-4963-4E5D-BE9C-B74F53B36FA5";
name = Bold;
paths = (
{
closed = 1;
nodes = (
"228 538 LINE",
"322 540 OFFCURVE",
"417 540 OFFCURVE",
"511 538 CURVE",
"511 598 LINE",
"416 596 OFFCURVE",
"325 596 OFFCURVE",
"230 598 CURVE"
);
}
);
width = 517;
}
);
leftKerningGroup = o;
leftMetricsKey = o;
rightKerningGroup = i;
rightMetricsKey = "=d";
unicode = 00F0;
},
{
glyphname = e;
lastChange = "2016-10-21 14:21:55 +0000";
layers = (
{
anchors = (
{
name = bottom;
position = "{198, 0}";
},
{
name = ogonek;
position = "{345, 10}";
},
{
name = top;
position = "{248, 480}";
}
);
background = {
components = (
{
name = o;
transform = "{1, 0, 0, 1, 11, 0}";
}
);
};
layerId = "71FD7A9F-05F5-4D76-8D4F-547475A05E4C";
name = "Bold Italic";
paths = (
{
closed = 1;
nodes = (
"308 297 OFFCURVE",
"255 237 OFFCURVE",
"157 237 CURVE",
"108 214 OFFCURVE",
"91 214 OFFCURVE",
"154 182 CURVE",
"333 159 OFFCURVE",
"458 255 OFFCURVE",
"421 391 CURVE SMOOTH",
"409 439 OFFCURVE",
"371 484 OFFCURVE",
"255 484 CURVE",
"19 443 OFFCURVE",
"-28 167 OFFCURVE",
"86 51 CURVE SMOOTH",
"150 -15 OFFCURVE",
"249 -10 OFFCURVE",
"310 8 CURVE SMOOTH",
"358 22 OFFCURVE",
"381 40 OFFCURVE",
"391 50 CURVE",
"383 101 LINE",
"368 88 OFFCURVE",
"305 70 OFFCURVE",
"261 77 CURVE SMOOTH",
"224 83 OFFCURVE",
"195 105 OFFCURVE",
"177 144 CURVE SMOOTH",
"145 216 OFFCURVE",
"158 360 OFFCURVE",
"247 414 CURVE",
"293 393 OFFCURVE",
"312 344 OFFCURVE",
"312 314 CURVE"
);
}
);
width = 445;
},
{
anchors = (
{
name = bottom;
position = "{224, 0}";
},
{
name = ogonek;
position = "{401, 10}";
},
{
name = top;
position = "{224, 480}";
}
);
background = {
components = (
{
name = o;
}
);
};
layerId = "11343128-4963-4E5D-BE9C-B74F53B36FA5";
name = Bold;
paths = (
{
closed = 1;
nodes = (
"127 232 OFFCURVE",
"151 375 OFFCURVE",
"215 409 CURVE",
"282 407 OFFCURVE",
"299 335 OFFCURVE",
"300 304 CURVE",
"274 298 OFFCURVE",
"187 294 OFFCURVE",
"126 297 CURVE",
"127 236 LINE",
"418 242 LINE",
"462 415 OFFCURVE",
"346 530 OFFCURVE",
"176 475 CURVE SMOOTH",
"-8 416 OFFCURVE",
"-17 128 OFFCURVE",
"101 31 CURVE SMOOTH",
"158 -16 OFFCURVE",
"296 -38 OFFCURVE",
"417 43 CURVE",
"400 97 LINE",
"287 47 OFFCURVE",
"201 75 OFFCURVE",
"168 145 CURVE SMOOTH"
);
}
);
width = 448;
}
);
leftKerningGroup = o;
leftMetricsKey = o;
rightKerningGroup = o;
rightMetricsKey = "=o";
unicode = 0065;
},
{
glyphname = f;
lastChange = "2016-10-18 15:42:10 +0000";
layers = (
{
anchors = (
{
name = bottom;
position = "{116, 0}";
},
{
name = top;
position = "{166, 480}";
}
);
background = {
paths = (
{
closed = 1;
nodes = (
"109 -217 OFFCURVE",
"137 -133 OFFCURVE",
"153 13 CURVE SMOOTH",
"161 87 OFFCURVE",
"189 343 OFFCURVE",
"193 390 CURVE",
"224 594 OFFCURVE",
"247 638 OFFCURVE",
"278 679 CURVE",
"290 679 OFFCURVE",
"318 671 OFFCURVE",
"342 657 CURVE",
"359 701 LINE",
"335 721 OFFCURVE",
"297 737 OFFCURVE",
"263 743 CURVE",
"156 717 OFFCURVE",
"107 654 OFFCURVE",
"93 494 CURVE SMOOTH",
"57 90 LINE",
"31 -114 OFFCURVE",
"11 -165 OFFCURVE",
"-4 -185 CURVE",
"-18 -183 OFFCURVE",
"-69 -136 OFFCURVE",
"-106 -106 CURVE",
"-128 -136 OFFCURVE",
"-142 -173 OFFCURVE",
"-150 -202 CURVE",
"-118 -232 OFFCURVE",
"-61 -248 OFFCURVE",
"0 -247 CURVE"
);
}
);
};
layerId = "71FD7A9F-05F5-4D76-8D4F-547475A05E4C";
name = "Bold Italic";
paths = (
{
closed = 1;
nodes = (
"172 397 LINE",
"220 396 OFFCURVE",
"273 395 OFFCURVE",
"295 395 CURVE SMOOTH",
"306 395 OFFCURVE",
"307 411 OFFCURVE",
"315 475 CURVE",
"266 472 OFFCURVE",
"223 471 OFFCURVE",
"206 470 CURVE",
"109 569 LINE",
"91 488 LINE",
"88 467 OFFCURVE",
"79 465 OFFCURVE",
"49 463 CURVE SMOOTH",
"34 462 LINE",
"27 398 LINE",
"31 398 OFFCURVE",
"75 398 OFFCURVE",
"90 398 CURVE"
);
},
{
closed = 1;
nodes = (
"142 710 OFFCURVE",
"106 626 OFFCURVE",
"90 480 CURVE SMOOTH",
"82 406 OFFCURVE",
"66 261 OFFCURVE",
"51 103 CURVE",
"32 -65 OFFCURVE",
"23 -132 OFFCURVE",
"5 -173 CURVE",
"-23 -164 OFFCURVE",
"-56 -138 OFFCURVE",
"-82 -114 CURVE",
"-100 -146 OFFCURVE",
"-116 -172 OFFCURVE",
"-127 -210 CURVE",
"-107 -240 OFFCURVE",
"-59 -252 OFFCURVE",
"-12 -250 CURVE",
"82 -228 OFFCURVE",
"141 -161 OFFCURVE",
"157 -1 CURVE SMOOTH",
"198 403 LINE",
"222 601 OFFCURVE",
"234 635 OFFCURVE",
"254 665 CURVE",
"268 663 OFFCURVE",
"319 623 OFFCURVE",
"356 593 CURVE",
"374 624 OFFCURVE",
"390 661 OFFCURVE",
"400 695 CURVE",
"368 725 OFFCURVE",
"312 741 OFFCURVE",
"251 740 CURVE"
);
}
);
width = 302;
},
{
anchors = (
{
name = bottom;
position = "{163, 0}";
},
{
name = top;
position = "{163, 480}";
}
);
background = {
components = (
{
name = s;
}
);
};
layerId = "11343128-4963-4E5D-BE9C-B74F53B36FA5";
name = Bold;
paths = (
{
closed = 1;
nodes = (
"166 401 LINE",
"214 400 OFFCURVE",
"267 399 OFFCURVE",
"289 399 CURVE SMOOTH",
"300 399 OFFCURVE",
"299 415 OFFCURVE",
"301 478 CURVE",
"252 475 OFFCURVE",
"209 474 OFFCURVE",
"192 473 CURVE",
"85 572 LINE",
"75 491 LINE",
"74 470 OFFCURVE",
"66 468 OFFCURVE",
"36 466 CURVE SMOOTH",
"19 465 LINE",
"19 402 LINE",
"23 402 OFFCURVE",
"69 402 OFFCURVE",
"84 402 CURVE"
);
},
{
closed = 1;
nodes = (
"18 55 LINE",
"15 0 LINE",
"270 0 LINE",
"274 56 LINE",
"194 66 LINE",
"144 66 LINE"
);
},
{
closed = 1;
nodes = (
"191 127 OFFCURVE",
"191 193 OFFCURVE",
"191 408 CURVE",
"75 408 LINE",
"75 283 OFFCURVE",
"71 124 OFFCURVE",
"71 101 CURVE SMOOTH",
"71 73 OFFCURVE",
"111 59 OFFCURVE",
"132 57 CURVE SMOOTH",
"159 54 OFFCURVE",
"164 47 OFFCURVE",
"199 47 CURVE"
);
},
{
closed = 1;
nodes = (
"190 363 LINE",
"190 553 OFFCURVE",
"193 633 OFFCURVE",
"209 663 CURVE",
"231 660 OFFCURVE",
"280 648 OFFCURVE",
"319 610 CURVE",
"334 641 OFFCURVE",
"358 676 OFFCURVE",
"365 710 CURVE",
"343 729 OFFCURVE",
"254 756 OFFCURVE",
"198 740 CURVE SMOOTH",
"102 712 OFFCURVE",
"73 617 OFFCURVE",
"75 458 CURVE"
);
},
{
closed = 1;
nodes = (
"290 623 OFFCURVE",
"293 602 OFFCURVE",
"296 576 CURVE",
"304 576 OFFCURVE",
"345 582 OFFCURVE",
"357 588 CURVE",
"365 710 LINE",
"283 644 LINE"
);
}
);
width = 325;
}
);
leftKerningGroup = f;
rightKerningGroup = f;
unicode = 0066;
},
{
glyphname = f.alt;
lastChange = "2016-10-18 15:59:16 +0000";
layers = (
{
anchors = (
{
name = bottom;
position = "{116, 0}";
},
{
name = top;
position = "{166, 480}";
}
);
background = {
paths = (
{
closed = 1;
nodes = (
"108 -218 OFFCURVE",
"144 -134 OFFCURVE",
"160 12 CURVE SMOOTH",
"168 86 OFFCURVE",
"184 231 OFFCURVE",
"199 389 CURVE",
"218 557 OFFCURVE",
"224 615 OFFCURVE",
"242 656 CURVE",
"261 656 OFFCURVE",
"273 656 OFFCURVE",
"294 656 CURVE",
"313 728 LINE",
"297 740 OFFCURVE",
"274 743 OFFCURVE",
"254 742 CURVE",
"160 720 OFFCURVE",
"109 653 OFFCURVE",
"93 493 CURVE SMOOTH",
"52 89 LINE",
"28 -109 OFFCURVE",
"16 -143 OFFCURVE",
"-4 -173 CURVE",
"-18 -171 OFFCURVE",
"-69 -131 OFFCURVE",
"-106 -101 CURVE",
"-124 -132 OFFCURVE",
"-140 -169 OFFCURVE",
"-150 -203 CURVE",
"-118 -233 OFFCURVE",
"-62 -249 OFFCURVE",
"-1 -248 CURVE"
);
}
);
};
layerId = "71FD7A9F-05F5-4D76-8D4F-547475A05E4C";
name = "Bold Italic";
paths = (
{
closed = 1;
nodes = (
"172 397 LINE",
"220 396 OFFCURVE",
"273 395 OFFCURVE",
"295 395 CURVE SMOOTH",
"306 395 OFFCURVE",
"307 411 OFFCURVE",
"315 475 CURVE",
"266 472 OFFCURVE",
"223 471 OFFCURVE",
"206 470 CURVE",
"109 569 LINE",
"91 488 LINE",
"88 467 OFFCURVE",
"79 465 OFFCURVE",
"49 463 CURVE SMOOTH",
"34 462 LINE",
"27 398 LINE",
"31 398 OFFCURVE",
"75 398 OFFCURVE",
"90 398 CURVE"
);
},
{
closed = 1;
nodes = (
"142 712 OFFCURVE",
"106 626 OFFCURVE",
"90 480 CURVE SMOOTH",
"82 406 OFFCURVE",
"66 261 OFFCURVE",
"51 103 CURVE",
"32 -65 OFFCURVE",
"23 -132 OFFCURVE",
"5 -173 CURVE",
"-23 -164 OFFCURVE",
"-56 -138 OFFCURVE",
"-82 -114 CURVE",
"-100 -146 OFFCURVE",
"-116 -172 OFFCURVE",
"-127 -210 CURVE",
"-107 -240 OFFCURVE",
"-59 -252 OFFCURVE",
"-12 -250 CURVE",
"82 -228 OFFCURVE",
"141 -161 OFFCURVE",
"157 -1 CURVE SMOOTH",
"198 403 LINE",
"222 601 OFFCURVE",
"228 626 OFFCURVE",
"242 656 CURVE",
"257 656 OFFCURVE",
"284 655 OFFCURVE",
"310 655 CURVE",
"317 680 OFFCURVE",
"319 686 OFFCURVE",
"329 724 CURVE",
"309 735 OFFCURVE",
"278 743 OFFCURVE",
"251 742 CURVE"
);
}
);
width = 272;
},
{
anchors = (
{
name = bottom;
position = "{163, 0}";
},
{
name = top;
position = "{163, 480}";
}
);
background = {
components = (
{
name = s;
}
);
};
layerId = "11343128-4963-4E5D-BE9C-B74F53B36FA5";
name = Bold;
paths = (
{
closed = 1;
nodes = (
"166 401 LINE",
"214 400 OFFCURVE",
"267 399 OFFCURVE",
"289 399 CURVE SMOOTH",
"300 399 OFFCURVE",
"299 415 OFFCURVE",
"301 478 CURVE",
"252 475 OFFCURVE",
"209 474 OFFCURVE",
"192 473 CURVE",
"85 572 LINE",
"75 491 LINE",
"74 470 OFFCURVE",
"66 468 OFFCURVE",
"36 466 CURVE SMOOTH",
"19 465 LINE",
"19 402 LINE",
"23 402 OFFCURVE",
"69 402 OFFCURVE",
"84 402 CURVE"
);
},
{
closed = 1;
nodes = (
"18 55 LINE",
"15 0 LINE",
"270 0 LINE",
"274 56 LINE",
"194 66 LINE",
"144 66 LINE"
);
},
{
closed = 1;
nodes = (
"191 127 OFFCURVE",
"191 193 OFFCURVE",
"191 408 CURVE",
"75 408 LINE",
"75 283 OFFCURVE",
"71 124 OFFCURVE",
"71 101 CURVE SMOOTH",
"71 73 OFFCURVE",
"111 59 OFFCURVE",
"132 57 CURVE SMOOTH",
"159 54 OFFCURVE",
"164 47 OFFCURVE",
"199 47 CURVE"
);
},
{
closed = 1;
nodes = (
"190 363 LINE",
"190 553 OFFCURVE",
"189 630 OFFCURVE",
"205 660 CURVE",
"227 660 OFFCURVE",
"245 660 OFFCURVE",
"285 660 CURVE",
"299 688 OFFCURVE",
"304 698 OFFCURVE",
"316 723 CURVE",
"296 749 OFFCURVE",
"232 757 OFFCURVE",
"186 736 CURVE SMOOTH",
"96 695 OFFCURVE",
"73 617 OFFCURVE",
"75 458 CURVE"
);
}
);
width = 325;
}
);
leftKerningGroup = f;
rightKerningGroup = f;
},
{
glyphname = f.alt2;
lastChange = "2016-10-18 15:57:10 +0000";
layers = (
{
anchors = (
{
name = bottom;
position = "{116, 0}";
},
{
name = top;
position = "{166, 480}";
}
);
background = {
paths = (
{
closed = 1;
nodes = (
"109 -217 OFFCURVE",
"137 -133 OFFCURVE",
"153 13 CURVE SMOOTH",
"161 87 OFFCURVE",
"189 343 OFFCURVE",
"193 390 CURVE",
"224 594 OFFCURVE",
"247 638 OFFCURVE",
"278 679 CURVE",
"290 679 OFFCURVE",
"318 671 OFFCURVE",
"342 657 CURVE",
"359 701 LINE",
"335 721 OFFCURVE",
"297 737 OFFCURVE",
"263 743 CURVE",
"156 717 OFFCURVE",
"107 654 OFFCURVE",
"93 494 CURVE SMOOTH",
"57 90 LINE",
"31 -114 OFFCURVE",
"11 -165 OFFCURVE",
"-4 -185 CURVE",
"-18 -183 OFFCURVE",
"-69 -136 OFFCURVE",
"-106 -106 CURVE",
"-128 -136 OFFCURVE",
"-142 -173 OFFCURVE",
"-150 -202 CURVE",
"-118 -232 OFFCURVE",
"-61 -248 OFFCURVE",
"0 -247 CURVE"
);
}
);
};
layerId = "71FD7A9F-05F5-4D76-8D4F-547475A05E4C";
name = "Bold Italic";
paths = (
{
closed = 1;
nodes = (
"172 397 LINE",
"220 396 OFFCURVE",
"273 395 OFFCURVE",
"295 395 CURVE SMOOTH",
"306 395 OFFCURVE",
"307 411 OFFCURVE",
"315 475 CURVE",
"266 472 OFFCURVE",
"223 471 OFFCURVE",
"206 470 CURVE",
"109 569 LINE",
"91 488 LINE",
"88 467 OFFCURVE",
"79 465 OFFCURVE",
"49 463 CURVE SMOOTH",
"34 462 LINE",
"27 398 LINE",
"31 398 OFFCURVE",
"75 398 OFFCURVE",
"90 398 CURVE"
);
},
{
closed = 1;
nodes = (
"142 710 OFFCURVE",
"106 626 OFFCURVE",
"90 480 CURVE SMOOTH",
"82 406 OFFCURVE",
"66 261 OFFCURVE",
"51 103 CURVE",
"32 -65 OFFCURVE",
"26 -123 OFFCURVE",
"8 -164 CURVE",
"-11 -164 OFFCURVE",
"-23 -164 OFFCURVE",
"-44 -164 CURVE",
"-61 -236 LINE",
"-45 -248 OFFCURVE",
"-24 -251 OFFCURVE",
"-4 -250 CURVE",
"90 -228 OFFCURVE",
"141 -161 OFFCURVE",
"157 -1 CURVE SMOOTH",
"198 403 LINE",
"222 601 OFFCURVE",
"234 635 OFFCURVE",
"254 665 CURVE",
"268 663 OFFCURVE",
"319 623 OFFCURVE",
"356 593 CURVE",
"374 624 OFFCURVE",
"390 661 OFFCURVE",
"400 695 CURVE",
"368 725 OFFCURVE",
"312 741 OFFCURVE",
"251 740 CURVE"
);
}
);
width = 302;
},
{
anchors = (
{
name = bottom;
position = "{163, 0}";
},
{
name = top;
position = "{163, 480}";
}
);
background = {
components = (
{
name = s;
}
);
};
layerId = "11343128-4963-4E5D-BE9C-B74F53B36FA5";
name = Bold;
paths = (
{
closed = 1;
nodes = (
"166 401 LINE",
"214 400 OFFCURVE",
"267 399 OFFCURVE",
"289 399 CURVE SMOOTH",
"300 399 OFFCURVE",
"299 415 OFFCURVE",
"301 478 CURVE",
"252 475 OFFCURVE",
"209 474 OFFCURVE",
"192 473 CURVE",
"85 572 LINE",
"75 491 LINE",
"74 470 OFFCURVE",
"66 468 OFFCURVE",
"36 466 CURVE SMOOTH",
"19 465 LINE",
"19 402 LINE",
"23 402 OFFCURVE",
"69 402 OFFCURVE",
"84 402 CURVE"
);
},
{
closed = 1;
nodes = (
"18 55 LINE",
"15 0 LINE",
"270 0 LINE",
"274 56 LINE",
"194 66 LINE",
"144 66 LINE"
);
},
{
closed = 1;
nodes = (
"191 127 OFFCURVE",
"191 193 OFFCURVE",
"191 408 CURVE",
"75 408 LINE",
"75 283 OFFCURVE",
"71 124 OFFCURVE",
"71 101 CURVE SMOOTH",
"71 73 OFFCURVE",
"111 59 OFFCURVE",
"132 57 CURVE SMOOTH",
"159 54 OFFCURVE",
"164 47 OFFCURVE",
"199 47 CURVE"
);
},
{
closed = 1;
nodes = (
"190 363 LINE",
"190 553 OFFCURVE",
"193 633 OFFCURVE",
"209 663 CURVE",
"231 660 OFFCURVE",
"280 648 OFFCURVE",
"319 610 CURVE",
"334 641 OFFCURVE",
"358 676 OFFCURVE",
"365 710 CURVE",
"343 729 OFFCURVE",
"254 756 OFFCURVE",
"198 740 CURVE SMOOTH",
"102 712 OFFCURVE",
"73 617 OFFCURVE",
"75 458 CURVE"
);
},
{
closed = 1;
nodes = (
"290 623 OFFCURVE",
"293 602 OFFCURVE",
"296 576 CURVE",
"304 576 OFFCURVE",
"345 582 OFFCURVE",
"357 588 CURVE",
"365 710 LINE",
"283 644 LINE"
);
}
);
width = 325;
}
);
leftKerningGroup = f;
rightKerningGroup = f;
},
{
glyphname = g;
lastChange = "2016-10-21 14:19:59 +0000";
layers = (
{
anchors = (
{
name = bottom;
position = "{209, 0}";
},
{
name = top;
position = "{259, 480}";
}
);
background = {
components = (
{
name = a;
transform = "{1, 0, 0, 1, -9, 0}";
}
);
};
layerId = "71FD7A9F-05F5-4D76-8D4F-547475A05E4C";
name = "Bold Italic";
paths = (
{
closed = 1;
nodes = (
"358 431 LINE",
"315 466 OFFCURVE",
"256 483 OFFCURVE",
"198 483 CURVE",
"19 440 OFFCURVE",
"-40 170 OFFCURVE",
"71 40 CURVE SMOOTH",
"84 25 OFFCURVE",
"108 14 OFFCURVE",
"130 20 CURVE",
"114 6 OFFCURVE",
"70 -36 OFFCURVE",
"46 -55 CURVE SMOOTH",
"22 -74 OFFCURVE",
"-15 -96 OFFCURVE",
"-37 -108 CURVE",
"-34 -156 LINE",
"-26 -166 OFFCURVE",
"-16 -175 OFFCURVE",
"-10 -180 CURVE SMOOTH",
"14 -200 OFFCURVE",
"103 -253 OFFCURVE",
"246 -253 CURVE",
"355 -222 OFFCURVE",
"387 -134 OFFCURVE",
"400 70 CURVE SMOOTH",
"408 207 OFFCURVE",
"426 373 OFFCURVE",
"448 463 CURVE",
"427 469 OFFCURVE",
"405 479 OFFCURVE",
"384 480 CURVE"
);
},
{
closed = 1;
nodes = (
"130 238 OFFCURVE",
"143 372 OFFCURVE",
"212 415 CURVE",
"248 415 OFFCURVE",
"291 368 OFFCURVE",
"311 338 CURVE",
"310 315 OFFCURVE",
"304 266 OFFCURVE",
"301 238 CURVE",
"283 207 OFFCURVE",
"242 147 OFFCURVE",
"202 106 CURVE",
"193 106 OFFCURVE",
"175 120 OFFCURVE",
"167 143 CURVE SMOOTH"
);
},
{
closed = 1;
nodes = (
"135 -53 OFFCURVE",
"181 -10 OFFCURVE",
"285 109 CURVE",
"278 -114 OFFCURVE",
"256 -158 OFFCURVE",
"240 -181 CURVE",
"214 -172 OFFCURVE",
"123 -130 OFFCURVE",
"100 -95 CURVE"
);
}
);
width = 469;
},
{
anchors = (
{
name = bottom;
position = "{261, 0}";
},
{
name = top;
position = "{261, 480}";
}
);
background = {
paths = (
{
closed = 1;
nodes = (
"373 433 LINE",
"327 468 OFFCURVE",
"262 483 OFFCURVE",
"204 483 CURVE",
"35 433 OFFCURVE",
"4 170 OFFCURVE",
"119 40 CURVE SMOOTH",
"132 24 OFFCURVE",
"156 13 OFFCURVE",
"169 13 CURVE",
"155 -1 OFFCURVE",
"122 -34 OFFCURVE",
"100 -54 CURVE SMOOTH",
"81 -71 OFFCURVE",
"43 -95 OFFCURVE",
"23 -108 CURVE",
"30 -156 LINE",
"39 -166 OFFCURVE",
"50 -175 OFFCURVE",
"57 -180 CURVE SMOOTH",
"83 -200 OFFCURVE",
"166 -253 OFFCURVE",
"309 -253 CURVE",
"415 -222 OFFCURVE",
"457 -137 OFFCURVE",
"442 70 CURVE SMOOTH",
"438 134 OFFCURVE",
"439 240 OFFCURVE",
"452 352 CURVE SMOOTH",
"456 383 OFFCURVE",
"459 424 OFFCURVE",
"466 456 CURVE",
"418 479 LINE"
);
},
{
closed = 1;
nodes = (
"156 238 OFFCURVE",
"162 371 OFFCURVE",
"227 414 CURVE",
"263 414 OFFCURVE",
"309 380 OFFCURVE",
"336 349 CURVE",
"336 347 LINE",
"338 324 OFFCURVE",
"337 282 OFFCURVE",
"338 238 CURVE",
"323 210 OFFCURVE",
"260 122 OFFCURVE",
"244 106 CURVE",
"235 106 OFFCURVE",
"217 120 OFFCURVE",
"205 143 CURVE SMOOTH"
);
},
{
closed = 1;
nodes = (
"180 -58 OFFCURVE",
"241 -10 OFFCURVE",
"333 116 CURVE",
"340 -112 OFFCURVE",
"317 -163 OFFCURVE",
"303 -186 CURVE",
"276 -177 OFFCURVE",
"185 -137 OFFCURVE",
"149 -102 CURVE"
);
}
);
};
guideLines = (
{
angle = 90;
position = "{53, 121}";
}
);
layerId = "11343128-4963-4E5D-BE9C-B74F53B36FA5";
name = Bold;
paths = (
{
closed = 1;
nodes = (
"361 472 OFFCURVE",
"302 498 OFFCURVE",
"217 485 CURVE SMOOTH",
"11 452 OFFCURVE",
"-3 237 OFFCURVE",
"104 168 CURVE SMOOTH",
"142 144 OFFCURVE",
"208 133 OFFCURVE",
"268 142 CURVE SMOOTH",
"464 171 OFFCURVE",
"487 380 OFFCURVE",
"388 452 CURVE SMOOTH"
);
},
{
closed = 1;
nodes = (
"230 204 OFFCURVE",
"190 210 OFFCURVE",
"175 245 CURVE SMOOTH",
"148 310 OFFCURVE",
"157 389 OFFCURVE",
"220 416 CURVE",
"254 416 OFFCURVE",
"286 410 OFFCURVE",
"306 380 CURVE SMOOTH",
"345 320 OFFCURVE",
"337 237 OFFCURVE",
"266 204 CURVE"
);
},
{
closed = 1;
nodes = (
"146 153 OFFCURVE",
"94 105 OFFCURVE",
"49 78 CURVE",
"58 34 LINE",
"116 -11 OFFCURVE",
"376 -21 OFFCURVE",
"385 -62 CURVE",
"384 -189 OFFCURVE",
"145 -161 OFFCURVE",
"115 -97 CURVE",
"121 -46 OFFCURVE",
"155 15 OFFCURVE",
"169 38 CURVE",
"132 56 LINE",
"6 -97 LINE",
"-4 -164 OFFCURVE",
"50 -255 OFFCURVE",
"187 -255 CURVE SMOOTH",
"389 -255 OFFCURVE",
"486 -126 OFFCURVE",
"491 -28 CURVE SMOOTH",
"492 14 OFFCURVE",
"470 69 OFFCURVE",
"321 84 CURVE SMOOTH",
"267 89 OFFCURVE",
"190 90 OFFCURVE",
"183 108 CURVE SMOOTH",
"176 126 OFFCURVE",
"214 159 OFFCURVE",
"234 184 CURVE",
"197 211 LINE"
);
},
{
closed = 1;
nodes = (
"467 471 OFFCURVE",
"371 463 OFFCURVE",
"347 458 CURVE",
"370 405 LINE",
"415 402 OFFCURVE",
"451 398 OFFCURVE",
"500 392 CURVE",
"497 416 OFFCURVE",
"491 459 OFFCURVE",
"487 471 CURVE"
);
}
);
width = 505;
}
);
leftKerningGroup = o;
rightKerningGroup = g;
unicode = 0067;
},
{
glyphname = h;
lastChange = "2016-10-21 14:13:11 +0000";
layers = (
{
anchors = (
{
name = bottom;
position = "{241, 0}";
},
{
name = center;
position = "{266, 240}";
},
{
name = top;
position = "{175, 666}";
}
);
background = {
paths = (
{
closed = 1;
nodes = (
"217 -2 OFFCURVE",
"244 37 OFFCURVE",
"260 85 CURVE",
"263 97 OFFCURVE",
"249 99 OFFCURVE",
"233 105 CURVE SMOOTH",
"227 107 OFFCURVE",
"224 104 OFFCURVE",
"221 97 CURVE SMOOTH",
"211 74 OFFCURVE",
"203 64 OFFCURVE",
"195 64 CURVE SMOOTH",
"187 64 OFFCURVE",
"172 81 OFFCURVE",
"171 127 CURVE SMOOTH",
"170 183 OFFCURVE",
"186 300 OFFCURVE",
"203 432 CURVE SMOOTH",
"214 521 OFFCURVE",
"246 675 OFFCURVE",
"233 698 CURVE SMOOTH",
"224 711 OFFCURVE",
"80 746 OFFCURVE",
"68 739 CURVE",
"68 739 OFFCURVE",
"45 702 OFFCURVE",
"63 695 CURVE SMOOTH",
"90 685 OFFCURVE",
"101 637 OFFCURVE",
"99 559 CURVE SMOOTH",
"97 493 OFFCURVE",
"91 442 OFFCURVE",
"76 326 CURVE SMOOTH",
"64 234 OFFCURVE",
"32 54 OFFCURVE",
"56 36 CURVE SMOOTH",
"64 30 OFFCURVE",
"121 -7 OFFCURVE",
"178 -4 CURVE SMOOTH"
);
}
);
};
layerId = "71FD7A9F-05F5-4D76-8D4F-547475A05E4C";
name = "Bold Italic";
paths = (
{
closed = 1;
nodes = (
"372 483 LINE",
"292 437 OFFCURVE",
"217 307 OFFCURVE",
"196 276 CURVE",
"219 457 OFFCURVE",
"262 689 OFFCURVE",
"241 708 CURVE SMOOTH",
"229 719 OFFCURVE",
"99 747 OFFCURVE",
"79 740 CURVE",
"69 698 LINE",
"111 668 LINE",
"114 619 OFFCURVE",
"107 479 OFFCURVE",
"92 353 CURVE SMOOTH",
"76 217 OFFCURVE",
"51 43 OFFCURVE",
"49 32 CURVE",
"49 20 OFFCURVE",
"126 -5 OFFCURVE",
"174 -5 CURVE SMOOTH",
"189 -5 OFFCURVE",
"191 41 OFFCURVE",
"184 132 CURVE",
"226 236 OFFCURVE",
"310 334 OFFCURVE",
"338 360 CURVE",
"310 255 OFFCURVE",
"290 74 OFFCURVE",
"309 43 CURVE SMOOTH",
"319 27 OFFCURVE",
"370 3 OFFCURVE",
"415 -2 CURVE",
"447 2 OFFCURVE",
"476 17 OFFCURVE",
"488 25 CURVE",
"484 70 LINE",
"470 65 OFFCURVE",
"449 59 OFFCURVE",
"434 59 CURVE",
"414 124 OFFCURVE",
"455 371 OFFCURVE",
"475 444 CURVE"
);
}
);
width = 513;
},
{
anchors = (
{
name = bottom;
position = "{284, 0}";
},
{
name = center;
position = "{284, 240}";
},
{
name = top;
position = "{283, 751}";
}
);
background = {
components = (
{
disableAlignment = 1;
name = n;
transform = "{1, 0, 0, 1, -4, -2}";
}
);
};
guideLines = (
{
position = "{265, 666}";
},
{
position = "{283, 716}";
},
{
position = "{160, 21}";
},
{
position = "{178, 71}";
}
);
layerId = "11343128-4963-4E5D-BE9C-B74F53B36FA5";
name = Bold;
paths = (
{
closed = 1;
nodes = (
"188 326 LINE",
"247 363 OFFCURVE",
"304 380 OFFCURVE",
"336 382 CURVE",
"336 71 OFFCURVE",
"335 37 OFFCURVE",
"357 0 CURVE",
"430 -21 OFFCURVE",
"500 6 OFFCURVE",
"526 19 CURVE",
"519 70 LINE",
"467 70 LINE",
"467 140 OFFCURVE",
"469 309 OFFCURVE",
"469 382 CURVE SMOOTH",
"469 431 OFFCURVE",
"449 486 OFFCURVE",
"367 483 CURVE",
"296 462 OFFCURVE",
"197 406 OFFCURVE",
"188 381 CURVE"
);
},
{
closed = 1;
nodes = (
"209 163 OFFCURVE",
"209 157 OFFCURVE",
"209 347 CURVE SMOOTH",
"209 592 OFFCURVE",
"212 709 OFFCURVE",
"202 740 CURVE",
"183 745 OFFCURVE",
"106 749 OFFCURVE",
"16 716 CURVE",
"26 666 LINE",
"83 666 LINE",
"83 585 OFFCURVE",
"83 526 OFFCURVE",
"83 101 CURVE SMOOTH",
"83 73 OFFCURVE",
"126 59 OFFCURVE",
"147 57 CURVE SMOOTH",
"174 54 OFFCURVE",
"174 46 OFFCURVE",
"209 46 CURVE"
);
},
{
closed = 1;
nodes = (
"26 55 LINE",
"23 0 LINE",
"273 0 LINE",
"277 56 LINE",
"210 66 LINE",
"160 66 LINE"
);
}
);
width = 531;
}
);
leftKerningGroup = l;
leftMetricsKey = n;
rightKerningGroup = i;
rightMetricsKey = n;
unicode = 0068;
},
{
glyphname = i;
lastChange = "2016-10-17 19:57:39 +0000";
layers = (
{
anchors = (
{
name = bottom;
position = "{104, 0}";
}
);
background = {
paths = (
{
closed = 1;
nodes = (
"199 461 OFFCURVE",
"133 479 OFFCURVE",
"85 479 CURVE",
"64 471 OFFCURVE",
"78 317 OFFCURVE",
"80 309 CURVE",
"70 270 OFFCURVE",
"49 159 OFFCURVE",
"46 112 CURVE SMOOTH",
"40 27 OFFCURVE",
"84 0 OFFCURVE",
"156 0 CURVE",
"195 8 OFFCURVE",
"216 21 OFFCURVE",
"228 30 CURVE",
"224 83 LINE",
"210 76 OFFCURVE",
"184 68 OFFCURVE",
"168 68 CURVE",
"153 122 OFFCURVE",
"196 379 OFFCURVE",
"213 444 CURVE"
);
}
);
};
components = (
{
name = idotless;
},
{
name = dotaccentcomb;
transform = "{1, 0, 0, 1, -160, 7}";
}
);
guideLines = (
{
angle = -20;
position = "{81, 30}";
}
);
layerId = "71FD7A9F-05F5-4D76-8D4F-547475A05E4C";
name = "Bold Italic";
width = 253;
},
{
anchors = (
{
name = bottom;
position = "{141, 0}";
}
);
components = (
{
name = idotless;
},
{
name = dotaccentcomb;
transform = "{1, 0, 0, 1, -119, 0}";
}
);
layerId = "11343128-4963-4E5D-BE9C-B74F53B36FA5";
name = Bold;
width = 278;
}
);
leftKerningGroup = i;
rightKerningGroup = i;
unicode = 0069;
},
{
glyphname = idotless;
lastChange = "2016-10-17 20:23:38 +0000";
layers = (
{
anchors = (
{
name = bottom;
position = "{139, 0}";
},
{
name = ogonek;
position = "{250, 10}";
},
{
name = top;
position = "{135, 480}";
}
);
background = {
components = (
{
name = n;
}
);
};
guideLines = (
{
position = "{146, 407}";
},
{
position = "{164, 457}";
}
);
layerId = "11343128-4963-4E5D-BE9C-B74F53B36FA5";
name = Bold;
paths = (
{
closed = 1;
nodes = (
"23 55 LINE",
"20 0 LINE",
"262 0 LINE",
"265 56 LINE",
"203 66 LINE",
"153 66 LINE"
);
},
{
closed = 1;
nodes = (
"203 63 OFFCURVE",
"198 137 OFFCURVE",
"198 289 CURVE SMOOTH",
"198 361 OFFCURVE",
"199 447 OFFCURVE",
"193 478 CURVE",
"121 486 OFFCURVE",
"59 478 OFFCURVE",
"16 457 CURVE",
"26 407 LINE",
"75 407 LINE",
"81 347 OFFCURVE",
"78 155 OFFCURVE",
"78 101 CURVE SMOOTH",
"78 73 OFFCURVE",
"118 59 OFFCURVE",
"139 57 CURVE SMOOTH",
"166 54 OFFCURVE",
"179 40 OFFCURVE",
"214 40 CURVE"
);
}
);
width = 278;
},
{
anchors = (
{
name = bottom;
position = "{102, 0}";
},
{
name = ogonek;
position = "{203, 10}";
},
{
name = top;
position = "{154, 487}";
}
);
layerId = "71FD7A9F-05F5-4D76-8D4F-547475A05E4C";
name = "Bold Italic";
paths = (
{
closed = 1;
nodes = (
"42 437 LINE",
"84 410 LINE",
"70 315 OFFCURVE",
"24 47 OFFCURVE",
"51 27 CURVE SMOOTH",
"73 11 OFFCURVE",
"110 -5 OFFCURVE",
"160 -4 CURVE",
"178 -1 OFFCURVE",
"210 14 OFFCURVE",
"226 26 CURVE",
"222 72 LINE",
"206 67 OFFCURVE",
"184 60 OFFCURVE",
"169 60 CURVE",
"150 122 OFFCURVE",
"209 437 OFFCURVE",
"211 454 CURVE",
"193 467 OFFCURVE",
"75 485 OFFCURVE",
"55 480 CURVE"
);
}
);
width = 253;
}
);
leftKerningGroup = i;
rightKerningGroup = i;
unicode = 0131;
},
{
glyphname = j;
lastChange = "2016-10-17 19:58:47 +0000";
layers = (
{
background = {
paths = (
{
closed = 1;
nodes = (
"65 481 OFFCURVE",
"177 463 OFFCURVE",
"195 450 CURVE",
"193 433 OFFCURVE",
"135 122 OFFCURVE",
"154 60 CURVE",
"169 60 OFFCURVE",
"192 67 OFFCURVE",
"208 72 CURVE",
"212 26 LINE",
"196 14 OFFCURVE",
"163 -1 OFFCURVE",
"145 -4 CURVE",
"99 -5 OFFCURVE",
"64 11 OFFCURVE",
"42 27 CURVE SMOOTH",
"15 47 OFFCURVE",
"56 311 OFFCURVE",
"74 406 CURVE",
"32 433 LINE",
"45 476 LINE"
);
}
);
};
components = (
{
name = jdotless;
},
{
name = dotaccentcomb;
transform = "{1, 0, 0, 1, -170, 0}";
}
);
guideLines = (
{
alignment = center;
angle = -12;
position = "{223, 497}";
},
{
angle = -103;
position = "{12, 345}";
}
);
layerId = "71FD7A9F-05F5-4D76-8D4F-547475A05E4C";
name = "Bold Italic";
width = 237;
},
{
background = {
paths = (
{
closed = 1;
nodes = (
"203 63 OFFCURVE",
"194 130 OFFCURVE",
"198 289 CURVE SMOOTH",
"200 361 OFFCURVE",
"203 450 OFFCURVE",
"194 481 CURVE",
"175 486 OFFCURVE",
"102 490 OFFCURVE",
"12 457 CURVE",
"21 406 LINE",
"36 411 OFFCURVE",
"49 414 OFFCURVE",
"63 415 CURVE",
"99 382 OFFCURVE",
"80 124 OFFCURVE",
"78 101 CURVE SMOOTH",
"75 73 OFFCURVE",
"118 59 OFFCURVE",
"139 57 CURVE SMOOTH",
"166 54 OFFCURVE",
"179 40 OFFCURVE",
"214 40 CURVE"
);
}
);
};
components = (
{
name = jdotless;
},
{
name = dotaccentcomb;
transform = "{1, 0, 0, 1, -136, 0}";
}
);
layerId = "11343128-4963-4E5D-BE9C-B74F53B36FA5";
name = Bold;
width = 243;
}
);
leftKerningGroup = j;
rightKerningGroup = g;
unicode = 006A;
},
{
glyphname = jdotless;
lastChange = "2016-10-18 15:46:48 +0000";
layers = (
{
anchors = (
{
name = bottom;
position = "{118, 0}";
},
{
name = top;
position = "{118, 480}";
}
);
background = {
components = (
{
name = i;
transform = "{1, 0, 0, 1, -10, 0}";
}
);
};
guideLines = (
{
position = "{131, 407}";
},
{
position = "{149, 457}";
}
);
layerId = "11343128-4963-4E5D-BE9C-B74F53B36FA5";
name = Bold;
paths = (
{
closed = 1;
nodes = (
"108 486 OFFCURVE",
"46 476 OFFCURVE",
"7 457 CURVE",
"16 407 LINE",
"66 407 LINE",
"70 358 OFFCURVE",
"70 252 OFFCURVE",
"70 144 CURVE SMOOTH",
"70 -76 OFFCURVE",
"25 -146 OFFCURVE",
"5 -166 CURVE",
"39 -206 LINE",
"136 -148 OFFCURVE",
"187 -28 OFFCURVE",
"187 218 CURVE SMOOTH",
"187 351 OFFCURVE",
"191 448 OFFCURVE",
"183 478 CURVE"
);
}
);
width = 243;
},
{
anchors = (
{
name = bottom;
position = "{94, 0}";
},
{
name = top;
position = "{144, 480}";
}
);
background = {
components = (
{
name = p;
}
);
};
layerId = "71FD7A9F-05F5-4D76-8D4F-547475A05E4C";
name = "Bold Italic";
paths = (
{
closed = 1;
nodes = (
"163 472 OFFCURVE",
"75 483 OFFCURVE",
"44 480 CURVE",
"34 437 LINE",
"74 412 LINE",
"77 400 OFFCURVE",
"73 359 OFFCURVE",
"72 336 CURVE SMOOTH",
"70 300 OFFCURVE",
"62 191 OFFCURVE",
"58 144 CURVE",
"29 -75 OFFCURVE",
"24 -111 OFFCURVE",
"12 -141 CURVE",
"-1 -142 OFFCURVE",
"-22 -143 OFFCURVE",
"-49 -143 CURVE",
"-55 -159 OFFCURVE",
"-62 -173 OFFCURVE",
"-67 -190 CURVE",
"-45 -208 OFFCURVE",
"-24 -218 OFFCURVE",
"-3 -223 CURVE",
"88 -183 OFFCURVE",
"143 -101 OFFCURVE",
"163 83 CURVE",
"176 217 OFFCURVE",
"205 431 OFFCURVE",
"203 455 CURVE"
);
}
);
width = 237;
}
);
leftKerningGroup = j;
rightKerningGroup = g;
unicode = 0237;
},
{
glyphname = k;
lastChange = "2016-10-17 20:36:33 +0000";
layers = (
{
anchors = (
{
name = bottom;
position = "{232, 0}";
},
{
name = top;
position = "{282, 480}";
}
);
background = {
paths = (
{
closed = 1;
nodes = (
"372 483 LINE",
"292 437 OFFCURVE",
"217 307 OFFCURVE",
"196 276 CURVE",
"219 457 OFFCURVE",
"262 689 OFFCURVE",
"241 708 CURVE SMOOTH",
"229 719 OFFCURVE",
"99 747 OFFCURVE",
"79 740 CURVE",
"69 698 LINE",
"111 668 LINE",
"114 619 OFFCURVE",
"107 479 OFFCURVE",
"92 353 CURVE SMOOTH",
"76 217 OFFCURVE",
"51 43 OFFCURVE",
"49 32 CURVE",
"49 20 OFFCURVE",
"126 -5 OFFCURVE",
"174 -5 CURVE SMOOTH",
"189 -5 OFFCURVE",
"191 41 OFFCURVE",
"184 132 CURVE",
"226 236 OFFCURVE",
"310 334 OFFCURVE",
"338 360 CURVE",
"310 255 OFFCURVE",
"290 75 OFFCURVE",
"309 44 CURVE SMOOTH",
"319 28 OFFCURVE",
"371 -2 OFFCURVE",
"425 -2 CURVE",
"457 7 OFFCURVE",
"476 17 OFFCURVE",
"488 25 CURVE",
"484 70 LINE",
"470 65 OFFCURVE",
"449 59 OFFCURVE",
"434 59 CURVE",
"414 124 OFFCURVE",
"455 371 OFFCURVE",
"475 444 CURVE"
);
}
);
};
layerId = "71FD7A9F-05F5-4D76-8D4F-547475A05E4C";
name = "Bold Italic";
paths = (
{
closed = 1;
nodes = (
"479 70 LINE",
"465 65 OFFCURVE",
"444 61 OFFCURVE",
"429 59 CURVE",
"414 73 OFFCURVE",
"383 135 OFFCURVE",
"368 185 CURVE",
"397 183 LINE",
"487 223 OFFCURVE",
"474 435 OFFCURVE",
"458 457 CURVE",
"367 489 LINE",
"314 438 OFFCURVE",
"223 338 OFFCURVE",
"197 284 CURVE",
"220 465 OFFCURVE",
"260 691 OFFCURVE",
"242 707 CURVE SMOOTH",
"227 720 OFFCURVE",
"99 747 OFFCURVE",
"79 740 CURVE",
"69 697 LINE",
"111 668 LINE",
"114 618 OFFCURVE",
"107 491 OFFCURVE",
"92 353 CURVE SMOOTH",
"77 217 OFFCURVE",
"51 44 OFFCURVE",
"49 33 CURVE",
"49 21 OFFCURVE",
"128 -2 OFFCURVE",
"171 -2 CURVE SMOOTH",
"186 -2 OFFCURVE",
"191 69 OFFCURVE",
"185 158 CURVE",
"242 275 OFFCURVE",
"319 342 OFFCURVE",
"337 364 CURVE",
"344 352 OFFCURVE",
"342 226 OFFCURVE",
"310 201 CURVE",
"264 183 LINE",
"280 59 OFFCURVE",
"299 38 OFFCURVE",
"312 27 CURVE",
"332 15 OFFCURVE",
"367 -5 OFFCURVE",
"416 -5 CURVE",
"451 3 OFFCURVE",
"467 14 OFFCURVE",
"483 24 CURVE"
);
}
);
width = 498;
},
{
anchors = (
{
name = bottom;
position = "{275, 0}";
},
{
name = top;
position = "{275, 480}";
}
);
background = {
components = (
{
name = l;
}
);
};
guideLines = (
{
position = "{113, 666}";
},
{
position = "{131, 716}";
},
{
position = "{154, 21}";
},
{
position = "{172, 71}";
}
);
layerId = "11343128-4963-4E5D-BE9C-B74F53B36FA5";
name = Bold;
paths = (
{
closed = 1;
nodes = (
"208 63 OFFCURVE",
"202 157 OFFCURVE",
"202 347 CURVE SMOOTH",
"202 509 OFFCURVE",
"210 709 OFFCURVE",
"200 740 CURVE",
"181 745 OFFCURVE",
"106 749 OFFCURVE",
"16 716 CURVE",
"25 666 LINE",
"75 666 LINE",
"85 580 OFFCURVE",
"82 123 OFFCURVE",
"80 101 CURVE SMOOTH",
"77 73 OFFCURVE",
"120 59 OFFCURVE",
"141 57 CURVE SMOOTH",
"168 54 OFFCURVE",
"181 40 OFFCURVE",
"216 40 CURVE"
);
},
{
closed = 1;
nodes = (
"23 55 LINE",
"20 0 LINE",
"266 0 LINE",
"270 54 LINE",
"203 66 LINE",
"153 66 LINE"
);
},
{
closed = 1;
nodes = (
"283 272 LINE",
"298 176 OFFCURVE",
"357 36 OFFCURVE",
"387 -3 CURVE",
"494 -15 OFFCURVE",
"534 9 OFFCURVE",
"554 21 CURVE",
"545 71 LINE",
"492 70 LINE",
"434 153 OFFCURVE",
"381 274 OFFCURVE",
"370 329 CURVE"
);
},
{
closed = 1;
nodes = (
"333 375 OFFCURVE",
"219 256 OFFCURVE",
"146 168 CURVE",
"184 109 LINE",
"250 185 OFFCURVE",
"390 343 OFFCURVE",
"425 378 CURVE SMOOTH",
"445 398 OFFCURVE",
"477 422 OFFCURVE",
"509 427 CURVE",
"513 480 LINE",
"312 480 LINE",
"304 427 LINE",
"354 415 LINE"
);
}
);
width = 558;
}
);
leftKerningGroup = l;
leftMetricsKey = i;
rightKerningGroup = i;
unicode = 006B;
},
{
glyphname = l;
lastChange = "2016-10-21 14:13:11 +0000";
layers = (
{
anchors = (
{
name = bottom;
position = "{109, 0}";
},
{
name = center;
position = "{141, 370}";
},
{
name = top;
position = "{164, 667}";
},
{
name = topright;
position = "{241, 480}";
}
);
background = {
paths = (
{
closed = 1;
nodes = (
"357 483 LINE",
"277 437 OFFCURVE",
"206 307 OFFCURVE",
"185 276 CURVE",
"208 457 OFFCURVE",
"251 689 OFFCURVE",
"230 708 CURVE SMOOTH",
"218 719 OFFCURVE",
"88 747 OFFCURVE",
"68 740 CURVE",
"58 698 LINE",
"100 668 LINE",
"103 619 OFFCURVE",
"98 479 OFFCURVE",
"83 353 CURVE SMOOTH",
"67 217 OFFCURVE",
"40 43 OFFCURVE",
"38 32 CURVE",
"38 20 OFFCURVE",
"115 -5 OFFCURVE",
"163 -5 CURVE SMOOTH",
"178 -5 OFFCURVE",
"180 41 OFFCURVE",
"173 132 CURVE",
"215 236 OFFCURVE",
"295 334 OFFCURVE",
"323 360 CURVE",
"295 255 OFFCURVE",
"275 75 OFFCURVE",
"294 44 CURVE SMOOTH",
"304 28 OFFCURVE",
"356 -2 OFFCURVE",
"410 -2 CURVE",
"442 7 OFFCURVE",
"461 17 OFFCURVE",
"473 25 CURVE",
"469 70 LINE",
"455 65 OFFCURVE",
"434 59 OFFCURVE",
"419 59 CURVE",
"399 124 OFFCURVE",
"440 371 OFFCURVE",
"460 444 CURVE"
);
}
);
};
guideLines = (
{
angle = -18;
position = "{105, 0}";
},
{
angle = -103;
position = "{42, 624}";
}
);
layerId = "71FD7A9F-05F5-4D76-8D4F-547475A05E4C";
name = "Bold Italic";
paths = (
{
closed = 1;
nodes = (
"182 2 OFFCURVE",
"211 12 OFFCURVE",
"237 30 CURVE",
"233 76 LINE",
"215 70 OFFCURVE",
"186 63 OFFCURVE",
"174 63 CURVE",
"178 158 OFFCURVE",
"192 299 OFFCURVE",
"208 431 CURVE SMOOTH",
"219 520 OFFCURVE",
"243 683 OFFCURVE",
"230 706 CURVE SMOOTH",
"221 719 OFFCURVE",
"82 747 OFFCURVE",
"70 740 CURVE",
"59 696 LINE",
"105 666 LINE",
"105 596 OFFCURVE",
"94 485 OFFCURVE",
"77 323 CURVE SMOOTH",
"67 232 OFFCURVE",
"40 43 OFFCURVE",
"55 29 CURVE SMOOTH",
"62 22 OFFCURVE",
"124 -4 OFFCURVE",
"165 -1 CURVE"
);
}
);
width = 264;
},
{
anchors = (
{
name = bottom;
position = "{133, 0}";
},
{
name = center;
position = "{133, 240}";
},
{
name = top;
position = "{133, 718}";
},
{
name = topright;
position = "{188, 740}";
}
);
background = {
paths = (
{
closed = 1;
nodes = (
"197 63 OFFCURVE",
"191 157 OFFCURVE",
"191 347 CURVE SMOOTH",
"191 509 OFFCURVE",
"199 709 OFFCURVE",
"189 740 CURVE",
"170 745 OFFCURVE",
"95 749 OFFCURVE",
"5 716 CURVE",
"14 666 LINE",
"64 666 LINE",
"74 580 OFFCURVE",
"71 123 OFFCURVE",
"69 101 CURVE SMOOTH",
"66 73 OFFCURVE",
"109 59 OFFCURVE",
"130 57 CURVE SMOOTH",
"157 54 OFFCURVE",
"170 40 OFFCURVE",
"205 40 CURVE"
);
}
);
};
guideLines = (
{
position = "{136, 666}";
},
{
position = "{154, 716}";
}
);
layerId = "11343128-4963-4E5D-BE9C-B74F53B36FA5";
name = Bold;
paths = (
{
closed = 1;
nodes = (
"198 63 OFFCURVE",
"192 157 OFFCURVE",
"192 347 CURVE SMOOTH",
"192 509 OFFCURVE",
"200 709 OFFCURVE",
"190 740 CURVE",
"171 745 OFFCURVE",
"96 749 OFFCURVE",
"6 716 CURVE",
"15 666 LINE",
"65 666 LINE",
"75 580 OFFCURVE",
"72 123 OFFCURVE",
"70 101 CURVE SMOOTH",
"67 73 OFFCURVE",
"110 59 OFFCURVE",
"131 57 CURVE SMOOTH",
"158 54 OFFCURVE",
"171 40 OFFCURVE",
"206 40 CURVE"
);
},
{
closed = 1;
nodes = (
"13 55 LINE",
"10 0 LINE",
"260 0 LINE",
"264 56 LINE",
"197 66 LINE",
"147 66 LINE"
);
}
);
width = 277;
}
);
leftKerningGroup = l;
leftMetricsKey = "=i-10";
rightKerningGroup = i;
rightMetricsKey = i;
unicode = 006C;
},
{
glyphname = m;
lastChange = "2016-10-18 16:17:36 +0000";
layers = (
{
anchors = (
{
name = bottom;
position = "{346, 0}";
},
{
name = top;
position = "{396, 480}";
}
);
background = {
components = (
{
name = i;
}
);
};
guideLines = (
{
angle = -18;
position = "{-81, 0}";
},
{
position = "{1104, 369}";
}
);
layerId = "71FD7A9F-05F5-4D76-8D4F-547475A05E4C";
name = "Bold Italic";
paths = (
{
closed = 1;
nodes = (
"714 74 LINE",
"701 69 OFFCURVE",
"677 62 OFFCURVE",
"663 62 CURVE",
"640 114 OFFCURVE",
"686 372 OFFCURVE",
"704 449 CURVE",
"602 482 LINE",
"560 459 OFFCURVE",
"454 343 OFFCURVE",
"433 307 CURVE",
"442 370 OFFCURVE",
"447 412 OFFCURVE",
"455 452 CURVE",
"364 483 LINE",
"305 431 OFFCURVE",
"199 306 OFFCURVE",
"189 288 CURVE",
"190 297 OFFCURVE",
"208 440 OFFCURVE",
"201 452 CURVE SMOOTH",
"194 465 OFFCURVE",
"67 486 OFFCURVE",
"55 479 CURVE",
"41 434 LINE",
"84 407 LINE",
"73 273 OFFCURVE",
"41 46 OFFCURVE",
"40 34 CURVE SMOOTH",
"39 23 OFFCURVE",
"120 -2 OFFCURVE",
"166 -2 CURVE SMOOTH",
"181 -2 OFFCURVE",
"181 69 OFFCURVE",
"174 159 CURVE",
"224 243 OFFCURVE",
"295 320 OFFCURVE",
"324 350 CURVE",
"325 340 OFFCURVE",
"314 261 OFFCURVE",
"311 239 CURVE",
"286 106 OFFCURVE",
"282 43 OFFCURVE",
"281 31 CURVE SMOOTH",
"281 20 OFFCURVE",
"360 -3 OFFCURVE",
"405 -3 CURVE SMOOTH",
"421 -3 OFFCURVE",
"424 90 OFFCURVE",
"416 180 CURVE",
"469 282 OFFCURVE",
"549 337 OFFCURVE",
"573 359 CURVE",
"559 306 OFFCURVE",
"524 95 OFFCURVE",
"540 53 CURVE SMOOTH",
"552 27 OFFCURVE",
"597 -2 OFFCURVE",
"655 -2 CURVE",
"678 4 OFFCURVE",
"701 16 OFFCURVE",
"718 28 CURVE"
);
}
);
width = 742;
},
{
anchors = (
{
name = bottom;
position = "{393, 0}";
},
{
name = top;
position = "{393, 480}";
}
);
background = {
components = (
{
name = n;
}
);
};
guideLines = (
{
position = "{147, 21}";
},
{
position = "{165, 71}";
},
{
position = "{147, 407}";
},
{
position = "{165, 457}";
}
);
layerId = "11343128-4963-4E5D-BE9C-B74F53B36FA5";
name = Bold;
paths = (
{
closed = 1;
nodes = (
"452 68 OFFCURVE",
"450 131 OFFCURVE",
"450 285 CURVE",
"451 335 OFFCURVE",
"451 331 OFFCURVE",
"453 375 CURVE SMOOTH",
"457 453 OFFCURVE",
"413 485 OFFCURVE",
"349 483 CURVE",
"267 458 OFFCURVE",
"179 403 OFFCURVE",
"171 381 CURVE",
"171 326 LINE",
"201 348 OFFCURVE",
"281 381 OFFCURVE",
"318 382 CURVE",
"341 346 OFFCURVE",
"337 209 OFFCURVE",
"334 122 CURVE SMOOTH",
"333 79 OFFCURVE",
"326 60 OFFCURVE",
"287 56 CURVE",
"303 26 OFFCURVE",
"421 40 OFFCURVE",
"466 40 CURVE"
);
},
{
closed = 1;
nodes = (
"24 55 LINE",
"22 0 LINE",
"251 0 LINE",
"255 56 LINE",
"205 66 LINE",
"155 66 LINE"
);
},
{
closed = 1;
nodes = (
"287 56 LINE",
"283 0 LINE",
"516 0 LINE",
"520 56 LINE",
"454 66 LINE"
);
},
{
closed = 1;
nodes = (
"420 326 LINE",
"479 363 OFFCURVE",
"536 380 OFFCURVE",
"568 382 CURVE",
"606 298 OFFCURVE",
"564 47 OFFCURVE",
"590 0 CURVE",
"700 -10 OFFCURVE",
"750 9 OFFCURVE",
"772 21 CURVE",
"763 71 LINE",
"713 71 LINE",
"690 134 OFFCURVE",
"695 309 OFFCURVE",
"701 382 CURVE SMOOTH",
"705 431 OFFCURVE",
"681 486 OFFCURVE",
"599 483 CURVE",
"528 462 OFFCURVE",
"429 406 OFFCURVE",
"420 381 CURVE"
);
},
{
closed = 1;
nodes = (
"207 63 OFFCURVE",
"198 130 OFFCURVE",
"202 289 CURVE SMOOTH",
"203 317 OFFCURVE",
"204 348 OFFCURVE",
"204 377 CURVE SMOOTH",
"204 383 OFFCURVE",
"199 389 OFFCURVE",
"199 395 CURVE",
"199 432 OFFCURVE",
"197 465 OFFCURVE",
"193 481 CURVE",
"174 486 OFFCURVE",
"106 490 OFFCURVE",
"16 457 CURVE",
"25 407 LINE",
"74 407 LINE",
"102 353 OFFCURVE",
"84 123 OFFCURVE",
"82 101 CURVE SMOOTH",
"79 73 OFFCURVE",
"122 59 OFFCURVE",
"143 57 CURVE SMOOTH",
"170 54 OFFCURVE",
"183 40 OFFCURVE",
"218 40 CURVE"
);
}
);
width = 777;
}
);
leftKerningGroup = i;
leftMetricsKey = i;
rightKerningGroup = n;
rightMetricsKey = n;
unicode = 006D;
},
{
glyphname = n;
lastChange = "2016-10-21 14:13:11 +0000";
layers = (
{
anchors = (
{
name = bottom;
position = "{229, 0}";
},
{
name = top;
position = "{279, 480}";
}
);
background = {
components = (
{
name = h;
}
);
};
guideLines = (
{
angle = -12;
position = "{349, 29}";
},
{
position = "{874, 369}";
}
);
layerId = "71FD7A9F-05F5-4D76-8D4F-547475A05E4C";
name = "Bold Italic";
paths = (
{
closed = 1;
nodes = (
"484 70 LINE",
"470 65 OFFCURVE",
"450 59 OFFCURVE",
"433 59 CURVE",
"409 113 OFFCURVE",
"453 368 OFFCURVE",
"474 444 CURVE",
"374 482 LINE",
"340 482 OFFCURVE",
"237 371 OFFCURVE",
"194 296 CURVE",
"195 305 OFFCURVE",
"212 441 OFFCURVE",
"207 452 CURVE SMOOTH",
"203 461 OFFCURVE",
"68 484 OFFCURVE",
"54 477 CURVE",
"41 434 LINE",
"87 407 LINE",
"78 272 OFFCURVE",
"42 45 OFFCURVE",
"44 34 CURVE SMOOTH",
"46 22 OFFCURVE",
"121 -3 OFFCURVE",
"164 -3 CURVE SMOOTH",
"179 -3 OFFCURVE",
"181 74 OFFCURVE",
"180 165 CURVE",
"236 272 OFFCURVE",
"300 328 OFFCURVE",
"336 359 CURVE",
"319 305 OFFCURVE",
"288 85 OFFCURVE",
"309 42 CURVE SMOOTH",
"314 33 OFFCURVE",
"360 -2 OFFCURVE",
"425 -2 CURVE",
"457 7 OFFCURVE",
"474 16 OFFCURVE",
"488 25 CURVE"
);
}
);
width = 513;
},
{
anchors = (
{
name = bottom;
position = "{270, 0}";
},
{
name = top;
position = "{270, 480}";
}
);
background = {
paths = (
{
closed = 1;
nodes = (
"364 154 LINE",
"305 117 OFFCURVE",
"248 100 OFFCURVE",
"216 98 CURVE",
"178 182 OFFCURVE",
"220 433 OFFCURVE",
"194 480 CURVE",
"84 490 OFFCURVE",
"33 470 OFFCURVE",
"15 459 CURVE",
"24 409 LINE",
"71 409 LINE",
"94 347 OFFCURVE",
"89 171 OFFCURVE",
"83 98 CURVE SMOOTH",
"79 49 OFFCURVE",
"103 -6 OFFCURVE",
"185 -3 CURVE",
"256 18 OFFCURVE",
"355 74 OFFCURVE",
"364 99 CURVE"
);
}
);
};
guideLines = (
{
position = "{145, 21}";
},
{
position = "{163, 71}";
},
{
position = "{145, 407}";
}
);
layerId = "11343128-4963-4E5D-BE9C-B74F53B36FA5";
name = Bold;
paths = (
{
closed = 1;
nodes = (
"205 92 OFFCURVE",
"205 252 OFFCURVE",
"205 373 CURVE",
"205 381 OFFCURVE",
"198 388 OFFCURVE",
"198 396 CURVE",
"196 434 OFFCURVE",
"193 463 OFFCURVE",
"188 480 CURVE",
"147 493 OFFCURVE",
"43 474 OFFCURVE",
"16 459 CURVE",
"25 409 LINE",
"76 409 LINE",
"89 329 OFFCURVE",
"79 125 OFFCURVE",
"79 104 CURVE SMOOTH",
"79 74 OFFCURVE",
"119 59 OFFCURVE",
"140 57 CURVE SMOOTH",
"167 54 OFFCURVE",
"170 40 OFFCURVE",
"205 40 CURVE"
);
},
{
closed = 1;
nodes = (
"180 328 LINE",
"239 365 OFFCURVE",
"307 380 OFFCURVE",
"339 382 CURVE",
"339 103 OFFCURVE",
"335 47 OFFCURVE",
"361 0 CURVE",
"439 -17 OFFCURVE",
"511 10 OFFCURVE",
"529 21 CURVE",
"520 71 LINE",
"465 71 LINE",
"456 121 OFFCURVE",
"461 309 OFFCURVE",
"461 382 CURVE SMOOTH",
"461 431 OFFCURVE",
"441 486 OFFCURVE",
"359 483 CURVE",
"288 462 OFFCURVE",
"189 408 OFFCURVE",
"180 381 CURVE"
);
},
{
closed = 1;
nodes = (
"25 55 LINE",
"22 0 LINE",
"265 0 LINE",
"269 56 LINE",
"209 66 LINE",
"159 66 LINE"
);
}
);
width = 539;
}
);
leftKerningGroup = i;
leftMetricsKey = i;
rightKerningGroup = n;
rightMetricsKey = "=i-3";
unicode = 006E;
},
{
glyphname = eng;
lastChange = "2016-07-15 19:15:24 +0000";
layers = (
{
anchors = (
{
name = bottom;
position = "{229, 0}";
},
{
name = top;
position = "{279, 480}";
}
);
background = {
paths = (
{
closed = 1;
nodes = (
"299 697 LINE",
"353 688 LINE",
"367 658 OFFCURVE",
"361 568 OFFCURVE",
"357 518 CURVE SMOOTH",
"350 433 OFFCURVE",
"346 368 OFFCURVE",
"344 317 CURVE",
"323 350 OFFCURVE",
"303 382 OFFCURVE",
"291 405 CURVE SMOOTH",
"260 462 OFFCURVE",
"168 636 OFFCURVE",
"114 754 CURVE",
"110 749 LINE",
"112 754 LINE",
"8 646 LINE",
"13 618 LINE",
"52 580 OFFCURVE",
"120 458 OFFCURVE",
"150 405 CURVE SMOOTH",
"182 348 OFFCURVE",
"313 98 OFFCURVE",
"337 54 CURVE",
"340 9 OFFCURVE",
"326 -54 OFFCURVE",
"301 -90 CURVE",
"258 -119 OFFCURVE",
"200 -122 OFFCURVE",
"147 -84 CURVE",
"129 -131 LINE",
"160 -170 OFFCURVE",
"260 -229 OFFCURVE",
"344 -179 CURVE SMOOTH",
"433 -126 OFFCURVE",
"431 -24 OFFCURVE",
"435 55 CURVE SMOOTH",
"449 341 OFFCURVE",
"464 569 OFFCURVE",
"483 626 CURVE SMOOTH",
"502 685 OFFCURVE",
"543 696 OFFCURVE",
"569 696 CURVE",
"575 754 LINE",
"309 754 LINE"
);
}
);
};
layerId = "71FD7A9F-05F5-4D76-8D4F-547475A05E4C";
name = "Bold Italic";
paths = (
{
closed = 1;
nodes = (
"374 482 LINE",
"340 482 OFFCURVE",
"234 349 OFFCURVE",
"191 274 CURVE",
"193 292 OFFCURVE",
"210 443 OFFCURVE",
"205 452 CURVE SMOOTH",
"200 461 OFFCURVE",
"68 484 OFFCURVE",
"54 477 CURVE",
"41 434 LINE",
"87 407 LINE",
"78 272 OFFCURVE",
"42 46 OFFCURVE",
"44 34 CURVE SMOOTH",
"46 21 OFFCURVE",
"129 -3 OFFCURVE",
"154 -3 CURVE SMOOTH",
"182 -3 OFFCURVE",
"182 25 OFFCURVE",
"175 133 CURVE",
"238 271 OFFCURVE",
"304 323 OFFCURVE",
"336 359 CURVE",
"330 320 OFFCURVE",
"325 212 OFFCURVE",
"317 82 CURVE SMOOTH",
"313 11 OFFCURVE",
"298 -68 OFFCURVE",
"271 -104 CURVE",
"234 -123 OFFCURVE",
"175 -105 OFFCURVE",
"147 -84 CURVE",
"128 -130 LINE",
"168 -174 OFFCURVE",
"252 -212 OFFCURVE",
"331 -181 CURVE SMOOTH",
"408 -151 OFFCURVE",
"426 -45 OFFCURVE",
"431 27 CURVE SMOOTH",
"450 286 OFFCURVE",
"453 364 OFFCURVE",
"474 444 CURVE"
);
}
);
width = 521;
},
{
anchors = (
{
name = bottom;
position = "{271, 0}";
},
{
name = top;
position = "{271, 480}";
}
);
background = {
paths = (
{
closed = 1;
nodes = (
"368 482 LINE",
"334 482 OFFCURVE",
"239 349 OFFCURVE",
"203 274 CURVE",
"203 292 OFFCURVE",
"207 443 OFFCURVE",
"201 452 CURVE SMOOTH",
"195 461 OFFCURVE",
"61 484 OFFCURVE",
"48 477 CURVE",
"39 434 LINE",
"87 407 LINE",
"90 272 OFFCURVE",
"74 46 OFFCURVE",
"77 34 CURVE SMOOTH",
"80 21 OFFCURVE",
"165 -3 OFFCURVE",
"190 -3 CURVE SMOOTH",
"218 -3 OFFCURVE",
"215 25 OFFCURVE",
"199 133 CURVE",
"250 271 OFFCURVE",
"311 323 OFFCURVE",
"340 359 CURVE",
"338 320 OFFCURVE",
"342 212 OFFCURVE",
"345 82 CURVE SMOOTH",
"348 11 OFFCURVE",
"340 -68 OFFCURVE",
"316 -104 CURVE",
"280 -123 OFFCURVE",
"220 -105 OFFCURVE",
"190 -84 CURVE",
"175 -130 LINE",
"219 -174 OFFCURVE",
"306 -212 OFFCURVE",
"382 -181 CURVE SMOOTH",
"457 -151 OFFCURVE",
"466 -45 OFFCURVE",
"464 27 CURVE SMOOTH",
"461 286 OFFCURVE",
"457 364 OFFCURVE",
"471 444 CURVE"
);
}
);
};
layerId = "11343128-4963-4E5D-BE9C-B74F53B36FA5";
name = Bold;
paths = (
{
closed = 1;
nodes = (
"205 63 OFFCURVE",
"196 130 OFFCURVE",
"200 289 CURVE SMOOTH",
"202 361 OFFCURVE",
"205 450 OFFCURVE",
"196 481 CURVE",
"177 486 OFFCURVE",
"107 490 OFFCURVE",
"17 457 CURVE",
"26 407 LINE",
"72 407 LINE",
"100 353 OFFCURVE",
"82 122 OFFCURVE",
"80 101 CURVE SMOOTH",
"77 73 OFFCURVE",
"120 59 OFFCURVE",
"141 57 CURVE SMOOTH",
"168 54 OFFCURVE",
"181 40 OFFCURVE",
"216 40 CURVE"
);
},
{
closed = 1;
nodes = (
"23 55 LINE",
"20 0 LINE",
"266 0 LINE",
"270 56 LINE",
"203 66 LINE",
"153 66 LINE"
);
},
{
closed = 1;
nodes = (
"181 326 LINE",
"240 363 OFFCURVE",
"301 380 OFFCURVE",
"333 382 CURVE",
"349 294 OFFCURVE",
"354 -48 OFFCURVE",
"329 -106 CURVE",
"298 -115 OFFCURVE",
"231 -106 OFFCURVE",
"194 -88 CURVE",
"183 -105 OFFCURVE",
"176 -123 OFFCURVE",
"175 -130 CURVE",
"219 -174 OFFCURVE",
"331 -219 OFFCURVE",
"404 -163 CURVE SMOOTH",
"457 -122 OFFCURVE",
"465 -34 OFFCURVE",
"465 71 CURVE SMOOTH",
"465 143 OFFCURVE",
"463 309 OFFCURVE",
"462 382 CURVE SMOOTH",
"461 431 OFFCURVE",
"442 486 OFFCURVE",
"360 483 CURVE",
"289 462 OFFCURVE",
"190 406 OFFCURVE",
"181 381 CURVE"
);
}
);
width = 542;
}
);
leftKerningGroup = i;
rightKerningGroup = n;
unicode = 014B;
},
{
glyphname = o;
lastChange = "2016-10-16 16:27:22 +0000";
layers = (
{
anchors = (
{
name = bottom;
position = "{214, 0}";
},
{
name = center;
position = "{239, 240}";
},
{
name = ogonek;
position = "{396, 10}";
},
{
name = top;
position = "{264, 480}";
},
{
name = topright;
position = "{472, 480}";
}
);
layerId = "71FD7A9F-05F5-4D76-8D4F-547475A05E4C";
name = "Bold Italic";
paths = (
{
closed = 1;
nodes = (
"378 460 OFFCURVE",
"326 492 OFFCURVE",
"224 481 CURVE",
"38 442 OFFCURVE",
"-28 179 OFFCURVE",
"72 54 CURVE SMOOTH",
"116 -1 OFFCURVE",
"189 -17 OFFCURVE",
"270 4 CURVE",
"458 69 OFFCURVE",
"492 317 OFFCURVE",
"408 422 CURVE SMOOTH"
);
},
{
closed = 1;
nodes = (
"208 74 OFFCURVE",
"183 100 OFFCURVE",
"164 147 CURVE SMOOTH",
"129 233 OFFCURVE",
"156 365 OFFCURVE",
"232 407 CURVE",
"261 407 OFFCURVE",
"288 384 OFFCURVE",
"309 339 CURVE SMOOTH",
"346 260 OFFCURVE",
"327 125 OFFCURVE",
"246 74 CURVE"
);
}
);
width = 477;
},
{
anchors = (
{
name = bottom;
position = "{242, 0}";
},
{
name = center;
position = "{242, 240}";
},
{
name = ogonek;
position = "{436, 10}";
},
{
name = top;
position = "{242, 480}";
},
{
name = topright;
position = "{464, 480}";
}
);
background = {
components = (
{
name = n;
}
);
};
guideLines = (
{
angle = 90;
position = "{263, 338}";
}
);
layerId = "11343128-4963-4E5D-BE9C-B74F53B36FA5";
name = Bold;
paths = (
{
closed = 1;
nodes = (
"367 464 OFFCURVE",
"302 504 OFFCURVE",
"211 484 CURVE SMOOTH",
"83 458 OFFCURVE",
"23 352 OFFCURVE",
"23 237 CURVE SMOOTH",
"23 157 OFFCURVE",
"48 75 OFFCURVE",
"97 34 CURVE SMOOTH",
"139 -1 OFFCURVE",
"211 -18 OFFCURVE",
"276 -4 CURVE SMOOTH",
"407 21 OFFCURVE",
"461 143 OFFCURVE",
"461 258 CURVE SMOOTH",
"461 328 OFFCURVE",
"438 397 OFFCURVE",
"397 436 CURVE SMOOTH"
);
},
{
closed = 1;
nodes = (
"227 68 OFFCURVE",
"192 96 OFFCURVE",
"169 145 CURVE SMOOTH",
"125 237 OFFCURVE",
"149 371 OFFCURVE",
"217 409 CURVE",
"258 409 OFFCURVE",
"288 385 OFFCURVE",
"311 343 CURVE SMOOTH",
"356 258 OFFCURVE",
"346 114 OFFCURVE",
"270 68 CURVE"
);
}
);
width = 484;
}
);
leftKerningGroup = o;
rightKerningGroup = o;
unicode = 006F;
},
{
glyphname = oe;
lastChange = "2016-10-21 14:13:11 +0000";
layers = (
{
anchors = (
{
name = bottom;
position = "{478, 0}";
},
{
name = center;
position = "{239, 240}";
},
{
name = ogonek;
position = "{625, 10}";
},
{
name = top;
position = "{528, 480}";
},
{
name = topright;
position = "{472, 480}";
}
);
layerId = "71FD7A9F-05F5-4D76-8D4F-547475A05E4C";
name = "Bold Italic";
paths = (
{
closed = 1;
nodes = (
"577 287 OFFCURVE",
"516 219 OFFCURVE",
"437 229 CURVE",
"390 206 OFFCURVE",
"374 206 OFFCURVE",
"434 174 CURVE",
"604 151 OFFCURVE",
"723 255 OFFCURVE",
"688 391 CURVE SMOOTH",
"676 439 OFFCURVE",
"640 484 OFFCURVE",
"530 484 CURVE",
"389 458 OFFCURVE",
"334 339 OFFCURVE",
"328 226 CURVE SMOOTH",
"325 159 OFFCURVE",
"332 99 OFFCURVE",
"371 55 CURVE SMOOTH",
"429 -11 OFFCURVE",
"524 -10 OFFCURVE",
"582 8 CURVE SMOOTH",
"628 22 OFFCURVE",
"650 43 OFFCURVE",
"659 53 CURVE",
"652 101 LINE",
"637 88 OFFCURVE",
"578 68 OFFCURVE",
"536 75 CURVE SMOOTH",
"501 81 OFFCURVE",
"473 105 OFFCURVE",
"456 144 CURVE SMOOTH",
"425 216 OFFCURVE",
"438 360 OFFCURVE",
"522 414 CURVE",
"566 393 OFFCURVE",
"580 334 OFFCURVE",
"580 304 CURVE"
);
},
{
closed = 1;
nodes = (
"378 460 OFFCURVE",
"326 492 OFFCURVE",
"224 481 CURVE",
"38 442 OFFCURVE",
"-28 179 OFFCURVE",
"72 54 CURVE SMOOTH",
"116 -1 OFFCURVE",
"189 -17 OFFCURVE",
"270 4 CURVE",
"314 19 OFFCURVE",
"350 45 OFFCURVE",
"378 76 CURVE SMOOTH",
"421 125 OFFCURVE",
"435 188 OFFCURVE",
"440 250 CURVE SMOOTH",
"446 316 OFFCURVE",
"441 380 OFFCURVE",
"408 422 CURVE SMOOTH"
);
},
{
closed = 1;
nodes = (
"208 74 OFFCURVE",
"183 100 OFFCURVE",
"164 147 CURVE SMOOTH",
"129 233 OFFCURVE",
"156 365 OFFCURVE",
"232 407 CURVE",
"261 407 OFFCURVE",
"288 384 OFFCURVE",
"309 339 CURVE SMOOTH",
"346 260 OFFCURVE",
"327 125 OFFCURVE",
"246 74 CURVE"
);
}
);
width = 712;
},
{
anchors = (
{
name = bottom;
position = "{241, 0}";
},
{
name = center;
position = "{241, 240}";
},
{
name = ogonek;
position = "{435, 10}";
},
{
name = top;
position = "{241, 480}";
},
{
name = topright;
position = "{463, 480}";
}
);
layerId = "11343128-4963-4E5D-BE9C-B74F53B36FA5";
name = Bold;
paths = (
{
closed = 1;
nodes = (
"365 463 OFFCURVE",
"301 500 OFFCURVE",
"210 481 CURVE SMOOTH",
"83 455 OFFCURVE",
"23 351 OFFCURVE",
"23 237 CURVE SMOOTH",
"23 157 OFFCURVE",
"48 76 OFFCURVE",
"97 35 CURVE SMOOTH",
"139 0 OFFCURVE",
"209 -15 OFFCURVE",
"274 -2 CURVE SMOOTH",
"404 23 OFFCURVE",
"456 144 OFFCURVE",
"456 258 CURVE SMOOTH",
"456 328 OFFCURVE",
"436 396 OFFCURVE",
"395 435 CURVE SMOOTH"
);
},
{
closed = 1;
nodes = (
"226 70 OFFCURVE",
"191 97 OFFCURVE",
"168 146 CURVE SMOOTH",
"125 237 OFFCURVE",
"149 368 OFFCURVE",
"216 406 CURVE",
"257 406 OFFCURVE",
"287 384 OFFCURVE",
"310 342 CURVE SMOOTH",
"354 258 OFFCURVE",
"344 116 OFFCURVE",
"269 70 CURVE"
);
},
{
closed = 1;
nodes = (
"433 232 OFFCURVE",
"459 371 OFFCURVE",
"523 405 CURVE",
"588 403 OFFCURVE",
"622 311 OFFCURVE",
"610 289 CURVE",
"584 278 OFFCURVE",
"474 265 OFFCURVE",
"430 271 CURVE",
"432 200 LINE",
"513 201 OFFCURVE",
"652 216 OFFCURVE",
"719 248 CURVE",
"760 399 OFFCURVE",
"637 525 OFFCURVE",
"482 472 CURVE SMOOTH",
"376 436 OFFCURVE",
"337 328 OFFCURVE",
"338 225 CURVE SMOOTH",
"339 148 OFFCURVE",
"357 74 OFFCURVE",
"407 33 CURVE SMOOTH",
"463 -12 OFFCURVE",
"607 -37 OFFCURVE",
"728 43 CURVE",
"711 97 LINE",
"598 47 OFFCURVE",
"508 77 OFFCURVE",
"475 145 CURVE SMOOTH"
);
}
);
width = 751;
}
);
leftKerningGroup = o;
leftMetricsKey = o;
rightKerningGroup = o;
rightMetricsKey = e;
unicode = 0153;
},
{
glyphname = p;
lastChange = "2016-10-21 14:13:11 +0000";
layers = (
{
anchors = (
{
name = bottom;
position = "{223, 0}";
},
{
name = top;
position = "{273, 480}";
}
);
background = {
paths = (
{
closed = 1;
nodes = (
"159 469 OFFCURVE",
"76 480 OFFCURVE",
"45 477 CURVE",
"35 434 LINE",
"75 409 LINE",
"78 397 OFFCURVE",
"76 359 OFFCURVE",
"75 336 CURVE SMOOTH",
"73 300 OFFCURVE",
"68 191 OFFCURVE",
"64 144 CURVE",
"35 -58 OFFCURVE",
"20 -101 OFFCURVE",
"-1 -129 CURVE",
"-13 -129 OFFCURVE",
"-27 -123 OFFCURVE",
"-51 -109 CURVE",
"-68 -153 LINE",
"-44 -173 OFFCURVE",
"-16 -187 OFFCURVE",
"3 -193 CURVE",
"110 -167 OFFCURVE",
"140 -113 OFFCURVE",
"164 113 CURVE",
"177 247 OFFCURVE",
"201 428 OFFCURVE",
"199 452 CURVE"
);
}
);
};
guideLines = (
{
angle = -18;
position = "{756, -224}";
},
{
angle = 78;
position = "{29, 445}";
}
);
layerId = "71FD7A9F-05F5-4D76-8D4F-547475A05E4C";
name = "Bold Italic";
paths = (
{
closed = 1;
nodes = (
"389 474 OFFCURVE",
"350 483 OFFCURVE",
"315 480 CURVE",
"260 431 OFFCURVE",
"215 378 OFFCURVE",
"184 330 CURVE",
"187 348 OFFCURVE",
"198 447 OFFCURVE",
"193 455 CURVE SMOOTH",
"185 468 OFFCURVE",
"57 485 OFFCURVE",
"46 480 CURVE",
"36 438 LINE",
"76 413 LINE",
"75 355 OFFCURVE",
"58 145 OFFCURVE",
"47 55 CURVE SMOOTH",
"32 -67 OFFCURVE",
"8 -195 OFFCURVE",
"15 -203 CURVE SMOOTH",
"27 -213 OFFCURVE",
"151 -257 OFFCURVE",
"164 -247 CURVE",
"176 -196 LINE",
"137 -169 LINE",
"136 -128 OFFCURVE",
"145 -21 OFFCURVE",
"149 28 CURVE",
"194 4 OFFCURVE",
"242 -6 OFFCURVE",
"292 -4 CURVE",
"464 46 OFFCURVE",
"523 304 OFFCURVE",
"415 441 CURVE SMOOTH"
);
},
{
closed = 1;
nodes = (
"237 67 OFFCURVE",
"194 99 OFFCURVE",
"167 138 CURVE",
"179 227 LINE",
"206 284 OFFCURVE",
"286 364 OFFCURVE",
"291 369 CURVE",
"302 364 OFFCURVE",
"313 354 OFFCURVE",
"322 332 CURVE SMOOTH",
"355 250 OFFCURVE",
"351 113 OFFCURVE",
"273 63 CURVE"
);
}
);
width = 496;
},
{
anchors = (
{
name = bottom;
position = "{256, 0}";
},
{
name = top;
position = "{256, 480}";
}
);
background = {
components = (
{
name = n;
transform = "{1, 0, 0, 1, -14, 0}";
}
);
};
guideLines = (
{
position = "{146, 407}";
},
{
position = "{164, 457}";
}
);
layerId = "11343128-4963-4E5D-BE9C-B74F53B36FA5";
name = Bold;
paths = (
{
closed = 1;
nodes = (
"406 455 OFFCURVE",
"364 484 OFFCURVE",
"305 484 CURVE",
"270 475 OFFCURVE",
"195 426 OFFCURVE",
"162 401 CURVE",
"120 281 OFFCURVE",
"135 103 OFFCURVE",
"126 58 CURVE",
"152 32 OFFCURVE",
"234 -13 OFFCURVE",
"299 -1 CURVE SMOOTH",
"507 38 OFFCURVE",
"531 335 OFFCURVE",
"426 436 CURVE SMOOTH"
);
},
{
closed = 1;
nodes = (
"251 74 OFFCURVE",
"186 95 OFFCURVE",
"171 144 CURVE",
"154 198 OFFCURVE",
"160 287 OFFCURVE",
"176 341 CURVE",
"187 348 OFFCURVE",
"243 389 OFFCURVE",
"294 389 CURVE",
"309 384 OFFCURVE",
"324 373 OFFCURVE",
"339 343 CURVE SMOOTH",
"381 259 OFFCURVE",
"369 120 OFFCURVE",
"294 74 CURVE"
);
},
{
closed = 1;
nodes = (
"62 409 LINE",
"82 367 OFFCURVE",
"86 289 OFFCURVE",
"82 106 CURVE SMOOTH",
"79 -51 OFFCURVE",
"66 -146 OFFCURVE",
"74 -162 CURVE SMOOTH",
"81 -176 OFFCURVE",
"136 -200 OFFCURVE",
"258 -250 CURVE",
"262 -194 LINE",
"206 -185 LINE",
"189 -155 OFFCURVE",
"192 44 OFFCURVE",
"192 238 CURVE SMOOTH",
"192 297 OFFCURVE",
"192 341 OFFCURVE",
"191 374 CURVE",
"191 381 OFFCURVE",
"188 387 OFFCURVE",
"188 393 CURVE",
"186 449 OFFCURVE",
"183 468 OFFCURVE",
"177 481 CURVE",
"111 492 OFFCURVE",
"22 470 OFFCURVE",
"2 459 CURVE",
"12 409 LINE"
);
},
{
closed = 1;
nodes = (
"22 -195 LINE",
"19 -250 LINE",
"258 -250 LINE",
"153 -184 LINE"
);
}
);
width = 510;
}
);
leftKerningGroup = i;
rightKerningGroup = o;
rightMetricsKey = o;
unicode = 0070;
},
{
glyphname = thorn;
lastChange = "2016-10-17 20:36:33 +0000";
layers = (
{
background = {
paths = (
{
closed = 1;
nodes = (
"251 355 LINE",
"260 472 OFFCURVE",
"257 448 OFFCURVE",
"302 706 CURVE",
"302 706 LINE",
"244 707 OFFCURVE",
"175 704 OFFCURVE",
"92 700 CURVE",
"85 643 LINE",
"131 634 LINE",
"141 612 OFFCURVE",
"133 481 OFFCURVE",
"128 421 CURVE SMOOTH",
"119 309 OFFCURVE",
"88 109 OFFCURVE",
"92 96 CURVE",
"94 84 OFFCURVE",
"117 70 OFFCURVE",
"151 58 CURVE",
"35 58 LINE",
"30 0 LINE",
"309 0 LINE",
"318 55 LINE",
"262 63 LINE",
"238 100 OFFCURVE",
"240 172 OFFCURVE",
"245 293 CURVE"
);
},
{
closed = 1;
nodes = (
"230 272 LINE",
"264 261 OFFCURVE",
"310 259 OFFCURVE",
"346 264 CURVE",
"592 312 OFFCURVE",
"645 589 OFFCURVE",
"475 670 CURVE SMOOTH",
"420 697 OFFCURVE",
"357 705 OFFCURVE",
"275 706 CURVE",
"267 624 LINE",
"444 651 OFFCURVE",
"490 416 OFFCURVE",
"365 350 CURVE",
"323 348 OFFCURVE",
"277 355 OFFCURVE",
"237 378 CURVE"
);
}
);
};
layerId = "71FD7A9F-05F5-4D76-8D4F-547475A05E4C";
name = "Bold Italic";
paths = (
{
closed = 1;
nodes = (
"400 474 OFFCURVE",
"361 483 OFFCURVE",
"326 480 CURVE",
"271 431 OFFCURVE",
"231 378 OFFCURVE",
"200 330 CURVE",
"203 348 OFFCURVE",
"214 447 OFFCURVE",
"209 455 CURVE",
"94 413 LINE",
"87 355 OFFCURVE",
"69 145 OFFCURVE",
"58 55 CURVE SMOOTH",
"43 -67 OFFCURVE",
"15 -195 OFFCURVE",
"22 -203 CURVE SMOOTH",
"34 -213 OFFCURVE",
"170 -262 OFFCURVE",
"183 -252 CURVE",
"195 -201 LINE",
"177 -192 OFFCURVE",
"156 -134 OFFCURVE",
"155 -86 CURVE SMOOTH",
"154 -45 OFFCURVE",
"156 -21 OFFCURVE",
"160 28 CURVE",
"205 4 OFFCURVE",
"253 -6 OFFCURVE",
"303 -4 CURVE",
"475 46 OFFCURVE",
"534 304 OFFCURVE",
"426 441 CURVE SMOOTH"
);
},
{
closed = 1;
nodes = (
"248 67 OFFCURVE",
"203 99 OFFCURVE",
"176 138 CURVE",
"192 227 LINE",
"219 284 OFFCURVE",
"297 364 OFFCURVE",
"302 369 CURVE",
"313 364 OFFCURVE",
"324 354 OFFCURVE",
"333 332 CURVE SMOOTH",
"366 250 OFFCURVE",
"362 113 OFFCURVE",
"284 63 CURVE"
);
},
{
closed = 1;
nodes = (
"179 63 LINE",
"173 156 OFFCURVE",
"197 299 OFFCURVE",
"213 431 CURVE SMOOTH",
"224 520 OFFCURVE",
"249 683 OFFCURVE",
"236 706 CURVE SMOOTH",
"227 719 OFFCURVE",
"86 747 OFFCURVE",
"74 740 CURVE",
"63 696 LINE",
"106 665 LINE",
"108 595 OFFCURVE",
"97 446 OFFCURVE",
"86 330 CURVE",
"79 29 LINE",
"87 23 OFFCURVE",
"92 44 OFFCURVE",
"133 47 CURVE"
);
}
);
width = 507;
},
{
anchors = (
{
name = bottom;
position = "{241, 0}";
},
{
name = top;
position = "{241, 480}";
}
);
layerId = "11343128-4963-4E5D-BE9C-B74F53B36FA5";
name = Bold;
paths = (
{
closed = 1;
nodes = (
"391 455 OFFCURVE",
"349 484 OFFCURVE",
"290 484 CURVE",
"255 475 OFFCURVE",
"179 430 OFFCURVE",
"146 405 CURVE",
"104 285 OFFCURVE",
"129 98 OFFCURVE",
"120 53 CURVE",
"146 27 OFFCURVE",
"219 -13 OFFCURVE",
"284 -1 CURVE SMOOTH",
"492 38 OFFCURVE",
"516 335 OFFCURVE",
"411 436 CURVE SMOOTH"
);
},
{
closed = 1;
nodes = (
"236 74 OFFCURVE",
"182 95 OFFCURVE",
"167 144 CURVE SMOOTH",
"150 198 OFFCURVE",
"144 291 OFFCURVE",
"160 345 CURVE",
"171 352 OFFCURVE",
"228 389 OFFCURVE",
"279 389 CURVE",
"294 384 OFFCURVE",
"309 373 OFFCURVE",
"324 343 CURVE SMOOTH",
"366 259 OFFCURVE",
"354 120 OFFCURVE",
"279 74 CURVE"
);
},
{
closed = 1;
nodes = (
"7 -195 LINE",
"4 -250 LINE",
"243 -250 LINE",
"138 -184 LINE"
);
},
{
closed = 1;
nodes = (
"179 -164 OFFCURVE",
"177 -62 OFFCURVE",
"177 63 CURVE",
"179 56 OFFCURVE",
"182 48 OFFCURVE",
"187 40 CURVE",
"177 81 OFFCURVE",
"181 182 OFFCURVE",
"181 329 CURVE SMOOTH",
"181 491 OFFCURVE",
"188 709 OFFCURVE",
"178 740 CURVE",
"159 745 OFFCURVE",
"92 749 OFFCURVE",
"2 716 CURVE",
"11 665 LINE",
"56 665 LINE",
"72 514 OFFCURVE",
"69 364 OFFCURVE",
"66 213 CURVE SMOOTH",
"64 100 OFFCURVE",
"52 -149 OFFCURVE",
"59 -162 CURVE SMOOTH",
"66 -176 OFFCURVE",
"121 -200 OFFCURVE",
"243 -250 CURVE",
"247 -194 LINE",
"191 -185 LINE"
);
}
);
width = 495;
}
);
leftKerningGroup = l;
leftMetricsKey = p;
rightKerningGroup = o;
rightMetricsKey = p;
unicode = 00FE;
},
{
glyphname = q;
lastChange = "2016-10-21 14:13:11 +0000";
layers = (
{
anchors = (
{
name = bottom;
position = "{216, 0}";
},
{
name = top;
position = "{266, 480}";
}
);
background = {
components = (
{
name = b;
transform = "{-1, 0, 0, -1, 483, 480}";
}
);
};
layerId = "71FD7A9F-05F5-4D76-8D4F-547475A05E4C";
name = "Bold Italic";
paths = (
{
closed = 1;
nodes = (
"287 -241 OFFCURVE",
"346 -254 OFFCURVE",
"370 -252 CURVE",
"383 22 OFFCURVE",
"415 279 OFFCURVE",
"442 425 CURVE",
"399 466 OFFCURVE",
"333 497 OFFCURVE",
"204 486 CURVE",
"30 437 OFFCURVE",
"-28 172 OFFCURVE",
"84 39 CURVE SMOOTH",
"111 7 OFFCURVE",
"142 -3 OFFCURVE",
"178 -2 CURVE",
"216 29 OFFCURVE",
"258 74 OFFCURVE",
"294 128 CURVE",
"276 -25 OFFCURVE",
"236 -209 OFFCURVE",
"249 -222 CURVE"
);
},
{
closed = 1;
nodes = (
"193 117 OFFCURVE",
"179 132 OFFCURVE",
"171 154 CURVE SMOOTH",
"142 233 OFFCURVE",
"143 373 OFFCURVE",
"222 417 CURVE",
"257 412 OFFCURVE",
"300 386 OFFCURVE",
"323 352 CURVE",
"313 256 LINE",
"282 196 OFFCURVE",
"217 129 OFFCURVE",
"205 117 CURVE"
);
}
);
width = 470;
},
{
anchors = (
{
name = bottom;
position = "{247, 0}";
},
{
name = top;
position = "{247, 480}";
}
);
background = {
paths = (
{
closed = 1;
nodes = (
"434 -187 OFFCURVE",
"425 -120 OFFCURVE",
"429 39 CURVE SMOOTH",
"431 111 OFFCURVE",
"434 200 OFFCURVE",
"425 231 CURVE",
"406 236 OFFCURVE",
"333 240 OFFCURVE",
"243 207 CURVE",
"252 156 LINE",
"267 161 OFFCURVE",
"280 164 OFFCURVE",
"294 165 CURVE",
"330 132 OFFCURVE",
"311 -126 OFFCURVE",
"309 -149 CURVE SMOOTH",
"306 -177 OFFCURVE",
"349 -191 OFFCURVE",
"370 -193 CURVE SMOOTH",
"397 -196 OFFCURVE",
"410 -210 OFFCURVE",
"445 -210 CURVE"
);
}
);
};
layerId = "11343128-4963-4E5D-BE9C-B74F53B36FA5";
name = Bold;
paths = (
{
closed = 1;
nodes = (
"319 399 OFFCURVE",
"315 298 OFFCURVE",
"315 151 CURVE SMOOTH",
"315 -11 OFFCURVE",
"311 -115 OFFCURVE",
"311 -157 CURVE",
"311 -172 OFFCURVE",
"364 -205 OFFCURVE",
"447 -229 CURVE",
"425 -162 OFFCURVE",
"426 111 OFFCURVE",
"440 443 CURVE",
"436 450 OFFCURVE",
"380 451 OFFCURVE",
"359 453 CURVE",
"354 440 OFFCURVE",
"351 429 OFFCURVE",
"333 396 CURVE",
"323 391 OFFCURVE",
"322 418 OFFCURVE",
"309 440 CURVE"
);
},
{
closed = 1;
nodes = (
"104 26 OFFCURVE",
"146 -3 OFFCURVE",
"205 -3 CURVE",
"240 6 OFFCURVE",
"322 42 OFFCURVE",
"355 67 CURVE",
"397 187 OFFCURVE",
"431 398 OFFCURVE",
"440 443 CURVE",
"399 478 OFFCURVE",
"276 495 OFFCURVE",
"211 482 CURVE SMOOTH",
"3 441 OFFCURVE",
"-21 146 OFFCURVE",
"84 45 CURVE SMOOTH"
);
},
{
closed = 1;
nodes = (
"259 407 OFFCURVE",
"311 395 OFFCURVE",
"333 346 CURVE SMOOTH",
"357 292 OFFCURVE",
"351 177 OFFCURVE",
"335 123 CURVE",
"324 116 OFFCURVE",
"267 92 OFFCURVE",
"216 92 CURVE",
"201 97 OFFCURVE",
"186 108 OFFCURVE",
"171 138 CURVE SMOOTH",
"129 222 OFFCURVE",
"141 361 OFFCURVE",
"216 407 CURVE"
);
},
{
closed = 1;
nodes = (
"260 -195 LINE",
"257 -250 LINE",
"486 -250 LINE",
"490 -194 LINE",
"432 -184 LINE",
"382 -184 LINE"
);
}
);
width = 495;
}
);
leftKerningGroup = o;
leftMetricsKey = o;
rightKerningGroup = g;
unicode = 0071;
},
{
glyphname = r;
lastChange = "2016-10-21 14:12:01 +0000";
layers = (
{
anchors = (
{
name = bottom;
position = "{88, 0}";
},
{
name = top;
position = "{229, 480}";
}
);
background = {
paths = (
{
closed = 1;
nodes = (
"475 70 LINE",
"461 65 OFFCURVE",
"441 59 OFFCURVE",
"424 59 CURVE",
"400 113 OFFCURVE",
"444 368 OFFCURVE",
"465 444 CURVE",
"365 482 LINE",
"331 482 OFFCURVE",
"234 349 OFFCURVE",
"191 274 CURVE",
"192 283 OFFCURVE",
"210 441 OFFCURVE",
"205 452 CURVE SMOOTH",
"201 461 OFFCURVE",
"68 484 OFFCURVE",
"54 477 CURVE",
"41 434 LINE",
"87 407 LINE",
"78 272 OFFCURVE",
"42 45 OFFCURVE",
"44 34 CURVE SMOOTH",
"46 22 OFFCURVE",
"121 -3 OFFCURVE",
"164 -3 CURVE SMOOTH",
"179 -3 OFFCURVE",
"182 44 OFFCURVE",
"175 133 CURVE",
"238 271 OFFCURVE",
"295 323 OFFCURVE",
"327 359 CURVE",
"310 305 OFFCURVE",
"279 85 OFFCURVE",
"300 42 CURVE SMOOTH",
"305 33 OFFCURVE",
"351 -2 OFFCURVE",
"416 -2 CURVE",
"448 7 OFFCURVE",
"465 16 OFFCURVE",
"479 25 CURVE"
);
}
);
};
guideLines = (
{
position = "{-1213, 367}";
},
{
angle = -30;
position = "{258, 371}";
}
);
layerId = "71FD7A9F-05F5-4D76-8D4F-547475A05E4C";
name = "Bold Italic";
paths = (
{
closed = 1;
nodes = (
"54 480 LINE",
"77 480 OFFCURVE",
"193 464 OFFCURVE",
"204 453 CURVE",
"211 437 OFFCURVE",
"196 338 OFFCURVE",
"191 282 CURVE",
"210 327 OFFCURVE",
"237 372 OFFCURVE",
"291 452 CURVE",
"300 463 OFFCURVE",
"339 482 OFFCURVE",
"364 482 CURVE",
"437 455 LINE",
"436 443 OFFCURVE",
"395 336 OFFCURVE",
"373 308 CURVE",
"348 324 OFFCURVE",
"332 334 OFFCURVE",
"307 344 CURVE",
"281 318 OFFCURVE",
"226 254 OFFCURVE",
"177 134 CURVE",
"182 62 OFFCURVE",
"181 -4 OFFCURVE",
"165 -5 CURVE SMOOTH",
"127 -7 OFFCURVE",
"55 10 OFFCURVE",
"43 30 CURVE",
"49 72 OFFCURVE",
"84 340 OFFCURVE",
"87 407 CURVE",
"41 432 LINE"
);
}
);
width = 419;
},
{
anchors = (
{
name = bottom;
position = "{201, 0}";
},
{
name = top;
position = "{201, 480}";
}
);
background = {
components = (
{
name = a;
}
);
};
guideLines = (
{
position = "{143, 407}";
},
{
position = "{161, 457}";
}
);
layerId = "11343128-4963-4E5D-BE9C-B74F53B36FA5";
name = Bold;
paths = (
{
closed = 1;
nodes = (
"22 54 LINE",
"19 -1 LINE",
"277 0 LINE",
"272 56 LINE",
"211 66 LINE",
"155 66 LINE"
);
},
{
closed = 1;
nodes = (
"202 117 OFFCURVE",
"202 137 OFFCURVE",
"202 289 CURVE SMOOTH",
"202 310 OFFCURVE",
"202 332 OFFCURVE",
"203 355 CURVE",
"203 365 OFFCURVE",
"199 376 OFFCURVE",
"199 386 CURVE",
"200 427 OFFCURVE",
"199 462 OFFCURVE",
"194 480 CURVE",
"176 486 OFFCURVE",
"106 490 OFFCURVE",
"16 457 CURVE",
"24 407 LINE",
"80 407 LINE",
"84 310 OFFCURVE",
"82 134 OFFCURVE",
"81 101 CURVE SMOOTH",
"80 73 OFFCURVE",
"116 59 OFFCURVE",
"137 57 CURVE SMOOTH",
"164 54 OFFCURVE",
"167 50 OFFCURVE",
"202 50 CURVE"
);
},
{
closed = 1;
nodes = (
"301 537 OFFCURVE",
"200 396 OFFCURVE",
"176 304 CURVE",
"183 293 LINE",
"208 314 OFFCURVE",
"271 369 OFFCURVE",
"308 368 CURVE",
"312 346 OFFCURVE",
"316 320 OFFCURVE",
"317 311 CURVE",
"332 311 OFFCURVE",
"360 315 OFFCURVE",
"382 322 CURVE",
"385 368 OFFCURVE",
"390 423 OFFCURVE",
"391 462 CURVE"
);
}
);
width = 403;
}
);
leftKerningGroup = i;
leftMetricsKey = i;
rightKerningGroup = r;
unicode = 0072;
},
{
glyphname = s;
lastChange = "2016-10-21 14:23:53 +0000";
layers = (
{
anchors = (
{
name = bottom;
position = "{177, 0}";
},
{
name = top;
position = "{227, 480}";
}
);
background = {
paths = (
{
closed = 1;
nodes = (
"298 23 OFFCURVE",
"358 76 OFFCURVE",
"363 138 CURVE SMOOTH",
"371 239 OFFCURVE",
"282 266 OFFCURVE",
"237 285 CURVE SMOOTH",
"165 315 OFFCURVE",
"136 337 OFFCURVE",
"136 352 CURVE",
"149 375 OFFCURVE",
"183 401 OFFCURVE",
"202 403 CURVE",
"246 385 OFFCURVE",
"279 361 OFFCURVE",
"320 323 CURVE",
"340 354 OFFCURVE",
"356 389 OFFCURVE",
"368 420 CURVE SMOOTH",
"376 440 OFFCURVE",
"376 432 OFFCURVE",
"356 448 CURVE SMOOTH",
"321 473 OFFCURVE",
"270 490 OFFCURVE",
"214 488 CURVE SMOOTH",
"132 485 OFFCURVE",
"49 429 OFFCURVE",
"40 346 CURVE SMOOTH",
"28 245 OFFCURVE",
"100 208 OFFCURVE",
"152 188 CURVE SMOOTH",
"217 163 OFFCURVE",
"264 144 OFFCURVE",
"264 125 CURVE",
"250 96 OFFCURVE",
"208 72 OFFCURVE",
"191 72 CURVE",
"145 87 OFFCURVE",
"89 122 OFFCURVE",
"57 152 CURVE",
"37 119 OFFCURVE",
"5 62 OFFCURVE",
"5 48 CURVE",
"57 -5 OFFCURVE",
"170 -25 OFFCURVE",
"256 7 CURVE SMOOTH"
);
}
);
};
guideLines = (
{
angle = -96;
position = "{39, 308}";
},
{
angle = -96;
position = "{362, 292}";
}
);
layerId = "71FD7A9F-05F5-4D76-8D4F-547475A05E4C";
name = "Bold Italic";
paths = (
{
closed = 1;
nodes = (
"175 -25 OFFCURVE",
"61 -6 OFFCURVE",
"7 47 CURVE",
"7 61 OFFCURVE",
"38 119 OFFCURVE",
"59 152 CURVE",
"92 122 OFFCURVE",
"172 76 OFFCURVE",
"237 66 CURVE",
"271 97 OFFCURVE",
"271 142 OFFCURVE",
"157 192 CURVE SMOOTH",
"105 215 OFFCURVE",
"31 252 OFFCURVE",
"43 353 CURVE SMOOTH",
"53 436 OFFCURVE",
"126 488 OFFCURVE",
"210 489 CURVE SMOOTH",
"272 490 OFFCURVE",
"327 476 OFFCURVE",
"377 438 CURVE",
"369 413 OFFCURVE",
"340 350 OFFCURVE",
"323 325 CURVE",
"274 369 OFFCURVE",
"223 401 OFFCURVE",
"178 410 CURVE",
"149 393 OFFCURVE",
"136 327 OFFCURVE",
"234 286 CURVE SMOOTH",
"288 263 OFFCURVE",
"380 219 OFFCURVE",
"370 130 CURVE SMOOTH",
"363 68 OFFCURVE",
"306 23 OFFCURVE",
"263 7 CURVE SMOOTH"
);
}
);
width = 394;
},
{
anchors = (
{
name = bottom;
position = "{195, 0}";
},
{
name = top;
position = "{195, 480}";
}
);
background = {
paths = (
{
closed = 1;
nodes = (
"177 510 OFFCURVE",
"296 495 OFFCURVE",
"354 441 CURVE",
"356 427 OFFCURVE",
"329 369 OFFCURVE",
"312 336 CURVE",
"276 366 OFFCURVE",
"207 402 OFFCURVE",
"138 409 CURVE",
"102 384 OFFCURVE",
"107 328 OFFCURVE",
"221 286 CURVE SMOOTH",
"280 264 OFFCURVE",
"348 225 OFFCURVE",
"344 131 CURVE SMOOTH",
"340 47 OFFCURVE",
"257 -7 OFFCURVE",
"176 -9 CURVE SMOOTH",
"107 -11 OFFCURVE",
"40 7 OFFCURVE",
"12 29 CURVE",
"16 54 OFFCURVE",
"43 108 OFFCURVE",
"57 134 CURVE",
"94 95 OFFCURVE",
"175 82 OFFCURVE",
"211 79 CURVE",
"243 100 OFFCURVE",
"251 162 OFFCURVE",
"140 203 CURVE SMOOTH",
"69 229 OFFCURVE",
"2 262 OFFCURVE",
"2 355 CURVE SMOOTH",
"2 418 OFFCURVE",
"54 461 OFFCURVE",
"94 478 CURVE SMOOTH"
);
},
{
closed = 1;
nodes = (
"115 55 LINE",
"12 29 LINE",
"20 148 LINE",
"42 154 OFFCURVE",
"62 159 OFFCURVE",
"81 160 CURVE",
"84 137 OFFCURVE",
"88 113 OFFCURVE",
"94 95 CURVE"
);
}
);
};
layerId = "11343128-4963-4E5D-BE9C-B74F53B36FA5";
name = Bold;
paths = (
{
closed = 1;
nodes = (
"382 134 CURVE SMOOTH",
"386 210 OFFCURVE",
"340 246 OFFCURVE",
"267 275 CURVE SMOOTH",
"131 325 OFFCURVE",
"122 390 OFFCURVE",
"155 411 CURVE",
"200 410 OFFCURVE",
"290 389 OFFCURVE",
"329 350 CURVE",
"343 376 OFFCURVE",
"355 420 OFFCURVE",
"359 452 CURVE",
"330 474 OFFCURVE",
"257 492 OFFCURVE",
"188 490 CURVE SMOOTH",
"101 487 OFFCURVE",
"30 436 OFFCURVE",
"25 352 CURVE SMOOTH",
"18 258 OFFCURVE",
"91 226 OFFCURVE",
"151 203 CURVE SMOOTH",
"273 157 OFFCURVE",
"293 99 OFFCURVE",
"256 71 CURVE",
"185 75 OFFCURVE",
"95 98 OFFCURVE",
"64 131 CURVE",
"46 98 OFFCURVE",
"42 66 OFFCURVE",
"27 31 CURVE",
"59 5 OFFCURVE",
"140 -16 OFFCURVE",
"219 -13 CURVE SMOOTH",
"313 -9 OFFCURVE",
"377 47 OFFCURVE"
);
},
{
closed = 1;
nodes = (
"285 361 OFFCURVE",
"289 337 OFFCURVE",
"292 314 CURVE",
"311 315 OFFCURVE",
"328 320 OFFCURVE",
"351 326 CURVE",
"359 452 LINE",
"257 419 LINE",
"279 379 LINE"
);
},
{
closed = 1;
nodes = (
"27 109 OFFCURVE",
"25 71 OFFCURVE",
"27 31 CURVE",
"121 56 LINE",
"104 96 LINE",
"93 161 LINE",
"61 158 OFFCURVE",
"42 152 OFFCURVE",
"32 149 CURVE"
);
}
);
width = 400;
}
);
leftKerningGroup = o;
rightKerningGroup = o;
unicode = 0073;
},
{
glyphname = germandbls;
lastChange = "2016-10-18 16:17:36 +0000";
layers = (
{
anchors = (
{
name = bottom;
position = "{255, 0}";
},
{
name = top;
position = "{305, 480}";
}
);
background = {
anchors = (
{
name = bottom;
position = "{146, 0}";
},
{
name = top;
position = "{196, 480}";
}
);
paths = (
{
closed = 1;
nodes = (
"202 397 LINE",
"250 396 OFFCURVE",
"303 395 OFFCURVE",
"325 395 CURVE SMOOTH",
"336 395 OFFCURVE",
"337 411 OFFCURVE",
"345 475 CURVE",
"296 472 OFFCURVE",
"253 471 OFFCURVE",
"236 470 CURVE",
"121 488 LINE",
"118 467 OFFCURVE",
"109 465 OFFCURVE",
"79 463 CURVE SMOOTH",
"64 462 LINE",
"57 398 LINE",
"61 398 OFFCURVE",
"105 398 OFFCURVE",
"120 398 CURVE"
);
},
{
closed = 1;
nodes = (
"120 480 LINE",
"112 406 OFFCURVE",
"96 261 OFFCURVE",
"81 103 CURVE",
"62 -65 OFFCURVE",
"53 -132 OFFCURVE",
"35 -173 CURVE",
"7 -164 OFFCURVE",
"-55 -130 OFFCURVE",
"-81 -106 CURVE",
"-99 -138 OFFCURVE",
"-115 -164 OFFCURVE",
"-126 -202 CURVE",
"-106 -232 OFFCURVE",
"-29 -252 OFFCURVE",
"18 -250 CURVE",
"112 -228 OFFCURVE",
"171 -161 OFFCURVE",
"187 -1 CURVE SMOOTH",
"228 403 LINE"
);
}
);
};
layerId = "71FD7A9F-05F5-4D76-8D4F-547475A05E4C";
name = "Bold Italic";
paths = (
{
closed = 1;
nodes = (
"202 397 LINE",
"190 442 OFFCURVE",
"205 471 OFFCURVE",
"188 470 CURVE",
"119 488 LINE",
"116 467 OFFCURVE",
"109 465 OFFCURVE",
"79 463 CURVE SMOOTH",
"64 462 LINE",
"57 398 LINE",
"61 398 OFFCURVE",
"105 398 OFFCURVE",
"120 398 CURVE"
);
},
{
closed = 1;
nodes = (
"557 473 OFFCURVE",
"602 756 OFFCURVE",
"337 739 CURVE SMOOTH",
"218 731 OFFCURVE",
"130 626 OFFCURVE",
"118 480 CURVE SMOOTH",
"113 425 OFFCURVE",
"103 330 OFFCURVE",
"93 223 CURVE SMOOTH",
"81 103 LINE SMOOTH",
"62 -65 OFFCURVE",
"53 -132 OFFCURVE",
"35 -173 CURVE",
"7 -164 OFFCURVE",
"-55 -130 OFFCURVE",
"-81 -106 CURVE",
"-99 -138 OFFCURVE",
"-115 -164 OFFCURVE",
"-126 -202 CURVE",
"-106 -232 OFFCURVE",
"-29 -252 OFFCURVE",
"18 -250 CURVE",
"112 -228 OFFCURVE",
"173 -161 OFFCURVE",
"187 -1 CURVE",
"187 1 LINE",
"188 0 LINE",
"222 403 LINE SMOOTH",
"226 453 OFFCURVE",
"232 500 OFFCURVE",
"235 531 CURVE SMOOTH",
"243 621 OFFCURVE",
"285 666 OFFCURVE",
"324 668 CURVE",
"405 650 OFFCURVE",
"445 510 OFFCURVE",
"296 405 CURVE",
"295 391 OFFCURVE",
"292 382 OFFCURVE",
"291 354 CURVE",
"285 288 OFFCURVE",
"479 251 OFFCURVE",
"469 138 CURVE SMOOTH",
"464 75 OFFCURVE",
"372 40 OFFCURVE",
"301 79 CURVE",
"273 24 LINE",
"390 -60 OFFCURVE",
"579 9 OFFCURVE",
"593 159 CURVE SMOOTH",
"603 287 OFFCURVE",
"505 325 OFFCURVE",
"391 396 CURVE"
);
}
);
width = 620;
},
{
background = {
components = (
{
name = f;
transform = "{1, 0, 0, 1, -3, 0}";
}
);
};
layerId = "11343128-4963-4E5D-BE9C-B74F53B36FA5";
name = Bold;
paths = (
{
closed = 1;
nodes = (
"162 391 LINE",
"184 473 LINE",
"93 562 LINE",
"72 491 LINE",
"71 470 OFFCURVE",
"62 468 OFFCURVE",
"32 466 CURVE SMOOTH",
"17 465 LINE",
"15 400 LINE",
"19 400 OFFCURVE",
"63 387 OFFCURVE",
"78 387 CURVE"
);
},
{
closed = 1;
nodes = (
"575 290 OFFCURVE",
"474 328 OFFCURVE",
"354 396 CURVE",
"513 473 OFFCURVE",
"533 756 OFFCURVE",
"270 739 CURVE SMOOTH",
"151 731 OFFCURVE",
"73 626 OFFCURVE",
"73 480 CURVE SMOOTH",
"73 404 OFFCURVE",
"69 253 OFFCURVE",
"70 95 CURVE SMOOTH",
"70 84 OFFCURVE",
"84 71 OFFCURVE",
"104 63 CURVE",
"22 55 LINE",
"19 0 LINE",
"185 0 LINE",
"184 403 LINE SMOOTH",
"184 453 OFFCURVE",
"185 500 OFFCURVE",
"185 531 CURVE SMOOTH",
"185 621 OFFCURVE",
"223 666 OFFCURVE",
"262 668 CURVE",
"345 650 OFFCURVE",
"398 510 OFFCURVE",
"258 405 CURVE",
"257 391 OFFCURVE",
"255 382 OFFCURVE",
"257 354 CURVE",
"257 288 OFFCURVE",
"454 251 OFFCURVE",
"454 138 CURVE SMOOTH",
"454 75 OFFCURVE",
"365 40 OFFCURVE",
"291 79 CURVE",
"268 24 LINE",
"392 -60 OFFCURVE",
"575 12 OFFCURVE",
"575 162 CURVE SMOOTH"
);
},
{
closed = 1;
nodes = (
"112 0 LINE",
"233 0 LINE",
"237 60 LINE",
"168 69 LINE"
);
}
);
width = 588;
}
);
leftKerningGroup = f;
leftMetricsKey = f;
rightKerningGroup = z;
rightMetricsKey = "=o-10";
unicode = 00DF;
},
{
glyphname = t;
lastChange = "2016-10-21 14:10:01 +0000";
layers = (
{
anchors = (
{
name = bottom;
position = "{126, 3}";
},
{
name = center;
position = "{151, 240}";
},
{
name = top;
position = "{172, 480}";
},
{
name = topright;
position = "{303, 480}";
}
);
background = {
paths = (
{
closed = 1;
nodes = (
"276 475 OFFCURVE",
"220 474 OFFCURVE",
"203 473 CURVE",
"207 500 OFFCURVE",
"209 528 OFFCURVE",
"213 559 CURVE",
"181 563 OFFCURVE",
"128 557 OFFCURVE",
"112 554 CURVE",
"105 509 LINE",
"101 478 OFFCURVE",
"94 470 OFFCURVE",
"55 467 CURVE SMOOTH",
"42 466 LINE",
"35 403 LINE",
"38 403 OFFCURVE",
"59 403 OFFCURVE",
"78 403 CURVE",
"73 366 OFFCURVE",
"49 213 OFFCURVE",
"43 108 CURVE SMOOTH",
"40 53 OFFCURVE",
"56 21 OFFCURVE",
"75 8 CURVE SMOOTH",
"123 -25 OFFCURVE",
"210 -4 OFFCURVE",
"273 30 CURVE",
"272 83 LINE",
"246 78 OFFCURVE",
"203 72 OFFCURVE",
"181 73 CURVE",
"157 108 OFFCURVE",
"183 289 OFFCURVE",
"197 401 CURVE",
"275 399 OFFCURVE",
"304 398 OFFCURVE",
"309 400 CURVE SMOOTH",
"317 403 OFFCURVE",
"323 453 OFFCURVE",
"325 478 CURVE"
);
}
);
};
guideLines = (
{
angle = -103;
position = "{33, 345}";
}
);
layerId = "71FD7A9F-05F5-4D76-8D4F-547475A05E4C";
name = "Bold Italic";
paths = (
{
closed = 1;
nodes = (
"321 455 OFFCURVE",
"309 402 OFFCURVE",
"300 399 CURVE SMOOTH",
"295 397 OFFCURVE",
"275 399 OFFCURVE",
"197 401 CURVE",
"183 289 OFFCURVE",
"157 108 OFFCURVE",
"181 73 CURVE",
"203 72 OFFCURVE",
"246 78 OFFCURVE",
"272 83 CURVE",
"273 30 LINE",
"210 -4 OFFCURVE",
"123 -25 OFFCURVE",
"75 8 CURVE SMOOTH",
"56 21 OFFCURVE",
"40 53 OFFCURVE",
"43 108 CURVE SMOOTH",
"49 213 OFFCURVE",
"73 366 OFFCURVE",
"78 403 CURVE",
"59 403 OFFCURVE",
"38 403 OFFCURVE",
"35 403 CURVE",
"42 466 LINE",
"55 467 LINE SMOOTH",
"94 470 OFFCURVE",
"101 478 OFFCURVE",
"105 509 CURVE",
"112 554 LINE",
"128 557 OFFCURVE",
"181 563 OFFCURVE",
"213 559 CURVE",
"209 528 OFFCURVE",
"207 501 OFFCURVE",
"203 474 CURVE",
"220 475 OFFCURVE",
"276 476 OFFCURVE",
"325 479 CURVE"
);
}
);
width = 295;
},
{
anchors = (
{
name = bottom;
position = "{162, 0}";
},
{
name = center;
position = "{162, 240}";
},
{
name = top;
position = "{162, 480}";
},
{
name = topright;
position = "{303, 480}";
}
);
background = {
paths = (
{
closed = 1;
nodes = (
"68 333 LINE SMOOTH",
"68 376 OFFCURVE",
"57 386 OFFCURVE",
"14 387 CURVE",
"4 394 LINE",
"11 444 LINE",
"54 464 OFFCURVE",
"97 490 OFFCURVE",
"129 513 CURVE SMOOTH",
"148 526 OFFCURVE",
"165 539 OFFCURVE",
"181 552 CURVE",
"209 537 LINE",
"206 524 OFFCURVE",
"204 509 OFFCURVE",
"202 487 CURVE SMOOTH",
"201 476 OFFCURVE",
"199 463 OFFCURVE",
"198 450 CURVE",
"315 453 LINE",
"319 448 LINE",
"309 380 LINE",
"192 383 LINE",
"189 324 OFFCURVE",
"186 255 OFFCURVE",
"186 167 CURVE SMOOTH",
"186 111 OFFCURVE",
"205 87 OFFCURVE",
"250 87 CURVE SMOOTH",
"264 87 OFFCURVE",
"277 89 OFFCURVE",
"290 94 CURVE",
"297 96 OFFCURVE",
"303 98 OFFCURVE",
"309 101 CURVE",
"321 68 LINE",
"289 39 OFFCURVE",
"263 17 OFFCURVE",
"237 1 CURVE",
"224 -8 OFFCURVE",
"213 -12 OFFCURVE",
"206 -12 CURVE SMOOTH",
"110 -12 OFFCURVE",
"68 26 OFFCURVE",
"68 111 CURVE SMOOTH"
);
}
);
};
guideLines = (
{
angle = -90;
position = "{281, 135}";
},
{
position = "{146, 21}";
},
{
position = "{164, 71}";
},
{
position = "{146, 407}";
},
{
position = "{164, 457}";
}
);
layerId = "11343128-4963-4E5D-BE9C-B74F53B36FA5";
name = Bold;
paths = (
{
closed = 1;
nodes = (
"253 475 OFFCURVE",
"197 474 OFFCURVE",
"180 473 CURVE",
"181 500 OFFCURVE",
"181 528 OFFCURVE",
"181 559 CURVE",
"149 563 OFFCURVE",
"97 557 OFFCURVE",
"81 554 CURVE",
"79 509 LINE",
"78 478 OFFCURVE",
"72 470 OFFCURVE",
"33 467 CURVE SMOOTH",
"20 466 LINE",
"20 403 LINE",
"23 403 OFFCURVE",
"44 403 OFFCURVE",
"63 403 CURVE",
"62 366 OFFCURVE",
"54 213 OFFCURVE",
"59 108 CURVE SMOOTH",
"61 53 OFFCURVE",
"81 21 OFFCURVE",
"101 8 CURVE SMOOTH",
"152 -25 OFFCURVE",
"230 -6 OFFCURVE",
"297 23 CURVE",
"301 77 LINE",
"275 74 OFFCURVE",
"222 72 OFFCURVE",
"200 73 CURVE",
"173 108 OFFCURVE",
"180 289 OFFCURVE",
"182 401 CURVE",
"260 399 OFFCURVE",
"289 398 OFFCURVE",
"294 400 CURVE SMOOTH",
"302 403 OFFCURVE",
"302 453 OFFCURVE",
"302 478 CURVE"
);
}
);
width = 322;
}
);
leftKerningGroup = i;
rightKerningGroup = t;
unicode = 0074;
},
{
glyphname = u;
lastChange = "2016-10-17 20:26:46 +0000";
layers = (
{
anchors = (
{
name = bottom;
position = "{227, 0}";
},
{
name = ogonek;
position = "{440, 10}";
},
{
name = top;
position = "{254, 480}";
},
{
name = topright;
position = "{478, 480}";
}
);
background = {
paths = (
{
closed = 1;
nodes = (
"105 7 OFFCURVE",
"144 -2 OFFCURVE",
"179 1 CURVE",
"234 50 OFFCURVE",
"274 103 OFFCURVE",
"305 151 CURVE",
"302 133 OFFCURVE",
"291 34 OFFCURVE",
"296 26 CURVE SMOOTH",
"304 13 OFFCURVE",
"437 -4 OFFCURVE",
"448 1 CURVE",
"458 43 LINE",
"418 68 LINE",
"419 126 OFFCURVE",
"436 336 OFFCURVE",
"447 426 CURVE SMOOTH",
"462 548 OFFCURVE",
"490 676 OFFCURVE",
"483 684 CURVE SMOOTH",
"471 694 OFFCURVE",
"335 743 OFFCURVE",
"322 733 CURVE",
"310 682 LINE",
"328 673 OFFCURVE",
"349 615 OFFCURVE",
"350 567 CURVE SMOOTH",
"351 526 OFFCURVE",
"349 502 OFFCURVE",
"345 453 CURVE",
"300 477 OFFCURVE",
"252 487 OFFCURVE",
"202 485 CURVE",
"30 435 OFFCURVE",
"-29 177 OFFCURVE",
"79 40 CURVE SMOOTH"
);
},
{
closed = 1;
nodes = (
"257 414 OFFCURVE",
"302 382 OFFCURVE",
"329 343 CURVE",
"313 254 LINE",
"286 197 OFFCURVE",
"208 117 OFFCURVE",
"203 112 CURVE",
"192 117 OFFCURVE",
"181 127 OFFCURVE",
"172 149 CURVE SMOOTH",
"139 231 OFFCURVE",
"143 368 OFFCURVE",
"221 418 CURVE"
);
}
);
};
layerId = "71FD7A9F-05F5-4D76-8D4F-547475A05E4C";
name = "Bold Italic";
paths = (
{
closed = 1;
nodes = (
"174 164 OFFCURVE",
"208 426 OFFCURVE",
"193 452 CURVE",
"183 463 OFFCURVE",
"77 478 OFFCURVE",
"46 478 CURVE",
"33 431 LINE",
"80 407 LINE",
"76 327 OFFCURVE",
"69 261 OFFCURVE",
"63 204 CURVE SMOOTH",
"50 95 OFFCURVE",
"37 45 OFFCURVE",
"49 26 CURVE",
"142 -5 LINE",
"202 20 OFFCURVE",
"350 219 OFFCURVE",
"382 334 CURVE",
"351 397 LINE",
"317 240 OFFCURVE",
"188 141 OFFCURVE",
"165 112 CURVE"
);
},
{
closed = 1;
nodes = (
"446 7 OFFCURVE",
"465 20 OFFCURVE",
"477 28 CURVE",
"473 74 LINE",
"459 69 OFFCURVE",
"437 62 OFFCURVE",
"422 62 CURVE",
"406 104 OFFCURVE",
"449 379 OFFCURVE",
"466 444 CURVE",
"452 461 OFFCURVE",
"386 479 OFFCURVE",
"338 479 CURVE",
"323 471 OFFCURVE",
"324 288 OFFCURVE",
"326 280 CURVE",
"305 210 OFFCURVE",
"278 68 OFFCURVE",
"298 36 CURVE SMOOTH",
"308 20 OFFCURVE",
"360 -2 OFFCURVE",
"414 -2 CURVE"
);
}
);
width = 504;
},
{
anchors = (
{
name = bottom;
position = "{264, 0}";
},
{
name = ogonek;
position = "{479, 10}";
},
{
name = top;
position = "{264, 480}";
},
{
name = topright;
position = "{513, 480}";
}
);
background = {
components = (
{
name = n;
}
);
};
guideLines = (
{
position = "{141, 21}";
},
{
position = "{159, 71}";
},
{
position = "{141, 407}";
},
{
position = "{159, 457}";
}
);
layerId = "11343128-4963-4E5D-BE9C-B74F53B36FA5";
name = Bold;
paths = (
{
closed = 1;
nodes = (
"355 156 LINE",
"296 119 OFFCURVE",
"229 100 OFFCURVE",
"197 98 CURVE",
"197 378 OFFCURVE",
"202 433 OFFCURVE",
"185 480 CURVE",
"123 493 OFFCURVE",
"58 475 OFFCURVE",
"7 458 CURVE",
"16 408 LINE",
"65 408 LINE",
"76 346 OFFCURVE",
"69 175 OFFCURVE",
"69 98 CURVE SMOOTH",
"69 39 OFFCURVE",
"89 -6 OFFCURVE",
"171 -3 CURVE",
"242 18 OFFCURVE",
"346 80 OFFCURVE",
"355 105 CURVE"
);
},
{
closed = 1;
nodes = (
"455 71 LINE",
"448 113 OFFCURVE",
"450 141 OFFCURVE",
"451 286 CURVE SMOOTH",
"452 390 OFFCURVE",
"456 453 OFFCURVE",
"448 480 CURVE",
"394 492 OFFCURVE",
"332 474 OFFCURVE",
"275 457 CURVE",
"283 407 LINE",
"329 407 LINE",
"336 343 OFFCURVE",
"333 175 OFFCURVE",
"332 116 CURVE",
"333 90 OFFCURVE",
"330 35 OFFCURVE",
"342 0 CURVE",
"441 -11 OFFCURVE",
"503 9 OFFCURVE",
"528 21 CURVE",
"519 71 LINE"
);
}
);
width = 538;
}
);
leftKerningGroup = u;
rightKerningGroup = i;
unicode = 0075;
},
